<svg width="333" height="430" viewBox="0 0 333 430" fill="none" xmlns="http://www.w3.org/2000/svg">
<g clip-path="url(#clip0_73_6)">
<path d="M43.3885 300.167L140.374 232.157V180.44L43.3885 248.449V300.167Z" fill="url(#paint0_linear_73_6)"/>
<path d="M43.3885 248.66L140.374 180.65V5.41504L43.3885 73.4249V248.66Z" fill="url(#paint1_linear_73_6)"/>
<path d="M43.3885 248.66L36.5512 244.064V68.8286L43.3885 73.4249V248.66Z" fill="url(#paint2_linear_73_6)"/>
<path d="M133.502 0L140.374 5.41506L43.4002 73.4366L36.5512 68.8285L133.502 0Z" fill="url(#paint3_linear_73_6)"/>
<path d="M51.3965 87.7754L134.076 29.812V24.1514L51.3965 82.1264V87.7754Z" fill="#594E83"/>
<path d="M51.3965 103.845L134.076 45.8701V40.2211L51.3965 98.1962V103.845Z" fill="#594E83"/>
<path d="M51.3965 119.903L134.076 61.9281V56.2792L51.3965 114.254V119.903Z" fill="#594E83"/>
<path d="M51.3965 135.973L134.076 77.9861V72.3372L51.3965 130.312V135.973Z" fill="#594E83"/>
<path d="M51.3965 152.031L134.076 94.0559V88.3953L51.3965 146.37V152.031Z" fill="#594E83"/>
<path d="M51.3965 168.089L134.076 110.114V104.465L51.3965 162.428V168.089Z" fill="#594E83"/>
<path d="M51.3965 184.147L134.076 126.184V120.523L51.3965 178.498V184.147Z" fill="#594E83"/>
<path d="M51.3965 200.205L134.076 142.242V136.593L51.3965 194.556V200.205Z" fill="#594E83"/>
<path d="M51.3965 216.275L134.076 158.3V152.639L51.3965 210.614V216.275Z" fill="#594E83"/>
<path d="M51.3965 232.333L134.076 174.358V168.709L51.3965 226.684V232.333Z" fill="#594E83"/>
<path d="M132.378 205.901C132.401 205.901 132.413 205.924 132.436 205.936H132.448C132.436 205.924 132.413 205.924 132.413 205.912C132.401 205.901 132.401 205.901 132.378 205.901Z" fill="url(#paint4_linear_73_6)"/>
<path d="M122.263 204.135C122.157 204.146 122.064 204.158 121.958 204.182C122.064 204.158 122.157 204.146 122.263 204.135Z" fill="url(#paint5_linear_73_6)"/>
<path d="M209.344 189.094L178.331 167.691C175.544 165.235 171.388 164.779 166.143 168.767C163.52 170.756 160.512 174.557 158.03 178.194C165.3 183.41 171.833 188.217 178.003 192.404C177.663 192.229 177.3 192.077 176.926 191.948C182.253 193.889 184.992 200.17 184.945 209.059C184.945 209.386 184.934 209.714 184.922 210.029C187.732 203.035 192.52 195.726 198.081 191.866C198.585 191.527 199.076 191.211 199.568 190.93C199.603 190.907 199.638 190.895 199.674 190.872C200.142 190.615 200.587 190.381 201.043 190.17C201.09 190.147 201.149 190.123 201.196 190.1C201.629 189.913 202.062 189.749 202.483 189.609C202.542 189.585 202.6 189.574 202.659 189.55C203.069 189.422 203.467 189.328 203.877 189.246C203.935 189.235 203.994 189.223 204.041 189.211C204.439 189.141 204.813 189.094 205.188 189.083C205.246 189.083 205.293 189.071 205.352 189.071C205.738 189.059 206.089 189.071 206.452 189.106C206.499 189.106 206.534 189.118 206.581 189.129C206.944 189.176 207.295 189.235 207.623 189.34C207.658 189.34 207.682 189.352 207.717 189.363C208.056 189.469 208.396 189.585 208.724 189.749C208.724 189.749 208.735 189.761 208.747 189.761C210.093 190.416 211.206 191.527 212.025 193.001V193.012C212.224 193.387 212.4 193.773 212.575 194.182C212.575 194.194 212.575 194.205 212.587 194.217C212.751 194.626 212.891 195.059 213.009 195.515C213.009 195.527 213.02 195.539 213.02 195.55C213.149 196.006 213.243 196.486 213.325 196.977V197C213.407 197.503 213.465 198.03 213.5 198.568C213.407 194.042 211.885 190.697 209.344 189.094Z" fill="url(#paint6_linear_73_6)"/>
<path d="M170.533 191.539C170.557 191.539 170.58 191.527 170.604 191.527C171.154 191.433 171.681 191.375 172.196 191.34C171.646 191.375 171.107 191.445 170.533 191.539Z" fill="url(#paint7_linear_73_6)"/>
<path d="M176.75 191.878C175.907 191.585 174.994 191.41 174.034 191.34C174.994 191.41 175.907 191.585 176.75 191.878Z" fill="url(#paint8_linear_73_6)"/>
<path d="M172.406 191.328C172.91 191.305 173.402 191.305 173.882 191.328C173.402 191.305 172.91 191.305 172.406 191.328Z" fill="url(#paint9_linear_73_6)"/>
<path d="M126.056 204.006C125.962 204.006 125.857 203.995 125.763 203.995C125.869 203.995 125.962 204.006 126.056 204.006Z" fill="url(#paint10_linear_73_6)"/>
<path d="M74.2263 270.273C74.2263 270.238 74.238 270.215 74.238 270.18L73.4771 269.642C73.7346 269.829 73.9805 270.051 74.2263 270.273Z" fill="url(#paint11_linear_73_6)"/>
<path d="M31.9033 315.956C31.9618 303.348 42.3114 280.881 55.6463 271.63C62.7763 266.683 68.9228 266.367 73.0907 269.349L42.3231 247.175C42.3231 247.175 40.9416 246.052 40.4381 245.748C39.9698 245.467 38.4713 244.871 38.4713 244.871C34.5258 243.584 29.4564 244.578 23.7548 248.531C10.4198 257.782 0.0702424 280.25 -3.39851e-06 292.858C-0.0351263 299.208 2.48201 304.752 6.61481 307.629L6.67334 307.676C6.68505 307.676 6.70847 307.688 6.72017 307.711L35.2282 327.441C33.0975 324.412 31.8682 320.377 31.9033 315.956Z" fill="url(#paint12_linear_73_6)"/>
<path d="M213.535 200.076C213.582 190.264 206.956 185.703 198.07 191.866C192.508 195.726 187.72 203.035 184.91 210.029C184.922 209.714 184.934 209.386 184.934 209.059C185.016 193.363 176.411 185.773 160.184 195.913C152.34 200.813 145.912 210.462 141.311 220.017C138.197 204.357 125.155 198.439 108.401 210.053C90.4063 222.52 76.1698 251.596 74.2146 270.285C70.0584 266.344 63.4319 266.238 55.6346 271.642C42.288 280.893 31.9501 303.348 31.8916 315.968C31.833 327.336 39.9347 336.131 50.8813 331.628L199.088 228.918L199.475 228.649C207.717 222.134 213.489 210.064 213.535 200.076Z" fill="url(#paint13_linear_73_6)"/>
<path d="M153.007 174.615C148.851 171.668 142.915 168.335 140.328 168.323C136.804 168.323 132.718 169.726 128.269 172.802C122.087 177.083 116.526 184.03 112.182 191.609C120.706 197.737 131.055 205.211 131.055 205.211C131.032 205.211 131.02 205.199 130.997 205.199C131.465 205.398 131.922 205.632 132.366 205.877C132.378 205.877 132.402 205.889 132.413 205.889C132.437 205.901 132.448 205.912 132.46 205.912C132.519 205.948 132.577 205.994 132.647 206.029C133.525 206.544 134.357 207.164 135.118 207.877C135.2 207.948 135.282 208.029 135.364 208.111C135.738 208.474 136.101 208.836 136.452 209.246C136.452 209.246 136.452 209.246 136.452 209.257C136.804 209.655 137.12 210.088 137.448 210.532C137.518 210.638 137.588 210.743 137.67 210.836C137.974 211.292 138.267 211.737 138.548 212.228C138.56 212.24 138.56 212.24 138.56 212.251C138.841 212.743 139.098 213.257 139.344 213.784C139.403 213.912 139.461 214.041 139.52 214.181C139.754 214.719 139.988 215.257 140.187 215.83C140.187 215.83 140.199 215.842 140.199 215.854C140.398 216.427 140.585 217.023 140.761 217.631C140.796 217.784 140.843 217.936 140.878 218.088C141.042 218.707 141.194 219.339 141.323 219.994C145.912 210.439 152.351 200.79 160.195 195.889C160.348 195.796 160.476 195.714 160.617 195.644C168.086 191.082 173.917 190.311 177.991 192.392C170.44 187.27 162.338 181.223 153.007 174.615Z" fill="url(#paint14_linear_73_6)"/>
<path d="M108.413 210.041C112.557 207.164 116.479 205.363 120.085 204.521C120.085 204.521 124.593 203.328 131.067 205.211C131.067 205.211 104.409 185.948 101.4 183.925C95.382 179.855 86.7067 179.983 76.6615 186.942C58.6669 199.41 44.29 228.485 42.3348 247.175L74.2498 270.086C76.2752 251.397 90.4765 222.473 108.413 210.041Z" fill="url(#paint15_linear_73_6)"/>
<path d="M264.206 324.377H264.218L314.724 359.838L264.218 395.241H264.206L213.688 359.838L264.206 324.377Z" stroke="#5EBBD8" stroke-width="0.9562" stroke-miterlimit="10" stroke-linecap="round" stroke-linejoin="round"/>
<path d="M264.206 366.972H264.218L300.172 392.212L264.218 417.404H264.206L228.252 392.212L264.206 366.972Z" stroke="#5EBBD8" stroke-width="0.9562" stroke-miterlimit="10" stroke-linecap="round" stroke-linejoin="round"/>
<path d="M264.218 405.381L281.369 417.416L264.218 429.439L247.054 417.416L264.218 405.381Z" stroke="#5EBBD8" stroke-width="0.9562" stroke-miterlimit="10" stroke-linecap="round" stroke-linejoin="round"/>
<path d="M264.218 376.773L333 328.576V320.214L264.218 368.423V376.773Z" fill="url(#paint16_linear_73_6)"/>
<path d="M264.218 376.773L195.424 328.576V320.214L264.218 368.423V376.773Z" fill="url(#paint17_linear_73_6)"/>
<path d="M264.218 271.981L333 320.26L264.218 368.458L195.424 320.26L264.218 271.981Z" fill="url(#paint18_linear_73_6)"/>
<path opacity="0.8" d="M264.218 278.729L323.365 320.249L264.218 361.698L205.071 320.249L264.218 278.729Z" fill="#3A3469"/>
<path d="M264.791 337.64C266.243 338.447 269.72 338.704 272.448 336.786C276.487 333.956 284.893 328.705 284.893 327.921C284.893 327.278 284.893 326.038 284.893 326.038V323.465V322.249H271.57C271.57 322.249 271.547 323.114 271.547 323.441C271.547 323.956 271.476 325.886 270.434 326.857C268.948 328.248 268.151 329.149 265.74 331.488C263.234 333.956 263 336.646 264.791 337.64Z" fill="#09003C"/>
<path d="M271.172 323.944C271.172 324.634 273.677 326.564 277.752 327.36C280.515 327.898 284.893 326.365 284.893 325.465C284.893 319.921 282.165 284.098 282.681 272.694C283.535 253.595 283.805 201.784 283.805 201.784L259.956 192.626C259.956 192.626 258.762 199.889 260.284 214.626C261.9 230.391 261.232 251.525 263.059 265.291C264.826 278.589 271.172 311.863 271.172 323.944Z" fill="#09003C"/>
<path d="M241.282 321.652C242.734 322.447 246.223 322.705 248.939 320.798C252.978 317.968 261.396 312.717 261.396 311.933C261.396 311.29 261.396 310.05 261.396 310.05V307.477V306.261H248.073C248.073 306.261 248.049 307.126 248.049 307.454C248.049 307.968 247.979 309.898 246.937 310.869C245.45 312.26 244.654 313.161 242.254 315.5C239.725 317.968 239.491 320.658 241.282 321.652Z" fill="#09003C"/>
<path d="M247.406 307.138C247.616 309.243 250.403 310.974 253.833 311.933C256.549 312.681 262.122 311.828 262.122 310.483C262.122 304.939 259.523 268.145 260.038 256.742C260.893 237.643 259.968 192.626 259.968 192.626L237.185 177.469C237.185 177.469 237.126 206.298 240.404 231.116C242.172 244.403 246.188 295.126 247.406 307.138Z" fill="#09003C"/>
<path d="M273.806 92.8279L249.244 92.2899L253.575 132.488L273.806 92.8279Z" fill="#928CBE"/>
<path d="M249.244 92.2899L253.587 132.476L253.599 189.071C253.599 189.071 253.587 196.919 247.429 195.071C240.147 192.895 236.377 185.948 236.26 182.896C235.522 163.224 235.534 163.563 235.534 129.236L235.557 102.009L249.244 92.2899Z" fill="#25216F"/>
<path d="M253.575 132.488L273.806 92.8279C282.142 98.6874 292.808 105.705 292.808 105.705L284.905 140.534L280.679 168.756C280.679 168.756 283.137 191.012 284.285 203.608C284.87 210.018 266.231 209.912 258.106 202.825C254.512 199.69 253.587 193.48 253.587 188.17C253.575 174.849 253.575 132.488 253.575 132.488Z" fill="#25216F"/>
<path d="M253.634 64.6766C255.437 63.7526 258.504 63.238 260.717 63.238C267.601 63.238 272.366 69.6238 272.366 76.5008V85.6351C272.366 90.0326 262.778 97.2956 256.889 98.4768C255.718 98.7108 255.004 98.5236 254.617 98.3131C253.786 97.8687 253.06 96.664 252.92 96.3716C252.299 95.1436 252.042 92.6407 252.042 92.6407L253.634 64.6766Z" fill="#E39E76"/>
<path d="M260.811 50.3144C269.264 50.3144 275.118 58.1621 275.118 66.5946V72.5594C275.118 81.9977 261.42 94.4652 252.967 94.4652C248.74 94.4652 247.944 89.3893 246.223 84.1614C244.982 80.3721 245.509 69.4952 245.509 64.852C245.509 56.4078 252.358 50.3144 260.811 50.3144Z" fill="#F5BB95"/>
<path d="M272.366 85.6351C272.366 85.6351 271.886 88.9917 268.116 91.9507C264.346 94.9097 257.779 99.7399 254.617 98.3248L261.466 104.067C261.466 104.067 273.806 95.9389 273.806 92.1495C273.806 88.5005 273.935 86.9567 272.366 85.6351Z" fill="#B2AFD4"/>
<path d="M252.311 94.4185C252.311 94.4185 252.674 97.0149 254.606 98.3248L250.192 101.424L249.232 92.3016C249.244 92.2899 250.438 94.0325 252.311 94.4185Z" fill="#B2AFD4"/>
<path d="M253.084 103.436V99.3891L254.617 98.3131L259.628 102.512L256.327 105.705L253.084 103.436Z" fill="#191454"/>
<path d="M256.327 105.705L258.364 123.108L253.575 132.488L252.042 118.675L253.084 103.436L256.327 105.705Z" fill="#191454"/>
<path d="M267.414 130.909L278.56 96.1611L275.434 93.9155L253.575 132.488L267.414 130.909Z" fill="#191454"/>
<path d="M253.575 132.488L241.798 114.254L245.532 94.6173L249.244 92.2899L253.575 132.488Z" fill="#191454"/>
<path d="M253.575 132.488L266.068 129.704L278.56 96.1611L273.806 92.8279L253.575 132.488Z" fill="#25216F"/>
<path d="M253.575 132.488L243.331 113.786L245.521 94.629C245.521 94.629 247.195 93.167 249.232 92.3016L253.575 132.488Z" fill="#25216F"/>
<path d="M218.804 151.785C224.037 134.628 233.86 107.857 235.71 102.839V163.434L228.135 165.703C220.443 167.843 215.889 161.317 218.804 151.785Z" fill="#1A1556"/>
<path d="M228.615 165.493L263.878 155.505L261.15 146.557L225.231 153.692L228.615 165.493Z" fill="#1A1556"/>
<path d="M244.549 158.335C244.549 158.335 237.126 149.844 235.522 151.914C235.522 151.914 235.885 148.99 237.36 147.049C239.21 144.628 241.868 144.651 244.654 146.569C247.441 148.499 249.22 149.715 249.22 149.715L244.549 158.335Z" fill="#F5BB95"/>
<path d="M244.549 158.639C244.549 158.639 259.113 167.949 270.68 173.06C273.865 174.475 277.377 172.393 279.133 169.411C285.982 157.738 301.413 112.395 292.808 105.705C285.666 100.149 280.55 114.453 277.436 125.739C275.164 133.985 271.184 150.288 269.521 154.627C268.901 156.241 268.07 156.674 266.7 156.159C258.282 152.99 248.448 147.481 248.448 147.481C248.448 147.481 243.343 151.353 244.549 158.639Z" fill="#25216F"/>
<path d="M261.42 147.446C262.309 147.201 269.931 145.095 277.916 145.224C278.653 145.236 279.25 145.832 279.239 146.581C279.227 147.318 278.642 147.891 277.881 147.902C277.131 147.891 273.97 148.464 273.244 148.499C273.596 148.628 273.958 148.756 274.321 148.92C275 149.224 275.293 150.019 274.989 150.698C274.684 151.376 273.888 151.668 273.221 151.364C273.092 151.306 272.963 151.259 272.835 151.212C273.069 151.364 273.303 151.505 273.525 151.68C274.111 152.125 274.228 152.967 273.771 153.551C273.514 153.902 273.115 154.078 272.706 154.078C272.425 154.078 272.132 153.984 271.886 153.809C271.687 153.657 271.488 153.54 271.289 153.411C271.512 153.622 271.722 153.832 271.933 154.066C272.413 154.627 272.343 155.469 271.781 155.949C271.523 156.159 271.219 156.265 270.914 156.265C270.54 156.265 270.165 156.113 269.896 155.797C269.381 155.2 268.807 154.733 268.21 154.358C268.55 154.639 268.889 154.931 269.193 155.259C269.697 155.809 269.65 156.651 269.111 157.154C268.854 157.388 268.526 157.504 268.21 157.504C267.847 157.504 267.484 157.364 267.227 157.072C266.302 156.066 265.037 155.388 263.726 154.943L261.42 147.446Z" fill="#F5BB95"/>
<path d="M269.252 76.6646C269.018 77.5417 268.257 78.9218 266.84 80.6761C266.185 81.4831 264.218 83.0737 261.654 82.0445C259.066 80.9919 255.976 80.3838 253.084 80.1615C246.106 79.6118 245.626 80.7112 245.626 80.7112C245.626 80.7112 245.778 83.1439 246.247 84.8632C247.698 90.173 249.349 94.4769 252.99 94.4769C259.02 94.4769 267.707 88.1379 272.202 81.0738C271.102 80.22 271.043 77.9745 272.132 75.7874C273.127 73.7991 274.755 72.536 276.054 72.6062C280.608 59.6475 271.617 49.6478 259.734 50.022C249.138 50.3612 247.277 56.3259 242.84 58.4077C240.334 59.5773 237.747 58.1387 237.747 58.1387C238.262 61.9983 242.828 65.7058 251.047 65.7058C257.193 65.7058 260.424 63.5304 265.037 66.5128C267.636 68.1736 270.411 72.4308 269.252 76.6646ZM259.464 86.9099C255.004 88.5824 250.754 89.2958 247.827 85.3544C247.089 84.3603 246.762 83.2492 247.687 83.179C248.611 83.1088 250.777 83.0737 253.084 83.3544C255.613 83.6702 257.767 84.4772 259.347 85.2374C259.944 85.5415 260.389 86.559 259.464 86.9099Z" fill="#09003C"/>
<path d="M272.132 75.764C270.961 78.1031 271.102 80.5592 272.46 81.2375C273.818 81.9159 275.855 80.5592 277.038 78.2201C278.22 75.8809 278.068 73.4249 276.71 72.7465C275.363 72.0682 273.303 73.4249 272.132 75.764Z" fill="#F5BB95"/>
</g>
<defs>
<linearGradient id="paint0_linear_73_6" x1="105.426" y1="266.39" x2="79.5945" y2="216.522" gradientUnits="userSpaceOnUse">
<stop offset="0.1333"/>
<stop offset="0.315"/>
<stop offset="0.4321"/>
<stop offset="0.531"/>
<stop offset="0.6197" stop-color="#020000"/>
<stop offset="0.7017" stop-color="#260D11"/>
<stop offset="0.7788" stop-color="#43262D"/>
<stop offset="0.8519" stop-color="#643F4C"/>
<stop offset="0.922" stop-color="#955E78"/>
<stop offset="0.9873" stop-color="#D58BB3"/>
<stop offset="1" stop-color="#E195BF"/>
</linearGradient>
<linearGradient id="paint1_linear_73_6" x1="43.3923" y1="127.041" x2="140.376" y2="127.041" gradientUnits="userSpaceOnUse">
<stop stop-color="#827DB6"/>
<stop offset="1" stop-color="#B2B3D7"/>
</linearGradient>
<linearGradient id="paint2_linear_73_6" x1="35.2657" y1="242.408" x2="44.8535" y2="71.5698" gradientUnits="userSpaceOnUse">
<stop stop-color="#30338C"/>
<stop offset="0.2462" stop-color="#434293"/>
<stop offset="0.7246" stop-color="#6662A5"/>
<stop offset="1" stop-color="#7A75B1"/>
</linearGradient>
<linearGradient id="paint3_linear_73_6" x1="36.549" y1="36.7172" x2="140.376" y2="36.7172" gradientUnits="userSpaceOnUse">
<stop stop-color="#B2B3D7"/>
<stop offset="1" stop-color="#827DB6"/>
</linearGradient>
<linearGradient id="paint4_linear_73_6" x1="132.381" y1="205.913" x2="132.455" y2="205.913" gradientUnits="userSpaceOnUse">
<stop stop-color="#30338C"/>
<stop offset="0.7415" stop-color="#6A65A7"/>
<stop offset="1" stop-color="#7A75B1"/>
</linearGradient>
<linearGradient id="paint5_linear_73_6" x1="121.956" y1="204.151" x2="122.265" y2="204.153" gradientUnits="userSpaceOnUse">
<stop stop-color="#30338C"/>
<stop offset="0.7415" stop-color="#6A65A7"/>
<stop offset="1" stop-color="#7A75B1"/>
</linearGradient>
<linearGradient id="paint6_linear_73_6" x1="157.969" y1="187.804" x2="213.54" y2="188.093" gradientUnits="userSpaceOnUse">
<stop stop-color="#30338C"/>
<stop offset="0.7415" stop-color="#6A65A7"/>
<stop offset="1" stop-color="#7A75B1"/>
</linearGradient>
<linearGradient id="paint7_linear_73_6" x1="170.532" y1="191.439" x2="172.185" y2="191.448" gradientUnits="userSpaceOnUse">
<stop stop-color="#30338C"/>
<stop offset="0.7415" stop-color="#6A65A7"/>
<stop offset="1" stop-color="#7A75B1"/>
</linearGradient>
<linearGradient id="paint8_linear_73_6" x1="174.03" y1="191.605" x2="176.751" y2="191.62" gradientUnits="userSpaceOnUse">
<stop stop-color="#30338C"/>
<stop offset="0.7415" stop-color="#6A65A7"/>
<stop offset="1" stop-color="#7A75B1"/>
</linearGradient>
<linearGradient id="paint9_linear_73_6" x1="172.402" y1="191.316" x2="173.872" y2="191.324" gradientUnits="userSpaceOnUse">
<stop stop-color="#30338C"/>
<stop offset="0.7415" stop-color="#6A65A7"/>
<stop offset="1" stop-color="#7A75B1"/>
</linearGradient>
<linearGradient id="paint10_linear_73_6" x1="125.766" y1="204.002" x2="126.059" y2="204.004" gradientUnits="userSpaceOnUse">
<stop stop-color="#30338C"/>
<stop offset="0.7415" stop-color="#6A65A7"/>
<stop offset="1" stop-color="#7A75B1"/>
</linearGradient>
<linearGradient id="paint11_linear_73_6" x1="73.4709" y1="269.956" x2="74.2334" y2="269.96" gradientUnits="userSpaceOnUse">
<stop stop-color="#30338C"/>
<stop offset="0.7415" stop-color="#6A65A7"/>
<stop offset="1" stop-color="#7A75B1"/>
</linearGradient>
<linearGradient id="paint12_linear_73_6" x1="0.03752" y1="285.705" x2="73.0099" y2="286.085" gradientUnits="userSpaceOnUse">
<stop stop-color="#30338C"/>
<stop offset="0.7415" stop-color="#6A65A7"/>
<stop offset="1" stop-color="#7A75B1"/>
</linearGradient>
<linearGradient id="paint13_linear_73_6" x1="45.1978" y1="321.858" x2="170.198" y2="203.409" gradientUnits="userSpaceOnUse">
<stop stop-color="#827DB6"/>
<stop offset="1" stop-color="#B2B3D7"/>
</linearGradient>
<linearGradient id="paint14_linear_73_6" x1="112.169" y1="194.015" x2="177.98" y2="194.358" gradientUnits="userSpaceOnUse">
<stop stop-color="#30338C"/>
<stop offset="0.7415" stop-color="#6A65A7"/>
<stop offset="1" stop-color="#7A75B1"/>
</linearGradient>
<linearGradient id="paint15_linear_73_6" x1="42.4409" y1="225.446" x2="130.951" y2="225.906" gradientUnits="userSpaceOnUse">
<stop stop-color="#30338C"/>
<stop offset="0.7415" stop-color="#6A65A7"/>
<stop offset="1" stop-color="#7A75B1"/>
</linearGradient>
<linearGradient id="paint16_linear_73_6" x1="317.367" y1="358.503" x2="280.285" y2="338.686" gradientUnits="userSpaceOnUse">
<stop stop-color="#30338C"/>
<stop offset="0.7415" stop-color="#6A65A7"/>
<stop offset="1" stop-color="#7A75B1"/>
</linearGradient>
<linearGradient id="paint17_linear_73_6" x1="229.819" y1="377.51" x2="229.819" y2="341.02" gradientUnits="userSpaceOnUse">
<stop stop-color="#9186BB"/>
<stop offset="1" stop-color="#C7C4E1"/>
</linearGradient>
<linearGradient id="paint18_linear_73_6" x1="331.737" y1="321.805" x2="200.13" y2="318.705" gradientUnits="userSpaceOnUse">
<stop stop-color="#786FAD"/>
<stop offset="1" stop-color="#B2B3D7"/>
</linearGradient>
<clipPath id="clip0_73_6">
<rect width="333" height="430" fill="white"/>
</clipPath>
</defs>
</svg>
