<svg width="490" height="491" viewBox="0 0 490 491" fill="none" xmlns="http://www.w3.org/2000/svg">
<path d="M85.3872 227.389C85.537 227.505 85.6886 227.619 85.8403 227.733C94.7909 234.515 105.769 240.345 119.323 244.251C122.019 244.826 124.715 245.4 127.411 245.975C131.226 240.179 133.819 233.981 126.293 229.489C114.605 222.512 119.905 200.182 125.355 193.182C132.098 184.521 147.388 164.028 129.491 152.96C114.59 143.746 103.094 140.847 107.218 119.693C111.342 98.5373 103.243 82.6457 84.0225 79.1132C63.7961 75.397 54.1604 44.7663 35.6264 49.5188C3.33056 57.8001 17.4763 110.285 48.662 132.329C79.8476 154.373 56.8936 161.83 51.6592 178.674C44.5133 201.668 77.2566 204.636 83.2661 215.895C85.3011 219.707 85.7617 223.665 85.3872 227.389Z" fill="url(#paint0_linear_83_2036)"/>
<g opacity="0.5">
<path d="M103.352 238.16L104.32 238.203C107.493 167.368 76.3056 95.3383 22.9316 50.2216L22.3063 50.9618C75.4556 95.8893 106.512 167.619 103.352 238.16Z" fill="#FCFDFE"/>
<path d="M101.778 199.391L102.717 199.625C109.431 172.581 137.793 157.256 138.08 157.104L137.627 156.247C137.335 156.401 108.598 171.922 101.778 199.391Z" fill="#FCFDFE"/>
<path d="M103.58 225.114L104.518 224.872C97.5036 197.508 48.5852 181.711 48.0928 181.554L47.8008 182.478C48.2875 182.634 96.6986 198.268 103.58 225.114Z" fill="#FCFDFE"/>
<path d="M82.9254 132.504L83.882 132.344C80.1884 110.24 100.823 82.7712 101.031 82.4976L100.259 81.911C100.048 82.1865 79.1643 109.989 82.9254 132.504Z" fill="#FCFDFE"/>
<path d="M60.8175 93.2844L61.5102 92.6042C43.6371 74.3794 9.18835 73.4218 8.842 73.4143L8.82141 74.3832C9.16214 74.3907 43.2253 75.3427 60.8175 93.2844Z" fill="#FCFDFE"/>
</g>
<path d="M151.733 293.127L103.818 289.572C103.818 289.572 96.62 264.299 109.648 247.806C136.228 214.156 104.932 193.201 93.136 182.461C75.3452 166.264 68.439 146.531 92.0689 135.815C118.805 123.692 98.9189 84.666 66.4227 62.6538C34.6211 41.114 54.5236 -27.9021 127.63 12.3929C171.287 36.4571 160.658 83.8939 160.98 109.127C161.302 134.361 198.398 139.198 183.381 168.88C170.554 194.234 148.451 211.774 162.91 230.932C177.368 250.09 177.507 270.378 151.733 293.127Z" fill="url(#paint1_linear_83_2036)"/>
<g opacity="0.5">
<path d="M130.666 296.039L129.685 295.783C129.844 295.174 145.506 234.197 142.826 169.06C140.354 109.054 121.356 33.1345 44.8746 12.2336L45.1423 11.2535C79.1886 20.558 104.87 41.3483 121.474 73.0472C134.738 98.3688 142.262 130.665 143.84 169.041C146.523 234.324 130.823 295.43 130.666 296.039Z" fill="#BEB8F2"/>
<path d="M127.839 86.5924L126.845 86.3919C133.48 53.2575 124.271 4.80876 124.177 4.32339L125.173 4.13037C125.265 4.61761 134.513 53.2632 127.839 86.5924Z" fill="#BEB8F2"/>
<path d="M116.197 65.7759C83.7192 42.0135 51.15 49.8431 50.8261 49.9237L50.579 48.9398C50.9085 48.8555 83.9195 40.9022 116.796 64.9551L116.197 65.7759Z" fill="#BEB8F2"/>
<path d="M142.26 211.741C134.485 163.163 70.4908 146.643 69.8524 146.535L69.9573 145.526C70.5919 145.573 135.418 162.572 143.262 211.581L142.26 211.741Z" fill="#BEB8F2"/>
<path d="M144.071 191.535L143.095 191.256C151.733 161.077 186.51 142.451 186.862 142.266L187.333 143.163C186.985 143.347 152.587 161.778 144.071 191.535Z" fill="#BEB8F2"/>
<path d="M131.937 286.133C131.855 267.444 106.443 250.765 106.186 250.598L106.737 249.746C107.804 250.435 132.866 266.887 132.952 286.128L131.937 286.133Z" fill="#BEB8F2"/>
<path d="M135.841 271.743L134.856 271.497C138.409 257.155 161.543 242.6 169.146 237.818C170.22 237.141 171.147 236.558 171.291 236.421L171.997 237.15C171.795 237.345 171.181 237.735 169.685 238.678C162.168 243.408 139.297 257.798 135.841 271.743Z" fill="#BEB8F2"/>
</g>
<path d="M208.511 109.478L8.40767 101.363C3.76857 101.176 0 104.429 0 108.633V446.031C0 450.235 3.76857 453.392 8.40767 453.089L208.511 439.935C212.594 439.667 215.896 436.264 215.896 432.336V116.891C215.896 112.962 212.594 109.643 208.511 109.478Z" fill="url(#paint2_linear_83_2036)"/>
<path d="M205.942 114.896L8.40767 101.363C3.76857 101.176 0 104.429 0 108.633V446.031C0 450.235 3.76857 453.392 8.40767 453.089L208.511 439.935C212.594 439.667 215.896 436.264 215.896 432.336V116.891C215.896 112.962 210.025 115.062 205.942 114.896Z" fill="url(#paint3_linear_83_2036)"/>
<path d="M212.579 109.478L12.4758 101.363C7.83856 101.176 4.06812 104.429 4.06812 108.633V446.031C4.06812 450.235 7.83668 453.392 12.4758 453.089L212.579 439.935C216.662 439.667 219.964 436.264 219.964 432.336V116.891C219.964 112.962 216.662 109.643 212.579 109.478Z" fill="#D8DEE8"/>
<g opacity="0.3">
<path d="M131.121 355.785C127.725 317.545 153.163 301.657 143.473 267.063C131.479 224.238 85.1644 222.331 69.3263 180.12C63.2494 163.923 60.8475 139.462 78.2357 104.03L12.4758 101.363C7.83856 101.176 4.06812 104.429 4.06812 108.633V446.031C4.06812 450.235 7.83668 453.392 12.4758 453.089L191.156 441.342C146.098 409.61 133.207 379.279 131.121 355.785Z" fill="#D8DEE8"/>
</g>
<path d="M212.579 113.679L12.4758 105.835C10.5756 105.76 9.02734 107.1 9.02734 108.82V445.714C9.02734 447.435 10.5756 448.735 12.4758 448.614L212.579 435.73C214.254 435.621 215.617 434.221 215.617 432.608V116.725C215.617 115.111 214.254 113.745 212.579 113.679Z" fill="url(#paint4_linear_83_2036)"/>
<path d="M115.646 261.424C78.1346 261.728 46.9639 233.192 46.9639 197.811C46.9639 162.43 78.1346 134.614 115.646 135.781C152.3 136.923 181.507 165.434 181.507 199.363C181.507 233.292 152.3 261.128 115.646 261.424Z" fill="#D8DEE8"/>
<path d="M177.052 199.31C177.052 230.994 149.853 256.861 115.646 257.092C80.6938 257.326 51.7939 230.812 51.7939 197.867C51.7939 164.922 80.6938 139.074 115.646 140.114C149.853 141.132 177.052 167.626 177.052 199.31Z" fill="white"/>
<path opacity="0.74" d="M190.379 283.716L37.257 286.071C32.9511 286.137 29.4521 289.379 29.4521 293.311C29.4521 297.242 32.9511 300.361 37.257 300.275L190.379 297.257C194.283 297.18 197.441 294.094 197.441 290.363C197.443 286.632 194.284 283.656 190.379 283.716Z" fill="url(#paint5_linear_83_2036)"/>
<path d="M190.379 310.374L65.0823 313.368C60.8494 313.469 57.4084 316.711 57.4084 320.609C57.4084 324.507 60.8494 327.569 65.0823 327.451L190.379 323.915C194.283 323.805 197.441 320.692 197.441 316.961C197.443 313.23 194.284 310.28 190.379 310.374Z" fill="#D8DEE8"/>
<path d="M37.33 328.235L37.1877 328.238C32.9211 328.358 29.454 325.409 29.454 321.651V321.027C29.454 317.268 32.9211 314.138 37.1877 314.035L37.33 314.032C41.5853 313.93 45.0281 316.88 45.0281 320.622V321.245C45.0281 324.983 41.5853 328.115 37.33 328.235Z" fill="#B19AF3"/>
<path d="M37.2588 329.567C32.1517 329.713 27.9862 326.038 27.9862 321.376C27.9862 316.713 32.1535 312.821 37.2588 312.701C42.3491 312.581 46.4808 316.256 46.4808 320.894C46.479 325.531 42.3491 329.421 37.2588 329.567ZM37.2588 315.364C33.7654 315.448 30.9198 318.111 30.9198 321.299C30.9198 324.487 33.7673 327.002 37.2588 326.904C40.7447 326.807 43.5734 324.146 43.5734 320.969C43.5734 317.793 40.7428 315.28 37.2588 315.364Z" fill="#D8DEE8"/>
<path d="M190.379 334.494L65.0823 338.454C60.8494 338.587 57.4084 341.857 57.4084 345.755C57.4084 349.653 60.8494 352.689 65.0823 352.537L190.379 348.035C194.283 347.895 197.441 344.758 197.441 341.027C197.443 337.296 194.284 334.37 190.379 334.494Z" fill="#D8DEE8"/>
<path d="M37.33 353.532L37.1877 353.538C32.9211 353.691 29.454 350.768 29.454 347.008V346.384C29.454 342.625 32.9211 339.469 37.1877 339.334L37.33 339.331C41.5853 339.196 45.0281 342.121 45.0281 345.862V346.484C45.0281 350.222 41.5853 353.38 37.33 353.532Z" fill="#B19AF3"/>
<path d="M37.2588 354.866C32.1517 355.052 27.9862 351.409 27.9862 346.746C27.9862 342.084 32.1535 338.159 37.2588 338C42.3491 337.841 46.4808 341.486 46.4808 346.122C46.479 350.758 42.3491 354.683 37.2588 354.866ZM37.2588 340.663C33.7654 340.776 30.9198 343.459 30.9198 346.647C30.9198 349.835 33.7673 352.327 37.2588 352.203C40.7447 352.08 43.5734 349.396 43.5734 346.22C43.5734 343.045 40.7428 340.553 37.2588 340.663Z" fill="#D8DEE8"/>
<path d="M190.379 358.612L65.0823 363.537C60.8494 363.704 57.4084 366.999 57.4084 370.897C57.4084 374.794 60.8494 377.804 65.0823 377.62L190.379 372.154C194.283 371.983 197.441 368.822 197.441 365.091C197.443 361.36 194.284 358.461 190.379 358.612Z" fill="#D8DEE8"/>
<path d="M37.2588 380.165C32.1517 380.39 27.9862 376.779 27.9862 372.117C27.9862 367.454 32.1535 363.498 37.2588 363.299C42.3491 363.101 46.4808 366.714 46.4808 371.35C46.479 375.988 42.3491 379.942 37.2588 380.165ZM37.2588 365.962C33.7654 366.101 30.9198 368.807 30.9198 371.995C30.9198 375.182 33.7673 377.652 37.2588 377.502C40.7447 377.353 43.5734 374.646 43.5734 371.47C43.5734 368.295 40.7428 365.824 37.2588 365.962Z" fill="#D8DEE8"/>
<path d="M190.379 382.733L65.0823 388.623C60.8494 388.821 57.4084 392.144 57.4084 396.042C57.4084 399.94 60.8494 402.923 65.0823 402.706L190.379 396.274C194.283 396.074 197.441 392.888 197.441 389.157C197.443 385.426 194.284 382.549 190.379 382.733Z" fill="#D8DEE8"/>
<path d="M37.33 404.13L37.1877 404.138C32.9211 404.357 29.454 401.488 29.454 397.729V397.105C29.454 393.345 32.9211 390.135 37.1877 389.935L37.33 389.927C41.5853 389.727 45.0281 392.598 45.0281 396.34V396.962C45.0281 400.703 41.5853 403.911 37.33 404.13Z" fill="#B19AF3"/>
<path d="M37.2588 405.465C32.1517 405.729 27.9862 402.151 27.9862 397.487C27.9862 392.822 32.1535 388.836 37.2588 388.598C42.3491 388.36 46.4808 391.942 46.4808 396.578C46.479 401.216 42.3491 405.202 37.2588 405.465ZM37.2588 391.261C33.7654 391.426 30.9198 394.155 30.9198 397.343C30.9198 400.53 33.7673 402.98 37.2588 402.802C40.7447 402.624 43.5734 399.897 43.5734 396.72C43.5734 393.546 40.7428 391.097 37.2588 391.261Z" fill="#D8DEE8"/>
<path d="M108.118 157.958C97.0223 157.64 86.4898 163.367 81.8133 171.333C76.1763 180.934 83.7022 185.729 80.0273 201.329C76.6425 215.697 68.7328 218.154 70.0414 227.587C71.4736 237.919 82.2757 244.472 86.5422 247.06C105.728 258.7 135.678 258.212 150.872 243.188C152.141 241.935 162.621 231.571 159.792 222.038C157.261 213.508 146.405 213.448 144.155 204.582C142.217 196.944 149.636 194.477 148.93 183.406C148.792 181.239 148.139 170.987 139.881 166.249C134.38 163.093 128.335 163.997 126.119 164.439C123.458 162.46 116.979 158.213 108.118 157.958Z" fill="#26264F"/>
<path d="M51.7939 238.125C51.7939 238.125 107.901 207.68 177.052 238.026C177.052 238.026 168.256 264.027 115.646 265.802C61.25 267.637 51.7939 238.125 51.7939 238.125Z" fill="url(#paint6_linear_83_2036)"/>
<path d="M105.718 198.488L103.618 213.022C102.901 217.983 99.2259 222.128 94.1132 223.734L77.0151 229.103C77.0151 229.103 109.725 243.752 150.964 229.111L132.173 223.007C126.836 221.135 123.198 216.429 122.966 211.085L122.427 198.679L105.718 198.488Z" fill="url(#paint7_linear_83_2036)"/>
<path d="M131.179 185.96C131.179 198.223 123.243 211.338 113.4 211.263C103.494 211.188 95.4198 197.804 95.4198 185.403C95.4198 173.003 103.494 166.393 113.4 166.607C123.243 166.819 131.179 173.696 131.179 185.96Z" fill="url(#paint8_linear_83_2036)"/>
<path d="M121.276 174.708C115.931 174.866 107.83 175.915 102.216 181.307C92.7876 190.362 97.2657 204.979 93.0703 205.804C89.3336 206.538 83.5431 196.102 83.6367 184.714C83.7154 175.175 87.2256 164.002 96.3596 161.377C101.721 159.836 103.301 162.569 120.581 164.529C130.644 165.67 126.697 169.791 128.961 171.403C139.005 178.55 137.733 201.406 132.329 201.64C129.764 201.752 126.22 195.735 121.276 174.708Z" fill="#26264F"/>
<path opacity="0.35" d="M131.121 355.785C127.725 317.545 153.163 301.657 143.473 267.063C131.479 224.238 85.1644 222.331 69.3263 180.12C63.5003 164.592 61.0516 141.465 76.1951 108.335L12.4758 105.835C10.5756 105.76 9.02734 107.1 9.02734 108.82V445.714C9.02734 447.435 10.5756 448.735 12.4758 448.614L185.791 437.454C145.053 407.117 133.121 378.306 131.121 355.785Z" fill="white"/>
<path d="M479.488 117.789L305.636 110.739C301.624 110.576 298.365 113.612 298.365 117.521V431.29C298.365 435.2 301.624 438.153 305.636 437.889L479.488 426.459C483.051 426.225 485.932 423.06 485.932 419.388V124.697C485.932 121.026 483.051 117.933 479.488 117.789Z" fill="url(#paint9_linear_83_2036)"/>
<path d="M477.631 128.662L305.636 110.739C301.624 110.576 298.365 113.612 298.365 117.521V431.29C298.365 435.2 301.624 438.153 305.636 437.889L479.488 426.459C483.051 426.225 485.932 423.06 485.932 419.388V124.697C485.932 121.026 481.194 128.806 477.631 128.662Z" fill="url(#paint10_linear_83_2036)"/>
<path d="M483.556 117.789L309.704 110.739C305.692 110.576 302.433 113.612 302.433 117.521V431.29C302.433 435.2 305.692 438.153 309.704 437.889L483.556 426.459C487.119 426.225 490 423.06 490 419.388V124.697C490 121.026 487.119 117.933 483.556 117.789Z" fill="#D8DEE8"/>
<g opacity="0.3">
<path d="M412.607 347.665C409.654 312.002 431.781 297.222 423.349 264.942C412.916 225.003 372.686 223.234 358.946 183.93C353.676 168.856 351.594 146.083 366.674 113.05L309.704 110.739C305.692 110.576 302.433 113.612 302.433 117.521V431.29C302.433 435.2 305.692 438.153 309.704 437.889L464.872 427.689C425.633 397.907 414.421 369.579 412.607 347.665Z" fill="#D8DEE8"/>
</g>
<path d="M483.556 121.713L309.704 114.897C308.06 114.834 306.72 116.084 306.72 117.684V431.017C306.72 432.617 308.058 433.833 309.704 433.728L483.556 422.535C485.018 422.441 486.207 421.137 486.207 419.63V124.552C486.207 123.044 485.018 121.771 483.556 121.713Z" fill="url(#paint11_linear_83_2036)"/>
<path opacity="0.35" d="M412.607 347.664C409.654 312.002 431.781 297.222 423.349 264.942C412.916 225.003 372.686 223.234 358.946 183.93C353.893 169.478 351.77 147.948 364.903 117.062L309.704 114.897C308.06 114.834 306.72 116.084 306.72 117.684V431.017C306.72 432.617 308.058 433.833 309.704 433.728L460.196 424.038C424.725 395.579 414.346 368.67 412.607 347.664Z" fill="white"/>
<path d="M399.156 259.668C366.586 259.931 339.562 233.356 339.562 200.422C339.562 167.488 366.586 141.535 399.156 142.548C431.03 143.54 456.463 170.098 456.463 201.769C456.465 233.44 431.03 259.412 399.156 259.668Z" fill="#D8DEE8"/>
<path d="M452.582 201.724C452.582 231.298 428.9 255.429 399.156 255.63C368.807 255.834 343.748 231.14 343.748 200.47C343.748 169.8 368.807 145.684 399.156 146.587C428.902 147.473 452.582 172.152 452.582 201.724Z" fill="white"/>
<path opacity="0.74" d="M464.197 280.519L331.157 282.565C327.427 282.623 324.398 285.635 324.398 289.293C324.398 292.951 327.427 295.856 331.157 295.783L464.197 293.161C467.6 293.093 470.354 290.215 470.354 286.731C470.354 283.249 467.6 280.466 464.197 280.519Z" fill="url(#paint12_linear_83_2036)"/>
<path d="M464.197 305.407L355.268 308.01C351.596 308.099 348.616 311.112 348.616 314.74C348.616 318.37 351.598 321.226 355.268 321.123L464.197 318.05C467.6 317.954 470.354 315.051 470.354 311.567C470.354 308.085 467.6 305.327 464.197 305.407Z" fill="#D8DEE8"/>
<path d="M331.218 321.803L331.095 321.807C327.399 321.912 324.398 319.161 324.398 315.662V315.081C324.398 311.584 327.401 308.676 331.095 308.588L331.218 308.584C334.905 308.496 337.885 311.247 337.885 314.729V315.308C337.885 318.792 334.905 321.7 331.218 321.803Z" fill="#B19AF3"/>
<path d="M331.157 323.044C326.735 323.171 323.127 319.744 323.127 315.405C323.127 311.067 326.735 307.452 331.157 307.349C335.565 307.246 339.145 310.673 339.145 314.989C339.145 319.305 335.565 322.918 331.157 323.044ZM331.157 309.826C328.131 309.899 325.668 312.373 325.668 315.34C325.668 318.306 328.133 320.651 331.157 320.566C334.174 320.482 336.627 318.01 336.627 315.055C336.627 312.1 334.174 309.753 331.157 309.826Z" fill="#D8DEE8"/>
<path d="M464.197 327.927L355.268 331.37C351.596 331.486 348.616 334.522 348.616 338.152C348.616 341.78 351.598 344.616 355.268 344.484L464.197 340.571C467.6 340.45 470.354 337.526 470.354 334.042C470.354 330.557 467.6 327.821 464.197 327.927Z" fill="#D8DEE8"/>
<path d="M331.218 345.346L331.095 345.35C327.399 345.483 324.398 342.755 324.398 339.258V338.677C324.398 335.18 327.401 332.249 331.095 332.133L331.218 332.129C334.905 332.013 337.885 334.741 337.885 338.223V338.802C337.885 342.284 334.905 345.213 331.218 345.346Z" fill="#B19AF3"/>
<path d="M331.157 346.589C326.735 346.75 323.127 343.351 323.127 339.012C323.127 334.674 326.735 331.031 331.157 330.894C335.565 330.757 339.145 334.157 339.145 338.473C339.145 342.788 335.565 346.428 331.157 346.589ZM331.157 333.37C328.131 333.467 325.668 335.959 325.668 338.924C325.668 341.891 328.133 344.216 331.157 344.108C334.174 344.001 336.627 341.508 336.627 338.553C336.627 335.598 334.174 333.274 331.157 333.37Z" fill="#D8DEE8"/>
<path d="M464.197 350.446L355.268 354.726C351.596 354.87 348.616 357.929 348.616 361.558C348.616 365.187 351.598 367.999 355.268 367.84L464.197 363.088C467.6 362.94 470.354 359.996 470.354 356.512C470.354 353.028 467.6 350.313 464.197 350.446Z" fill="#D8DEE8"/>
<path d="M331.218 368.89L331.095 368.895C327.399 369.056 324.398 366.352 324.398 362.855V362.274C324.398 358.777 327.401 355.824 331.095 355.678L331.218 355.672C334.905 355.528 337.885 358.232 337.885 361.716V362.295C337.885 365.777 334.905 368.728 331.218 368.89Z" fill="#B19AF3"/>
<path d="M331.157 370.132C326.735 370.327 323.127 366.956 323.127 362.617C323.127 358.279 326.735 354.608 331.157 354.437C335.565 354.265 339.145 357.638 339.145 361.954C339.145 366.27 335.565 369.937 331.157 370.132ZM331.157 356.915C328.131 357.035 325.668 359.546 325.668 362.512C325.668 365.479 328.133 367.786 331.157 367.655C334.174 367.523 336.627 365.014 336.627 362.059C336.627 359.102 334.174 356.795 331.157 356.915Z" fill="#D8DEE8"/>
<path d="M464.197 372.965L355.268 378.085C351.596 378.258 348.616 381.34 348.616 384.968C348.616 388.597 351.598 391.387 355.268 391.198L464.197 385.606C467.6 385.431 470.354 382.465 470.354 378.981C470.354 375.501 467.6 372.806 464.197 372.965Z" fill="#D8DEE8"/>
<path d="M331.218 392.433L331.095 392.438C327.399 392.628 324.398 389.946 324.398 386.449V385.868C324.398 382.371 327.401 379.393 331.095 379.221L331.218 379.215C334.905 379.043 337.885 381.725 337.885 385.206V385.786C337.885 389.267 334.905 392.243 331.218 392.433Z" fill="#B19AF3"/>
<path d="M331.157 393.675C326.735 393.904 323.127 390.561 323.127 386.222C323.127 381.884 326.735 378.186 331.157 377.98C335.565 377.774 339.145 381.119 339.145 385.435C339.145 389.751 335.565 393.448 331.157 393.675ZM331.157 380.458C328.131 380.602 325.668 383.132 325.668 386.097C325.668 389.063 328.133 391.35 331.157 391.196C334.174 391.042 336.627 388.512 336.627 385.557C336.627 382.604 334.174 380.315 331.157 380.458Z" fill="#D8DEE8"/>
<path d="M343.748 238.084C343.748 238.084 392.429 209.709 452.582 237.994C452.582 237.994 444.921 262.258 399.156 263.885C351.945 265.562 343.748 238.084 343.748 238.084Z" fill="url(#paint13_linear_83_2036)"/>
<path d="M390.533 201.01L388.709 214.557C388.179 223.183 379.631 226.401 379.631 226.401C389.668 238.316 408.847 237.878 415.553 226.617C410.92 224.878 405.725 217.728 405.523 212.743L405.055 201.179L390.533 201.01Z" fill="url(#paint14_linear_83_2036)"/>
<path d="M412.657 189.309C412.657 200.744 405.758 212.978 397.203 212.912C388.599 212.846 381.588 200.38 381.588 188.825C381.588 177.27 388.599 171.101 397.203 171.286C405.758 171.47 412.657 177.874 412.657 189.309Z" fill="url(#paint15_linear_83_2036)"/>
<path d="M381.125 191.734C381.986 191.61 382.846 191.488 383.705 191.365C383.31 190.413 381.679 186.2 383.705 182.57C385.648 179.086 390.222 177.458 393.713 177.756C397.678 178.095 400.058 179.965 402.048 178.589C403.166 177.817 403.529 176.38 403.656 175.259C403.744 175.979 403.944 177.047 404.459 178.232C405.938 181.635 408.441 182.382 409.804 184.639C410.721 186.157 411.319 188.683 409.804 193.089C410.56 193.055 411.315 193.021 412.069 192.987C412.867 190.512 413.822 187 414.415 182.694C415.297 176.299 415.905 171.897 413.4 169.694C412.901 169.255 410.693 167.508 405.408 168.987C404.169 167.671 401.559 165.258 397.542 163.976C396.153 163.532 389.258 161.334 383.141 165.595C378.982 168.494 375.72 174.007 376.769 178.648C377.323 181.101 378.839 182.227 380.174 186.976C380.738 188.983 380.996 190.666 381.125 191.734Z" fill="url(#paint16_linear_83_2036)"/>
<path d="M410.51 193.497C410.51 193.497 411.502 188.503 414.514 189.046C417.521 189.59 413.213 197.732 410.51 198.686V193.497Z" fill="url(#paint17_linear_83_2036)"/>
<path d="M383.525 193.117C383.525 193.117 382.514 188.046 379.437 188.497C376.353 188.951 380.768 197.32 383.525 198.351V193.117Z" fill="url(#paint18_linear_83_2036)"/>
<path opacity="0.5" d="M408.069 115.372L309.704 110.741C305.692 110.578 302.433 113.614 302.433 117.523V431.292C302.433 435.202 305.692 438.155 309.704 437.891L407.977 430.983L408.069 115.372Z" fill="#D8DEE8"/>
<path d="M389.533 389.322C393.182 397.21 389.705 405.099 386.367 410.41C385.572 410.416 385.109 410.637 384.304 410.832C377.046 412.599 373.642 411.699 366.264 412.234C364.677 412.348 359.959 411.163 358.063 410.547L354.549 409.334C354.549 409.334 348.311 390.148 358.113 384.849C367.914 379.549 364.162 360.455 363.34 350.043C361.111 321.788 391.613 324.356 391.647 287.82C391.656 278.101 388.427 259.567 396.611 251.826C405.936 243.007 412.743 251.657 418.74 244.285C428.112 232.76 443.317 228.626 452.382 240.486C461.329 252.193 450.457 275.496 423.435 294.225C405.569 309.86 405.291 314.541 406.696 325.939C407.681 333.922 415.29 354.722 404.463 363.028C393.635 371.331 385.362 380.304 389.533 389.322Z" fill="url(#paint19_linear_83_2036)"/>
<g opacity="0.5">
<path d="M370.106 412.532L369.567 412.464C369.967 409.252 370.409 406.016 370.885 402.848C374.395 379.395 379.965 357.119 387.44 336.638C393.775 319.283 401.563 302.973 410.589 288.157C417.847 276.242 425.942 265.227 434.647 255.416C440.767 248.52 447.123 242.285 453.541 236.884C454.658 235.944 455.854 235.044 457.011 234.173C458.552 233.013 460.145 231.815 461.566 230.509L461.933 230.91C460.492 232.235 458.889 233.442 457.337 234.609C456.186 235.475 454.997 236.371 453.889 237.302C447.492 242.684 441.155 248.9 435.053 255.778C426.369 265.564 418.294 276.553 411.053 288.44C402.046 303.224 394.273 319.504 387.951 336.823C380.487 357.271 374.927 379.511 371.422 402.927C370.948 406.092 370.505 409.323 370.106 412.532Z" fill="#FCFDFE"/>
<path d="M400.816 306.916L400.324 306.685C410.22 285.571 401.529 246.563 401.441 246.172L401.971 246.052C402.061 246.445 410.793 285.633 400.816 306.916Z" fill="#FCFDFE"/>
<path d="M378.306 368.41L377.791 368.237C382.84 353.101 411.148 341.417 411.433 341.3L411.637 341.805C411.354 341.919 383.274 353.51 378.306 368.41Z" fill="#FCFDFE"/>
<path d="M376.183 377.246L375.646 377.167C377.143 366.858 373.684 351.999 365.905 335.328C365.514 334.49 365.514 334.49 365.527 334.387L366.064 334.458L365.794 334.423L366.057 334.355C366.075 334.413 366.223 334.73 366.395 335.097C374.219 351.866 377.696 366.834 376.183 377.246Z" fill="#FCFDFE"/>
<path d="M370.919 406.679L370.426 406.45C375.252 396.044 391.751 391.936 391.916 391.897L392.043 392.425C391.882 392.463 375.636 396.511 370.919 406.679Z" fill="#FCFDFE"/>
<path d="M369.286 412.573C367.24 403.549 362.541 394.82 354.916 385.885L355.329 385.533C363.013 394.537 367.751 403.343 369.816 412.453L369.286 412.573Z" fill="#FCFDFE"/>
<path d="M430.019 261.64L429.542 261.381C435.697 249.95 439.518 236.511 440.773 232.094C441.076 231.026 441.185 230.649 441.244 230.526L441.733 230.764C441.688 230.859 441.514 231.47 441.295 232.244C440.035 236.674 436.203 250.156 430.019 261.64Z" fill="#FCFDFE"/>
<path d="M417.265 278.746L416.885 278.358C425.554 269.814 449.884 270.088 450.916 270.103L450.906 270.646C450.657 270.643 425.773 270.362 417.265 278.746Z" fill="#FCFDFE"/>
</g>
<path d="M346.478 457.654L378.111 467.579C378.111 467.579 389.151 453.203 384.989 439.307C376.497 410.955 401.895 405.489 412.191 401.606C427.718 395.75 437.163 384.854 424.734 371.963C410.671 357.378 433.344 337.414 459.78 331.574C485.651 325.86 490.432 276.529 433.303 283.75C399.186 288.062 393.944 321.192 387.324 337.294C380.704 353.395 355.681 347.048 357.767 369.909C359.547 389.436 369.264 406.315 355.122 414.919C340.98 423.524 335.732 436.498 346.478 457.654Z" fill="url(#paint20_linear_83_2036)"/>
<g opacity="0.5">
<path d="M359.25 464.888L359.944 464.974C359.997 464.543 365.454 421.446 383.731 380.357C400.569 342.502 432.054 298.652 486.417 304.729L486.495 304.034C462.294 301.328 440.541 308.121 421.834 324.221C406.891 337.082 393.856 355.878 383.087 380.087C364.769 421.27 359.302 464.457 359.25 464.888Z" fill="#BEB8F2"/>
<path d="M414.305 331.284L414.994 331.409C419.161 308.47 437.384 279.743 437.568 279.456L436.978 279.079C436.794 279.366 418.496 308.209 414.305 331.284Z" fill="#BEB8F2"/>
<path d="M427.063 320.898C453.934 313.93 472.829 327.249 473.018 327.384L473.426 326.816C473.235 326.679 454.087 313.168 426.887 320.222L427.063 320.898Z" fill="#BEB8F2"/>
<path d="M373.244 407.871C390.579 378.696 435.821 384.403 436.257 384.496L436.446 383.822C436.027 383.69 390.132 378.08 372.643 407.513L373.244 407.871Z" fill="#BEB8F2"/>
<path d="M377.218 394.453L377.915 394.522C380.047 372.967 362.477 352.164 362.299 351.956L361.768 352.411C361.945 352.616 379.32 373.198 377.218 394.453Z" fill="#BEB8F2"/>
<path d="M360.951 458.21C365.755 446.245 386.292 442.023 386.5 441.982L386.363 441.296C385.504 441.466 365.248 445.634 360.304 457.952L360.951 458.21Z" fill="#BEB8F2"/>
<path d="M362.106 447.988L362.799 448.082C364.166 437.979 353.03 422.75 349.37 417.747C348.854 417.04 348.406 416.429 348.348 416.306L347.71 416.594C347.788 416.771 348.084 417.177 348.805 418.163C352.426 423.108 363.436 438.164 362.106 447.988Z" fill="#BEB8F2"/>
</g>
<path d="M376.421 465.675C376.303 465.731 376.183 465.785 376.065 465.84C369.03 469.082 360.768 471.383 351.057 472.001C349.155 471.988 347.253 471.975 345.353 471.962C343.64 467.489 342.811 462.929 348.547 461.018C357.456 458.051 357.19 442.216 354.554 436.691C351.293 429.853 344.024 413.778 357.724 408.973C369.129 404.974 377.306 404.726 377.658 389.86C378.012 374.991 385.822 365.485 399.296 365.955C413.475 366.451 424.504 347.239 436.291 353.193C456.828 363.566 439.524 396.835 415.245 407.061C390.965 417.29 405.33 425.719 406.363 437.846C407.775 454.401 385.27 451.543 379.553 458.239C377.615 460.51 376.72 463.109 376.421 465.675Z" fill="url(#paint21_linear_83_2036)"/>
<g opacity="0.5">
<path d="M362.719 470.266L362.06 470.152C370.409 421.948 402.089 378.037 444.738 355.554L445.049 356.146C402.582 378.533 371.035 422.263 362.719 470.266Z" fill="#FCFDFE"/>
<path d="M369.52 444.375L368.852 444.393C368.331 425.174 351.49 410.639 351.319 410.493L351.752 409.983C351.924 410.131 368.992 424.853 369.52 444.375Z" fill="#FCFDFE"/>
<path d="M364.497 461.441L363.9 461.14C372.678 443.739 407.981 440.353 408.336 440.321L408.396 440.988C408.046 441.018 373.109 444.373 364.497 461.441Z" fill="#FCFDFE"/>
<path d="M392.128 402.099L391.508 401.85C397.27 387.502 387.432 365.932 387.333 365.715L387.94 365.434C388.039 365.653 397.995 387.485 392.128 402.099Z" fill="#FCFDFE"/>
<path d="M412.833 378.951L412.468 378.391C427.209 368.762 450.566 373.226 450.8 373.273L450.671 373.929C450.439 373.884 427.344 369.47 412.833 378.951Z" fill="#FCFDFE"/>
</g>
<path d="M360.358 76.6323L146.866 58.325C141.906 58.1245 137.878 62.1499 137.878 67.3184V482.215C137.878 487.383 141.906 491.308 146.866 490.981L362.565 476.801C367.002 476.509 370.591 472.324 370.591 467.45V76.2218C370.591 71.3475 364.795 76.8122 360.358 76.6323Z" fill="url(#paint22_linear_83_2036)"/>
<path d="M311.215 66.1751C311.215 63.291 313.441 60.9691 316.152 61.0235L318.003 60.926L326.873 64.4679V67.7062L311.215 66.1751Z" fill="url(#paint23_linear_83_2036)"/>
<path d="M368.322 67.0729L152.62 58.325C147.661 58.1245 143.632 62.1499 143.632 67.3184V482.215C143.632 487.383 147.661 491.308 152.62 490.981L368.32 476.801C372.757 476.509 376.346 472.324 376.346 467.45V76.2218C376.348 71.3475 372.759 67.2528 368.322 67.0729Z" fill="#D8DEE8"/>
<g opacity="0.3">
<path d="M280.1 371.984C276.435 324.712 303.915 305.16 293.441 262.352C280.486 209.408 230.579 207.078 213.554 155.048C207.028 135.101 204.448 104.961 223.128 61.1827L152.62 58.323C147.661 58.1225 143.632 62.1478 143.632 67.3163V482.213C143.632 487.381 147.661 491.305 152.62 490.979L345.065 478.328C296.277 438.635 282.352 401.036 280.1 371.984Z" fill="#D8DEE8"/>
</g>
<path d="M368.322 72.2824L152.62 63.8269C150.587 63.7482 148.932 65.4048 148.932 67.5206V481.877C148.932 483.995 150.587 485.61 152.62 485.479L368.32 471.591C370.142 471.473 371.62 469.751 371.62 467.749V76.0398C371.622 74.0403 370.142 72.3537 368.322 72.2824Z" fill="url(#paint24_linear_83_2036)"/>
<path d="M263.407 255.345C223.021 255.671 189.555 220.485 189.555 176.901C189.555 133.319 223.023 98.9028 263.407 100.16C302.983 101.391 334.603 136.557 334.603 178.573C334.603 220.588 302.983 255.027 263.407 255.345Z" fill="#D8DEE8"/>
<path d="M329.775 178.518C329.775 217.747 300.338 249.748 263.407 249.995C225.773 250.248 194.736 217.552 194.736 176.963C194.736 136.374 225.773 104.392 263.407 105.512C300.338 106.611 329.775 139.29 329.775 178.518Z" fill="white"/>
<path opacity="0.74" d="M344.222 283.056L179.15 285.595C174.537 285.667 170.789 289.647 170.789 294.486C170.789 299.324 174.537 303.174 179.15 303.084L344.222 299.83C348.457 299.746 351.883 295.932 351.883 291.309C351.885 286.684 348.457 282.991 344.222 283.056Z" fill="url(#paint25_linear_83_2036)"/>
<path d="M344.222 316.08L208.997 319.311C204.452 319.419 200.76 323.402 200.76 328.205C200.76 333.008 204.452 336.797 208.997 336.67L344.222 332.854C348.457 332.734 351.883 328.891 351.883 324.267C351.885 319.644 348.457 315.979 344.222 316.08Z" fill="#D8DEE8"/>
<path d="M179.227 337.511L179.074 337.515C174.502 337.644 170.789 333.997 170.789 329.37V328.602C170.789 323.975 174.504 320.135 179.074 320.027L179.227 320.023C183.788 319.914 187.477 323.561 187.477 328.169V328.934C187.477 333.542 183.788 337.382 179.227 337.511Z" fill="#B19AF3"/>
<path d="M179.15 339.153C173.68 339.31 169.217 334.768 169.217 329.027C169.217 323.287 173.678 318.514 179.15 318.385C184.606 318.258 189.035 322.8 189.035 328.51C189.035 334.22 184.607 338.995 179.15 339.153ZM179.15 321.664C175.408 321.756 172.36 325.023 172.36 328.947C172.36 332.871 175.41 335.978 179.15 335.875C182.885 335.772 185.918 332.506 185.918 328.595C185.92 324.682 182.885 321.573 179.15 321.664Z" fill="#D8DEE8"/>
<path d="M344.222 345.959L208.997 350.232C204.452 350.376 200.76 354.387 200.76 359.19C200.76 363.993 204.452 367.754 208.997 367.591L344.222 362.733C348.457 362.582 351.883 358.71 351.883 354.087C351.885 349.465 348.457 345.826 344.222 345.959Z" fill="#D8DEE8"/>
<path d="M179.227 368.661L179.074 368.667C174.502 368.831 170.789 365.213 170.789 360.586V359.817C170.789 355.191 174.504 351.323 179.074 351.178L179.227 351.173C183.788 351.028 187.477 354.647 187.477 359.255V360.02C187.477 364.63 183.788 368.498 179.227 368.661Z" fill="#B19AF3"/>
<path d="M179.15 370.302C173.68 370.501 169.217 365.994 169.217 360.254C169.217 354.514 173.678 349.705 179.15 349.535C184.606 349.364 189.035 353.873 189.035 359.585C189.035 365.297 184.607 370.106 179.15 370.302ZM179.15 352.814C175.408 352.934 172.36 356.225 172.36 360.147C172.36 364.07 175.41 367.156 179.15 367.023C182.885 366.89 185.918 363.601 185.918 359.69C185.92 355.781 182.885 352.696 179.15 352.814Z" fill="#D8DEE8"/>
<path d="M344.222 375.838L208.997 381.153C204.452 381.331 200.76 385.371 200.76 390.174C200.76 394.978 204.452 398.711 208.997 398.512L344.222 392.613C348.457 392.427 351.883 388.531 351.883 383.908C351.885 379.285 348.457 375.672 344.222 375.838Z" fill="#D8DEE8"/>
<path d="M179.15 401.454C173.68 401.696 169.217 397.223 169.217 391.483C169.217 385.742 173.678 380.9 179.15 380.686C184.606 380.475 189.035 384.948 189.035 390.66C189.035 396.372 184.607 401.214 179.15 401.454ZM179.15 383.966C175.408 384.114 172.36 387.429 172.36 391.351C172.36 395.276 175.41 398.336 179.15 398.175C182.885 398.014 185.918 394.7 185.918 390.789C185.92 386.88 182.885 383.818 179.15 383.966Z" fill="#D8DEE8"/>
<path d="M344.222 405.718L208.997 412.074C204.452 412.288 200.76 416.356 200.76 421.159C200.76 425.963 204.452 429.667 208.997 429.433L344.222 422.492C348.457 422.274 351.883 418.35 351.883 413.727C351.885 409.106 348.457 405.519 344.222 405.718Z" fill="#D8DEE8"/>
<path d="M179.227 430.962L179.074 430.97C174.502 431.204 170.789 427.643 170.789 423.017V422.248C170.789 417.621 174.504 413.695 179.074 413.482L179.227 413.474C183.788 413.26 187.477 416.821 187.477 421.429V422.194C187.477 426.802 183.788 430.728 179.227 430.962Z" fill="#B19AF3"/>
<path d="M179.15 432.606C173.68 432.889 169.217 428.449 169.217 422.711C169.217 416.971 173.678 412.095 179.15 411.84C184.606 411.585 189.035 416.026 189.035 421.738C189.035 427.447 184.607 432.323 179.15 432.606ZM179.15 415.118C175.408 415.296 172.36 418.631 172.36 422.556C172.36 426.48 175.41 429.517 179.15 429.326C182.885 429.135 185.918 425.799 185.918 421.888C185.92 417.977 182.885 414.94 179.15 415.118Z" fill="#D8DEE8"/>
<path d="M275.381 125.456C288.414 133.437 292.067 147.361 292.9 150.738C298.653 174.109 280.924 185.975 288.478 202.496C294.669 216.038 312.177 220.312 311.456 221.797C310.812 223.123 298.316 216.651 286.248 213.718C246.9 204.153 212.704 232.366 207.857 225.31C204.426 220.314 224.47 210.386 228.608 187.172C232.524 165.196 218.225 153.515 226.908 137.118C232.697 126.185 243.879 122.26 245.786 121.625C260.597 116.687 273.378 124.228 275.381 125.456Z" fill="url(#paint26_linear_83_2036)"/>
<path d="M194.736 226.558C194.736 226.558 255.059 188.973 329.775 226.452C329.775 226.452 320.25 258.632 263.407 260.752C204.882 262.935 194.736 226.558 194.736 226.558Z" fill="url(#paint27_linear_83_2036)"/>
<path d="M252.706 177.63L250.444 195.577C249.673 201.702 245.715 206.823 240.211 208.808L221.821 215.44C221.821 215.44 257.027 233.519 301.542 215.425L281.24 207.888C275.48 205.579 271.554 199.768 271.303 193.162L270.721 177.836L252.706 177.63Z" fill="url(#paint28_linear_83_2036)"/>
<path d="M255.081 189.779C245.831 187.135 240.876 179.067 237.937 174.285C233.011 166.268 226.213 149.675 232.612 140.245C232.972 139.717 233.387 139.456 234.127 138.525C238.476 133.059 237.974 128.58 239.665 125.712C243.744 118.79 260.342 121.696 261.351 121.882C279.088 125.154 286.778 141.415 286.93 141.778C287.068 142.108 287.207 142.447 287.207 142.447C288.281 145.084 294.441 160.198 286.713 174.356C280.516 185.705 267.16 193.233 255.081 189.779Z" fill="url(#paint29_linear_83_2036)"/>
<path d="M280.164 162.1C280.164 177.255 271.599 193.473 260.984 193.394C250.311 193.314 241.617 176.805 241.617 161.502C241.617 146.197 250.311 138.013 260.984 138.244C271.601 138.471 280.164 146.943 280.164 162.1Z" fill="url(#paint30_linear_83_2036)"/>
<path d="M240.973 171.361C242.813 171.279 240.157 155.352 247.284 151.027C252.017 148.154 260.23 150.914 264.848 156.161C272.131 164.431 268.055 176.159 273.572 178.726C277.075 180.357 281.75 177.032 283.991 174.585C290.989 166.944 290.034 150.596 281.763 141.267C275.171 133.832 266.226 133.433 264.097 133.409C251.925 133.265 240.75 142.755 238.187 154.092C236.222 162.807 239.612 171.423 240.973 171.361Z" fill="url(#paint31_linear_83_2036)"/>
<path opacity="0.35" d="M280.1 371.984C276.435 324.712 303.916 305.16 293.441 262.352C280.486 209.408 230.579 207.078 213.554 155.048C207.298 135.924 204.667 107.43 220.936 66.503L152.622 63.8251C150.589 63.7464 148.934 65.403 148.934 67.5188V481.875C148.934 483.993 150.589 485.609 152.622 485.477L339.248 473.461C295.148 435.544 282.259 399.833 280.1 371.984Z" fill="white"/>
<path d="M358.941 125.04L339.196 109.371L319.248 124.084V74.6438C319.248 70.7889 317.515 67.0821 314.545 64.5972L314.392 64.4679L352.038 65.9484C355.854 66.0983 358.943 69.419 358.943 73.3676V125.04H358.941Z" fill="#D8DEE8"/>
<path d="M362.554 125.04L342.809 108.455L322.861 124.028V71.696C322.861 67.6162 321.128 63.6921 318.159 61.0628L318.005 60.926L355.651 62.4927C359.467 62.652 362.556 66.1676 362.556 70.3448V125.04H362.554Z" fill="url(#paint32_linear_83_2036)"/>
<defs>
<linearGradient id="paint0_linear_83_2036" x1="58.9087" y1="64.982" x2="117.873" y2="250.988" gradientUnits="userSpaceOnUse">
<stop stop-color="#FF9085"/>
<stop offset="1" stop-color="#FB6FBB"/>
</linearGradient>
<linearGradient id="paint1_linear_83_2036" x1="87.6046" y1="7.6835" x2="163.045" y2="286.095" gradientUnits="userSpaceOnUse">
<stop stop-color="#FFC444"/>
<stop offset="0.9964" stop-color="#F36F56"/>
</linearGradient>
<linearGradient id="paint2_linear_83_2036" x1="0" y1="277.232" x2="215.895" y2="277.232" gradientUnits="userSpaceOnUse">
<stop stop-color="#444B8C"/>
<stop offset="0.9964" stop-color="#26264F"/>
</linearGradient>
<linearGradient id="paint3_linear_83_2036" x1="0" y1="277.232" x2="215.895" y2="277.232" gradientUnits="userSpaceOnUse">
<stop stop-color="#444B8C"/>
<stop offset="0.9964" stop-color="#26264F"/>
</linearGradient>
<linearGradient id="paint4_linear_83_2036" x1="204.428" y1="119.862" x2="65.1053" y2="347.614" gradientUnits="userSpaceOnUse">
<stop stop-color="white"/>
<stop offset="0.9964" stop-color="#EBEFF2"/>
</linearGradient>
<linearGradient id="paint5_linear_83_2036" x1="29.453" y1="291.995" x2="197.442" y2="291.995" gradientUnits="userSpaceOnUse">
<stop stop-color="#AA80F9"/>
<stop offset="0.9964" stop-color="#6165D7"/>
</linearGradient>
<linearGradient id="paint6_linear_83_2036" x1="51.7948" y1="245.224" x2="177.052" y2="245.224" gradientUnits="userSpaceOnUse">
<stop stop-color="#FF9085"/>
<stop offset="1" stop-color="#FB6FBB"/>
</linearGradient>
<linearGradient id="paint7_linear_83_2036" x1="114.887" y1="242.833" x2="110.456" y2="175.071" gradientUnits="userSpaceOnUse">
<stop stop-color="#893976"/>
<stop offset="1" stop-color="#311944"/>
</linearGradient>
<linearGradient id="paint8_linear_83_2036" x1="122.697" y1="181.384" x2="49.5107" y2="233.412" gradientUnits="userSpaceOnUse">
<stop stop-color="#893976"/>
<stop offset="1" stop-color="#311944"/>
</linearGradient>
<linearGradient id="paint9_linear_83_2036" x1="298.364" y1="274.319" x2="485.932" y2="274.319" gradientUnits="userSpaceOnUse">
<stop stop-color="#444B8C"/>
<stop offset="0.9964" stop-color="#26264F"/>
</linearGradient>
<linearGradient id="paint10_linear_83_2036" x1="298.364" y1="274.319" x2="485.932" y2="274.319" gradientUnits="userSpaceOnUse">
<stop stop-color="#444B8C"/>
<stop offset="0.9964" stop-color="#26264F"/>
</linearGradient>
<linearGradient id="paint11_linear_83_2036" x1="378.491" y1="279.524" x2="465.931" y2="226.995" gradientUnits="userSpaceOnUse">
<stop stop-color="white"/>
<stop offset="0.9964" stop-color="#EBEFF2"/>
</linearGradient>
<linearGradient id="paint12_linear_83_2036" x1="324.398" y1="288.151" x2="470.353" y2="288.151" gradientUnits="userSpaceOnUse">
<stop stop-color="#AA80F9"/>
<stop offset="0.9964" stop-color="#6165D7"/>
</linearGradient>
<linearGradient id="paint13_linear_83_2036" x1="343.749" y1="244.702" x2="452.583" y2="244.702" gradientUnits="userSpaceOnUse">
<stop stop-color="#AB316D"/>
<stop offset="1" stop-color="#792D3D"/>
</linearGradient>
<linearGradient id="paint14_linear_83_2036" x1="397.483" y1="205.568" x2="397.687" y2="245.175" gradientUnits="userSpaceOnUse">
<stop offset="0.003597" stop-color="#F36F56"/>
<stop offset="1" stop-color="#FFC444"/>
</linearGradient>
<linearGradient id="paint15_linear_83_2036" x1="403.272" y1="151.2" x2="393.309" y2="212.663" gradientUnits="userSpaceOnUse">
<stop offset="0.003597" stop-color="#F36F56"/>
<stop offset="1" stop-color="#FFC444"/>
</linearGradient>
<linearGradient id="paint16_linear_83_2036" x1="398.021" y1="163.817" x2="393.179" y2="193.688" gradientUnits="userSpaceOnUse">
<stop stop-color="#444B8C"/>
<stop offset="0.9964" stop-color="#26264F"/>
</linearGradient>
<linearGradient id="paint17_linear_83_2036" x1="419.142" y1="154.362" x2="409.272" y2="215.254" gradientUnits="userSpaceOnUse">
<stop offset="0.003597" stop-color="#F36F56"/>
<stop offset="1" stop-color="#FFC444"/>
</linearGradient>
<linearGradient id="paint18_linear_83_2036" x1="388.399" y1="148.042" x2="378.323" y2="210.209" gradientUnits="userSpaceOnUse">
<stop offset="0.003597" stop-color="#F36F56"/>
<stop offset="1" stop-color="#FFC444"/>
</linearGradient>
<linearGradient id="paint19_linear_83_2036" x1="437.569" y1="229.529" x2="341.245" y2="439.903" gradientUnits="userSpaceOnUse">
<stop stop-color="#AA80F9"/>
<stop offset="0.9964" stop-color="#6165D7"/>
</linearGradient>
<linearGradient id="paint20_linear_83_2036" x1="460.167" y1="290.925" x2="340.938" y2="450.208" gradientUnits="userSpaceOnUse">
<stop offset="0.00359712" stop-color="#E38DDD"/>
<stop offset="1" stop-color="#9571F6"/>
</linearGradient>
<linearGradient id="paint21_linear_83_2036" x1="418.308" y1="360.162" x2="351.002" y2="476.738" gradientUnits="userSpaceOnUse">
<stop stop-color="#FFC444"/>
<stop offset="0.9964" stop-color="#F36F56"/>
</linearGradient>
<linearGradient id="paint22_linear_83_2036" x1="137.877" y1="274.659" x2="370.591" y2="274.659" gradientUnits="userSpaceOnUse">
<stop stop-color="#444B8C"/>
<stop offset="0.9964" stop-color="#26264F"/>
</linearGradient>
<linearGradient id="paint23_linear_83_2036" x1="311.215" y1="64.3165" x2="326.873" y2="64.3165" gradientUnits="userSpaceOnUse">
<stop stop-color="#AB316D"/>
<stop offset="1" stop-color="#792D3D"/>
</linearGradient>
<linearGradient id="paint24_linear_83_2036" x1="370.539" y1="87.0505" x2="204.557" y2="358.382" gradientUnits="userSpaceOnUse">
<stop stop-color="white"/>
<stop offset="0.9964" stop-color="#EBEFF2"/>
</linearGradient>
<linearGradient id="paint25_linear_83_2036" x1="170.79" y1="293.069" x2="351.884" y2="293.069" gradientUnits="userSpaceOnUse">
<stop stop-color="#AA80F9"/>
<stop offset="0.9964" stop-color="#6165D7"/>
</linearGradient>
<linearGradient id="paint26_linear_83_2036" x1="338.001" y1="96.4967" x2="195.789" y2="266.589" gradientUnits="userSpaceOnUse">
<stop stop-color="#AB316D"/>
<stop offset="1" stop-color="#792D3D"/>
</linearGradient>
<linearGradient id="paint27_linear_83_2036" x1="272.118" y1="180.985" x2="257.824" y2="246.829" gradientUnits="userSpaceOnUse">
<stop stop-color="#AA80F9"/>
<stop offset="0.9964" stop-color="#6165D7"/>
</linearGradient>
<linearGradient id="paint28_linear_83_2036" x1="261.518" y1="183.743" x2="261.792" y2="236.832" gradientUnits="userSpaceOnUse">
<stop offset="0.003597" stop-color="#F36F56"/>
<stop offset="1" stop-color="#FFC444"/>
</linearGradient>
<linearGradient id="paint29_linear_83_2036" x1="316.359" y1="86.7163" x2="192.049" y2="235.397" gradientUnits="userSpaceOnUse">
<stop stop-color="#AB316D"/>
<stop offset="1" stop-color="#792D3D"/>
</linearGradient>
<linearGradient id="paint30_linear_83_2036" x1="269.089" y1="106.672" x2="256.787" y2="189.491" gradientUnits="userSpaceOnUse">
<stop offset="0.003597" stop-color="#F36F56"/>
<stop offset="1" stop-color="#FFC444"/>
</linearGradient>
<linearGradient id="paint31_linear_83_2036" x1="320.912" y1="90.5238" x2="196.603" y2="239.204" gradientUnits="userSpaceOnUse">
<stop stop-color="#AB316D"/>
<stop offset="1" stop-color="#792D3D"/>
</linearGradient>
<linearGradient id="paint32_linear_83_2036" x1="367.137" y1="45.3309" x2="307.172" y2="151.504" gradientUnits="userSpaceOnUse">
<stop stop-color="#FF9085"/>
<stop offset="1" stop-color="#FB6FBB"/>
</linearGradient>
</defs>
</svg>
