<svg width="738" height="352" viewBox="0 0 738 352" fill="none" xmlns="http://www.w3.org/2000/svg">
<path d="M687.778 139.823H380.559V347.614H687.778V139.823Z" fill="#FFC253"/>
<path d="M380.559 139.823L524.752 271.393C530.086 276.264 538.25 276.264 543.567 271.393L687.76 139.823H380.559Z" fill="#E09736"/>
<path d="M687.778 347.614L534.168 187.299L687.778 333.962V347.614Z" fill="#E09736"/>
<path d="M380.559 347.614L534.168 187.299L380.559 333.962V347.614Z" fill="#E09736"/>
<path d="M380.559 139.823C585.606 301.905 483.074 301.339 687.778 139.823H380.559Z" fill="#FFC854"/>
<path d="M663.217 347.614C649.873 341.508 651.588 322.316 668.191 316.433C674.348 312.642 674.828 306.228 675.068 298.406C677.332 272.182 701.91 292.678 712.802 276.83C727.638 258.975 747.499 277.79 732.886 292.489C725.014 299.676 722.973 301.477 720.691 309.383C717.261 331.698 725.785 338.867 701.619 342.743C696.165 344.904 695.976 347.614 695.976 347.614H663.217Z" fill="#40C7A7"/>
<path d="M725.425 279.986C709.475 289.299 681.706 317.582 676.99 347.632" stroke="#3B55CE" stroke-width="1.05" stroke-miterlimit="10" stroke-linecap="round"/>
<path d="M482.971 40.5156C482.885 34.3067 492.627 34.3067 492.541 40.5156C492.627 46.7245 482.885 46.7245 482.971 40.5156Z" fill="#3B55CE"/>
<path d="M435.992 195.84C435.495 205.273 451.858 202.186 457.689 205.136C461.48 206.611 469.97 209.424 469.918 204.622L435.992 195.84Z" fill="#AAEEED"/>
<path d="M470.656 193.113C470.553 195.686 471.153 201.963 469.918 204.639C466.882 206.165 461.463 205.016 457.672 203.009C452.561 200.865 437.776 202.786 436.01 195.857C434.963 192.564 461.051 193.73 462.269 190.386L470.656 193.113Z" fill="#1E4174"/>
<mask id="mask0_288_108" style="mask-type:luminance" maskUnits="userSpaceOnUse" x="435" y="190" width="36" height="16">
<path d="M470.656 193.113C470.553 195.686 471.153 201.963 469.918 204.639C466.882 206.165 461.463 205.016 457.672 203.009C452.561 200.865 437.776 202.786 436.01 195.857C434.963 192.564 461.051 193.73 462.269 190.386L470.656 193.113Z" fill="white"/>
</mask>
<g mask="url(#mask0_288_108)">
<path d="M458.941 195.308C458.941 195.308 458.564 191.672 457.226 190.214" stroke="#AAEEED" stroke-width="0.5508" stroke-miterlimit="10" stroke-linecap="round"/>
</g>
<mask id="mask1_288_108" style="mask-type:luminance" maskUnits="userSpaceOnUse" x="435" y="190" width="36" height="16">
<path d="M470.656 193.113C470.553 195.686 471.153 201.963 469.918 204.639C466.882 206.165 461.463 205.016 457.672 203.009C452.561 200.865 437.776 202.786 436.01 195.857C434.963 192.564 461.051 193.73 462.269 190.386L470.656 193.113Z" fill="white"/>
</mask>
<g mask="url(#mask1_288_108)">
<path d="M454.002 196.012C454.002 196.012 453.624 192.376 452.286 190.918" stroke="#AAEEED" stroke-width="0.5508" stroke-miterlimit="10" stroke-linecap="round"/>
</g>
<mask id="mask2_288_108" style="mask-type:luminance" maskUnits="userSpaceOnUse" x="435" y="190" width="36" height="16">
<path d="M470.656 193.113C470.553 195.686 471.153 201.963 469.918 204.639C466.882 206.165 461.463 205.016 457.672 203.009C452.561 200.865 437.776 202.786 436.01 195.857C434.963 192.564 461.051 193.73 462.269 190.386L470.656 193.113Z" fill="white"/>
</mask>
<g mask="url(#mask2_288_108)">
<path d="M449.045 196.715C449.045 196.715 448.667 193.079 447.33 191.621" stroke="#AAEEED" stroke-width="0.5508" stroke-miterlimit="10" stroke-linecap="round"/>
</g>
<path d="M473.331 184.126L470.656 193.113C469.301 192.65 467.534 195.532 466.316 195.634C459.078 192.599 464.087 185.584 464.515 180.97L473.331 184.126Z" fill="#FF9A8D"/>
<path d="M519.555 104.525L518.337 113.993L485.286 113.324C485.286 113.324 477.499 113.169 475.201 121.076C472.886 128.983 464.258 182.067 464.258 182.067C464.258 182.067 468.906 185.498 473.623 184.743C475.544 181.416 497.618 136.496 492.558 127.319L532.401 123.855L519.555 104.525Z" fill="#1E4174"/>
<path d="M471.445 217.228C477.465 224.363 487.396 210.607 493.45 208.704C497.189 207.108 505.233 203.181 501.837 199.785L471.445 217.228Z" fill="#AAEEED"/>
<path d="M494.308 191.037C496.04 192.958 500.86 197.006 501.837 199.785C500.74 202.992 496.057 205.959 491.941 207.194C486.778 209.235 477.568 220.95 471.445 217.228C468.392 215.564 487.704 198.464 486.384 194.948L494.308 191.037Z" fill="#1E4174"/>
<mask id="mask3_288_108" style="mask-type:luminance" maskUnits="userSpaceOnUse" x="471" y="191" width="31" height="27">
<path d="M494.308 191.037C496.04 192.958 500.86 197.006 501.837 199.785C500.74 202.992 496.057 205.959 491.941 207.194C486.778 209.235 477.568 220.95 471.445 217.228C468.392 215.564 487.704 198.464 486.384 194.948L494.308 191.037Z" fill="white"/>
</mask>
<g mask="url(#mask3_288_108)">
<path d="M487.482 200.797C487.482 200.797 484.669 198.464 482.696 198.361" stroke="#AAEEED" stroke-width="0.5508" stroke-miterlimit="10" stroke-linecap="round"/>
</g>
<mask id="mask4_288_108" style="mask-type:luminance" maskUnits="userSpaceOnUse" x="471" y="191" width="31" height="27">
<path d="M494.308 191.037C496.04 192.958 500.86 197.006 501.837 199.785C500.74 202.992 496.057 205.959 491.941 207.194C486.778 209.235 477.568 220.95 471.445 217.228C468.392 215.564 487.704 198.464 486.384 194.948L494.308 191.037Z" fill="white"/>
</mask>
<g mask="url(#mask4_288_108)">
<path d="M484.428 204.759C484.428 204.759 481.615 202.426 479.643 202.323" stroke="#AAEEED" stroke-width="0.5508" stroke-miterlimit="10" stroke-linecap="round"/>
</g>
<mask id="mask5_288_108" style="mask-type:luminance" maskUnits="userSpaceOnUse" x="471" y="191" width="31" height="27">
<path d="M494.308 191.037C496.04 192.958 500.86 197.006 501.837 199.785C500.74 202.992 496.057 205.959 491.941 207.194C486.778 209.235 477.568 220.95 471.445 217.228C468.392 215.564 487.704 198.464 486.384 194.948L494.308 191.037Z" fill="white"/>
</mask>
<g mask="url(#mask5_288_108)">
<path d="M481.393 208.721C481.393 208.721 478.58 206.388 476.607 206.285" stroke="#AAEEED" stroke-width="0.5508" stroke-miterlimit="10" stroke-linecap="round"/>
</g>
<path d="M492.867 183.148L494.325 191.038C493.038 191.655 493.776 194.948 492.987 195.874C490.26 197.658 486.401 194.948 486.401 194.948L483.21 185.189L492.867 183.148Z" fill="#FF9A8D"/>
<path d="M544.425 100.563C581.472 154.916 508.715 139.72 482.13 132.105C491.307 135.552 491.598 180.129 492.867 183.131C490.552 185.463 487.327 186.424 483.211 186.098C462.217 108.744 434.758 110.837 521.939 112.706L519.572 104.508L544.425 100.563Z" fill="#85B8ED"/>
<path d="M553.944 128.966C557.426 114.816 548.147 110.357 544.425 100.58L519.555 104.525L521.081 109.756C521.081 109.756 534.871 111.643 540.891 104.525C570.221 147.164 495.508 128.143 480.912 127.56C475.63 126.977 477.379 130.029 480.329 136.238C483.348 141.864 488.785 177.419 490.74 184.76C491.512 184.314 492.232 183.782 492.867 183.148C491.581 180.009 491.323 135.69 482.13 132.122C497.018 134.403 543.533 151.863 553.944 128.966Z" fill="#4E7EAC"/>
<mask id="mask6_288_108" style="mask-type:luminance" maskUnits="userSpaceOnUse" x="461" y="100" width="94" height="87">
<path d="M544.425 100.563C581.472 154.916 508.715 139.72 482.13 132.105C491.306 135.552 491.598 180.129 492.867 183.131C490.552 185.463 487.327 186.424 483.211 186.098C461.805 108.093 435.324 111.008 521.939 112.706L519.572 104.508L544.425 100.563Z" fill="white"/>
</mask>
<g mask="url(#mask6_288_108)">
<path d="M535.094 100.597C539.759 116.737 545.368 129.978 517.428 127.182C501.529 125.759 477.07 122.191 474.926 122.792C472.783 123.392 473.503 126.633 476.35 136.273C479.197 145.912 488.922 188.791 488.922 188.791" stroke="#274D79" stroke-width="0.5508" stroke-miterlimit="10"/>
</g>
<mask id="mask7_288_108" style="mask-type:luminance" maskUnits="userSpaceOnUse" x="461" y="100" width="94" height="87">
<path d="M544.425 100.563C581.472 154.916 508.715 139.72 482.13 132.105C491.306 135.552 491.598 180.129 492.867 183.131C490.552 185.463 487.327 186.424 483.211 186.098C461.805 108.093 435.324 111.008 521.939 112.706L519.572 104.508L544.425 100.563Z" fill="white"/>
</mask>
<g mask="url(#mask7_288_108)">
<path d="M538.902 120.099C530.223 122.689 529.023 107.767 528.92 104.559" stroke="#274D79" stroke-width="0.5508" stroke-miterlimit="10"/>
</g>
<mask id="mask8_288_108" style="mask-type:luminance" maskUnits="userSpaceOnUse" x="461" y="100" width="94" height="87">
<path d="M544.425 100.563C581.472 154.916 508.715 139.72 482.13 132.105C491.306 135.552 491.598 180.129 492.867 183.131C490.552 185.463 487.327 186.424 483.211 186.098C461.805 108.093 435.324 111.008 521.939 112.706L519.572 104.508L544.425 100.563Z" fill="white"/>
</mask>
<g mask="url(#mask8_288_108)">
<path d="M480.981 182.599C480.981 182.599 488.048 184.177 493.468 178.808" stroke="#274D79" stroke-width="0.5508" stroke-miterlimit="10"/>
</g>
<path d="M533.842 10.2602C517.102 -2.36335 489.591 19.7965 512.814 38.2344C512.814 38.2344 510.036 39.7437 513.123 42.6938C497.721 46.9988 514.307 54.8714 504.925 62.1951C490.569 76.0879 512.677 100.94 532.384 98.5393C567.837 100.803 578.333 49.0056 552.606 46.5186C558.712 36.4849 556.74 -2.12322 533.842 10.2602Z" fill="#001C45"/>
<path d="M530.943 52.4187C529.108 52.9675 526.038 53.4306 524.426 54.6998C522.796 55.9691 506.76 80.9417 506.76 80.9417C506.76 80.9417 491.992 57.8214 489.797 55.0772C487.499 52.1957 476.23 48.5767 474.189 48.9884C470.93 49.3829 474.052 58.7991 476.384 60.5828C478.477 62.0235 485.886 63.1384 485.886 63.1384C485.886 63.1384 499.179 91.1126 501.923 95.2976C503.707 98.0075 505.662 98.0418 508.955 94.4229C525.918 74.184 524.992 75.316 530.943 52.4187Z" fill="#FF9A8D"/>
<path d="M530.943 52.4187C521.75 53.242 522.093 60.4113 521.064 65.8141C526.964 65.2481 532.676 59.8625 532.367 53.1734L530.943 52.4187Z" fill="#03AA99"/>
<path d="M541.183 47.6164C543.241 49.0228 549.913 48.9371 551.731 51.9043C554.321 55.489 551.663 67.2206 550.153 75.4705C549.227 80.4959 540.325 91.7645 546.414 103.273C546.414 103.273 532.71 111.369 518.886 104.525C517.445 97.6818 519.143 92.9137 519.195 85.1955C508.201 71.9716 521.339 66.5517 531.184 53.911C533.156 51.2525 538.542 47.9423 541.183 47.6164Z" fill="#3ED9C7"/>
<path d="M545.42 51.6812C549.553 49.0742 552.915 52.2815 554.87 56.9982C569.243 93.6682 570.821 97.8875 563.909 136.238C562.108 142.876 540.36 138.725 538.456 139.823C540.24 135.312 554.424 137.113 557.014 133.065C558.832 130.167 558.06 96.6183 558.06 96.6183C557.717 92.3476 535.197 59.1593 545.42 51.6812Z" fill="#FF9A8D"/>
<path d="M547.358 50.1032C544.905 50.1032 539.296 55.6775 544.03 65.9856C544.03 65.9856 550.17 57.2726 555.813 59.3822C555.813 59.3822 553.343 48.6968 547.358 50.1032Z" fill="#03AA99"/>
<path d="M536.209 38.1832L540.531 42.0251L542.435 48.4912C538.868 49.9148 536.243 57.9589 531.115 58.8165C532.058 57.513 529.726 46.656 528.851 45.7298L536.209 38.1832Z" fill="#FF9A8D"/>
<path d="M536.209 38.1832C537.65 42.7626 537.375 47.6851 530.944 52.419C530.429 50.1721 528.851 45.7298 528.851 45.7298L536.209 38.1832Z" fill="#BA5964"/>
<path d="M518.011 30.0361C516.502 35.0101 511.185 38.852 518.046 38.2174C520.018 37.3256 519.606 31.1338 518.011 30.0361Z" fill="#BA5964"/>
<path d="M525.249 11.8383C515.473 13.2104 517.531 27.7892 518.183 34.2897C517.857 37.8743 517.874 41.3218 519.383 45.0952C522.694 51.8186 537.478 43.8431 536.192 38.1831C547.855 36.7595 548.815 10.3804 525.249 11.8383Z" fill="#FF9A8D"/>
<path d="M536.209 38.183C545.539 34.0838 535.866 21.769 533.379 30.8936C533.379 30.8936 528.714 29.9675 525.884 26.6401C512.454 10.9635 526.107 8.39079 533.859 10.2603C555.504 2.81653 552.777 34.9071 540.548 42.025L536.209 38.183Z" fill="#001C45"/>
<path d="M521.51 31.2881C521.579 29.7788 523.946 29.916 523.843 31.4254C523.774 32.9347 521.407 32.7975 521.51 31.2881Z" fill="#001C45"/>
<path d="M520.55 28.2352L525.884 29.9332C526.09 27.4806 521.407 26.6401 520.55 28.2352Z" fill="#001C45"/>
<path d="M537.41 30.6192C536.844 30.1561 533.928 30.7393 535.369 31.3739C536.604 30.9108 538.096 30.8593 538.696 32.2829C538.919 31.7169 538.113 30.8422 537.41 30.6192Z" fill="#BA5964"/>
<path d="M536.844 30.7393C536.707 30.6707 536.398 31.0138 536.432 31.1167C538.353 32.2144 537.187 35.1473 535.386 35.5418C537.822 35.902 539.039 31.8885 536.844 30.7393Z" fill="#BA5964"/>
<path d="M531.167 53.9109C531.235 55.3002 528.611 58.3703 529.246 60.4971C529.897 62.6239 534.288 62.8983 536.672 60.4971C539.039 58.0959 540.428 50.5492 543.67 48.491C543.67 48.491 542.572 48.491 542.075 47.1875L531.167 53.9109Z" fill="#FF9A8D"/>
<path d="M483.811 46.6387C483.811 46.6387 482.525 58.0616 486.933 67.2034C487.362 68.1125 487.001 69.193 486.11 69.6732C484.309 70.2221 478.855 75.3333 477.894 71.337C477.054 66.8604 475.887 57.0325 478.94 46.0555L483.811 46.6387Z" fill="#1E4174"/>
<path d="M478.185 49.6058C481.118 50.0346 483.228 53.3277 479.489 53.4821C481.238 53.8251 481.942 57.0668 478.871 57.0325C478.871 57.0325 480.329 57.5299 479.883 58.8334C479.437 60.1369 477.293 59.0563 476.882 60.0168C474.035 57.89 476.642 50.7207 478.185 49.6058Z" fill="#FF9A8D"/>
<path d="M489.797 55.0601C488.494 52.5731 487.224 50.755 484.291 49.6059C481.787 48.6282 480.604 46.6901 479.952 47.6678C478.511 51.1324 487.019 54.0824 489.797 55.0601Z" fill="#FF9A8D"/>
<path d="M475.475 46.2613L486.59 47.6677C489.437 48.0107 491.203 33.3461 488.356 33.0031L477.448 31.1679L475.475 46.2613Z" fill="#1E4174"/>
<path d="M477.448 31.1679C473.4 30.7048 459.456 24.1872 456.42 12.4556C444.98 10.9977 439.629 53.242 451.069 54.6999C454.208 47.4105 469.884 45.5581 475.493 46.2613C477.637 46.5357 479.609 31.4424 477.448 31.1679Z" fill="#3B55CE"/>
<path d="M523.843 0.77533C527.393 1.61576 532.607 5.80074 533.859 10.243" stroke="#001C45" stroke-width="0.7875" stroke-miterlimit="10" stroke-linecap="round"/>
<path d="M180.915 136.976C203.143 161.263 230.877 142.945 240.585 129.12C240.585 129.12 244.77 134.592 244.77 135.141C232.936 161.88 200.605 170.764 177.485 151.778L180.915 136.976Z" fill="#DD7A79"/>
<path d="M348.005 252.132C363.201 273.485 386.253 259.267 403.833 250.073C407.95 248.05 412.941 249.439 415.411 253.315L454.654 314.975C464.859 332.915 407.727 346.774 383.749 344.613C343.237 341.32 316.875 303.655 272.264 233.556C227.653 163.458 204.704 123.632 218.871 85.5385C227.087 62.6412 263.911 17.1724 275.746 33.8437L314.988 95.5036C322.501 105.966 299.243 116.686 294.132 122.5C283.738 130.836 280.925 145.483 287.512 157.078L348.005 252.132Z" fill="#3B55CE"/>
<path d="M297.099 120.099C302.159 114.439 322.192 105.692 314.971 95.5036L294.235 62.9156L275.488 33.5522C266.158 23.1755 257.171 36.4851 248.166 43.4143L297.099 120.099Z" fill="#2339A0"/>
<path d="M434.329 335.9C444.397 330.72 460.211 328.199 454.859 315.386L414.536 252.2C408.121 243.487 392.119 257.157 385.378 259.198L434.329 335.9Z" fill="#2339A0"/>
<path d="M181.515 137.439L188.942 142.996C188.942 142.996 192.286 153.27 186.643 158.604L176.815 152.652L181.515 137.439Z" fill="#E09736"/>
<path d="M53.3243 347.614C58.6584 345.796 78.7772 315.592 59.07 314.563C51.8149 315.935 50.803 310.001 48.8134 302.488C46.4122 293.484 34.7663 280.655 25.2472 281.941C5.91736 285.491 34.4576 309.898 18.7296 312.488C11.8004 313.174 8.76453 319.451 14.1673 325.9C19.2956 332.023 24.887 331.938 25.1443 338.147C25.4015 344.355 29.2606 346.122 32.5194 347.614H53.3243Z" fill="#91DBAC"/>
<path d="M30.3757 292.815C30.3757 292.815 47.0985 314.632 42.8621 347.614" stroke="#3B55CE" stroke-width="1.05" stroke-miterlimit="10" stroke-linecap="round"/>
<path d="M202.663 347.614C214.24 331.526 188.959 316.93 193.83 306.965C197.123 300.516 207.002 303.775 212.233 312.471C217.259 320.824 217.636 338.438 209.712 347.597H202.663V347.614Z" fill="#40C7A7"/>
<path d="M201.583 310.361C201.583 310.361 216.727 326.741 206.814 347.614" stroke="#3B55CE" stroke-width="1.05" stroke-miterlimit="10" stroke-linecap="round"/>
<path d="M213.88 347.614C254.444 319.331 229.865 261.874 216.333 296.503C214.429 306.313 218.786 331.183 205.99 347.614H213.88Z" fill="#22A482"/>
<path d="M225.869 291.597C229.299 303.038 220.569 339.193 210.896 347.614" stroke="#3B55CE" stroke-width="1.05" stroke-miterlimit="10" stroke-linecap="round"/>
<path d="M374.95 347.614C377.9 325.797 341.556 275.2 309.054 288.801C297.271 293.038 300.307 306.691 309.929 312.488C321.334 319.366 364.025 322.144 365.551 347.614H374.95Z" fill="#91DBAC"/>
<path d="M310.752 297.909C332.5 296.674 365.808 316.724 370.388 347.614" stroke="#3B55CE" stroke-width="1.05" stroke-miterlimit="10" stroke-linecap="round"/>
<path d="M379.924 347.614C379.924 347.614 390.455 336.38 388.431 314.752C386.39 293.124 367.369 287.755 363.956 298.201C361.263 306.433 379.787 325.592 373.184 347.614H379.924Z" fill="#3DC19A"/>
<path d="M373.167 299.727C377.249 305.01 385.104 326.638 377.094 347.614" stroke="#3B55CE" stroke-width="1.05" stroke-miterlimit="10" stroke-linecap="round"/>
<path d="M710.109 350.324C706.987 347.649 -0.274345 355.47 7.98391e-05 347.614C1.95536 342.452 710.795 342.452 712.802 347.614C712.819 349.107 711.601 350.324 710.109 350.324Z" fill="#638BE2"/>
<path d="M197.123 342.04C195.476 350.89 181.001 344.373 174.946 345.796C171.104 346.311 162.614 347.031 163.729 342.589L197.123 342.04Z" fill="#8FC9C6"/>
<path d="M165.633 331.766C165.152 334.185 163.18 339.845 163.746 342.606C166.216 344.698 171.498 344.836 175.46 343.841C180.675 343 193.95 348.077 197.123 342.04C198.838 339.244 174.311 334.425 174.02 331.097L165.633 331.766Z" fill="#228C7E"/>
<mask id="mask9_288_108" style="mask-type:luminance" maskUnits="userSpaceOnUse" x="163" y="331" width="35" height="15">
<path d="M165.633 331.766C165.152 334.185 163.18 339.845 163.746 342.606C166.216 344.698 171.498 344.836 175.46 343.841C180.675 343 193.95 348.077 197.123 342.04C198.838 339.244 174.311 334.425 174.02 331.097L165.633 331.766Z" fill="white"/>
</mask>
<g mask="url(#mask9_288_108)">
<path d="M175.992 336.431C175.992 336.431 177.158 333.155 178.719 332.092" stroke="#8FC9C6" stroke-width="0.525" stroke-miterlimit="10" stroke-linecap="round"/>
</g>
<mask id="mask10_288_108" style="mask-type:luminance" maskUnits="userSpaceOnUse" x="163" y="331" width="35" height="15">
<path d="M165.633 331.766C165.152 334.185 163.18 339.845 163.746 342.606C166.216 344.698 171.498 344.836 175.46 343.841C180.675 343 193.95 348.077 197.123 342.04C198.838 339.244 174.311 334.425 174.02 331.097L165.633 331.766Z" fill="white"/>
</mask>
<g mask="url(#mask10_288_108)">
<path d="M180.417 338.181C180.417 338.181 181.584 334.905 183.145 333.841" stroke="#8FC9C6" stroke-width="0.525" stroke-miterlimit="10" stroke-linecap="round"/>
</g>
<mask id="mask11_288_108" style="mask-type:luminance" maskUnits="userSpaceOnUse" x="163" y="331" width="35" height="15">
<path d="M165.633 331.766C165.152 334.185 163.18 339.845 163.746 342.606C166.216 344.698 171.498 344.836 175.46 343.841C180.675 343 193.95 348.077 197.123 342.04C198.838 339.244 174.311 334.425 174.02 331.097L165.633 331.766Z" fill="white"/>
</mask>
<g mask="url(#mask11_288_108)">
<path d="M184.843 339.93C184.843 339.93 186.009 336.654 187.57 335.591" stroke="#8FC9C6" stroke-width="0.525" stroke-miterlimit="10" stroke-linecap="round"/>
</g>
<path d="M165.633 322.144V331.766C166.988 331.629 167.983 334.699 169.097 335.076C176.027 333.893 173.986 326.638 175.203 322.367L165.633 322.144Z" fill="#FF9A8D"/>
<path d="M88.1246 344.544C79.1544 345.299 81.607 329.622 78.6398 324.151C77.1305 320.583 74.1976 312.573 78.7599 312.488L88.1246 344.544Z" fill="#AAEEED"/>
<path d="M89.7199 311.441C87.2673 311.613 81.2814 311.218 78.7601 312.488C77.4051 315.421 78.6572 320.549 80.6639 324.116C82.8593 328.919 81.4529 343.069 88.1248 344.544C91.2807 345.453 89.4283 320.532 92.5671 319.365L89.7199 311.441Z" fill="#03AA99"/>
<mask id="mask12_288_108" style="mask-type:luminance" maskUnits="userSpaceOnUse" x="78" y="311" width="15" height="34">
<path d="M89.7199 311.441C87.2673 311.613 81.2814 311.218 78.7601 312.488C77.4051 315.421 78.6572 320.549 80.6639 324.116C82.8593 328.919 81.4529 343.069 88.1248 344.544C91.2807 345.453 89.4283 320.532 92.5671 319.365L89.7199 311.441Z" fill="white"/>
</mask>
<g mask="url(#mask12_288_108)">
<path d="M87.9705 322.676C87.9705 322.676 91.4351 322.933 92.8758 324.168" stroke="#AAEEED" stroke-width="0.525" stroke-miterlimit="10" stroke-linecap="round"/>
</g>
<mask id="mask13_288_108" style="mask-type:luminance" maskUnits="userSpaceOnUse" x="78" y="311" width="15" height="34">
<path d="M89.7199 311.441C87.2673 311.613 81.2814 311.218 78.7601 312.488C77.4051 315.421 78.6572 320.549 80.6639 324.116C82.8593 328.919 81.4529 343.069 88.1248 344.544C91.2807 345.453 89.4283 320.532 92.5671 319.365L89.7199 311.441Z" fill="white"/>
</mask>
<g mask="url(#mask13_288_108)">
<path d="M87.4387 327.393C87.4387 327.393 90.9033 327.65 92.3441 328.885" stroke="#AAEEED" stroke-width="0.525" stroke-miterlimit="10" stroke-linecap="round"/>
</g>
<mask id="mask14_288_108" style="mask-type:luminance" maskUnits="userSpaceOnUse" x="78" y="311" width="15" height="34">
<path d="M89.7199 311.441C87.2673 311.613 81.2814 311.218 78.7601 312.488C77.4051 315.421 78.6572 320.549 80.6639 324.116C82.8593 328.919 81.4529 343.069 88.1248 344.544C91.2807 345.453 89.4283 320.532 92.5671 319.365L89.7199 311.441Z" fill="white"/>
</mask>
<g mask="url(#mask14_288_108)">
<path d="M86.9241 332.126C86.9241 332.126 90.3887 332.384 91.8294 333.619" stroke="#AAEEED" stroke-width="0.525" stroke-miterlimit="10" stroke-linecap="round"/>
</g>
<path d="M95.9285 306.982L89.7196 311.442C90.1999 312.711 87.5242 314.494 87.4385 315.661C88.1417 318.697 92.5668 319.366 92.5668 319.366L101.194 314.769L95.9285 306.982Z" fill="#FF9A8D"/>
<path d="M184.191 185.189C162.511 185.275 162.34 184.898 154.313 200.3C153.747 221.619 167.296 256.299 168.257 266.282C169.458 272.062 165.187 272.971 165.135 282.13C165.084 295.216 165.616 323.139 165.616 323.139C165.616 323.139 169.646 325.489 174.98 323.877C177.484 306.073 186.575 268.734 186.043 245.648C186.283 224.861 184.191 185.189 184.191 185.189Z" fill="#1E4174"/>
<path d="M184.054 203.232C182.253 211.654 170.178 221.79 170.178 221.79C168.806 225.718 151.106 286.332 148.155 288.647C145.205 290.928 101.212 314.769 101.212 314.769C98.0043 313.037 96.4264 309.847 95.929 306.982C98.0214 304.495 124.641 275.972 132.822 277.087C140.18 234.157 139.906 215.033 154.158 182.925H154.176V182.942C161.465 188.825 175.924 198.293 184.054 203.232Z" fill="#85B8ED"/>
<path d="M166.645 192.204C156.8 202.375 152.1 206.8 148.155 229.148C144.399 248.907 138.105 278.271 137.35 280.089C125.327 283.33 106.391 300.585 97.0267 310.361C96.3063 308.852 96.1005 307.977 95.929 306.982C98.0214 304.495 124.641 275.972 132.822 277.087C139.871 234.157 140.026 215.016 154.176 182.925C156.903 184.932 164.021 190.266 166.645 192.204Z" fill="#4E7EAC"/>
<path d="M184.053 203.233C180.709 210.368 154.107 213.918 146.303 207.212L150.385 200.814L184.053 203.233Z" fill="#4E7EAC"/>
<mask id="mask15_288_108" style="mask-type:luminance" maskUnits="userSpaceOnUse" x="95" y="183" width="91" height="132">
<path d="M101.212 314.769C101.212 314.769 145.223 290.928 148.173 288.647C151.123 286.366 168.823 225.735 170.178 221.808C170.178 221.808 183.213 211.191 185.014 202.769L154.879 183.045C142.615 207.074 139.168 236.781 132.839 277.087C124.709 275.938 97.9357 304.581 95.929 306.999C95.929 306.982 96.5636 312.248 101.212 314.769Z" fill="white"/>
</mask>
<g mask="url(#mask15_288_108)">
<path d="M177.708 186.647C171.362 194.777 163.283 199.716 159.922 205.291C156.217 208.121 144.091 281.632 140.849 283.09C131.776 284.599 98.3989 309.298 95.5688 313.757" stroke="#274D79" stroke-width="0.525" stroke-miterlimit="10"/>
</g>
<mask id="mask16_288_108" style="mask-type:luminance" maskUnits="userSpaceOnUse" x="95" y="183" width="91" height="132">
<path d="M101.212 314.769C101.212 314.769 145.223 290.928 148.173 288.647C151.123 286.366 168.823 225.735 170.178 221.808C170.178 221.808 183.213 211.191 185.014 202.769L154.879 183.045C142.615 207.074 139.168 236.781 132.839 277.087C124.709 275.938 97.9357 304.581 95.929 306.999C95.929 306.982 96.5636 312.248 101.212 314.769Z" fill="white"/>
</mask>
<g mask="url(#mask16_288_108)">
<path d="M170.693 205.908C170.693 205.908 168.171 219.767 155.839 217.451" stroke="#274D79" stroke-width="0.525" stroke-miterlimit="10"/>
</g>
<mask id="mask17_288_108" style="mask-type:luminance" maskUnits="userSpaceOnUse" x="95" y="183" width="91" height="132">
<path d="M101.212 314.769C101.212 314.769 145.223 290.928 148.173 288.647C151.123 286.366 168.823 225.735 170.178 221.808C170.178 221.808 183.213 211.191 185.014 202.769L154.879 183.045C142.615 207.074 139.168 236.781 132.839 277.087C124.709 275.938 97.9357 304.581 95.929 306.999C95.929 306.982 96.5636 312.248 101.212 314.769Z" fill="white"/>
</mask>
<g mask="url(#mask17_288_108)">
<path d="M98.313 302.643C98.3644 306.365 100.971 311.75 105.757 314.632" stroke="#274D79" stroke-width="0.525" stroke-miterlimit="10"/>
</g>
<path d="M168.754 123.289L179.182 132.225L185.168 118.041L172.75 110.871L168.754 123.289Z" fill="#FF9A8D"/>
<path d="M183.385 122.243C183.385 122.243 171.087 118.795 172.734 110.871L185.151 118.041L183.385 122.243Z" fill="#BA5964"/>
<path d="M178.942 131.865C188.153 139.412 184.088 193.954 186.06 202.169C180.503 207.812 153.301 207.366 148.172 199.151C148.67 193.525 147.589 127.217 168.771 123.272L178.942 131.865Z" fill="#FFC253"/>
<path d="M191.394 99.2598C192.029 100.375 195.408 105.091 196.488 106.463C197.586 107.836 193.229 108.196 193.229 108.196L191.394 99.2598Z" fill="#BA5964"/>
<path d="M172.75 110.871C173.059 115.005 183.367 118.349 187.844 119.396C199.181 120.202 191.48 91.7987 184.396 89.2775C178.376 85.1954 169.937 89.6548 166.284 95.4177C162.631 101.198 166.524 112.535 172.75 110.871Z" fill="#FF9A8D"/>
<path d="M172.75 110.871L171.413 115.022C171.413 115.022 170.383 115.519 167.776 112.278C160.899 105.143 156.199 95.2634 166.679 91.9703C172.579 73.3952 205.355 71.1998 188.924 87.2193C188.924 87.2193 195.082 90.3066 191.188 92.6392C187.295 94.9718 176.163 94.6803 176.163 94.6803C176.163 94.6803 181.635 96.7727 180.005 98.3164C178.376 99.86 171.327 99.2254 171.327 99.2254L172.201 102.776C165.444 100.392 165.735 111.746 172.75 110.871Z" fill="#001C45"/>
<path d="M165.529 81.1132C165.529 81.1132 162.099 88.5569 168.548 93.548C168.548 93.548 162.116 93.3422 160.744 87.2363" stroke="#001C45" stroke-width="0.7875" stroke-miterlimit="10" stroke-linecap="round"/>
<path d="M186.866 101.043C186.42 99.6712 184.276 100.409 184.756 101.764C185.202 103.136 187.346 102.398 186.866 101.043Z" fill="#001C45"/>
<path d="M186.952 97.9904L182.492 100.923C181.669 98.7108 185.768 96.7555 186.952 97.9904Z" fill="#001C45"/>
<path d="M169.183 104.851C169.577 104.285 172.407 104.062 171.241 105.006C170.006 104.903 168.6 105.228 168.411 106.704C168.085 106.24 168.6 105.228 169.183 104.851Z" fill="#BA5964"/>
<path d="M169.749 104.817C169.852 104.731 170.229 104.954 170.229 105.04C168.754 106.549 170.589 108.933 172.321 108.83C170.178 109.808 168.016 106.429 169.749 104.817Z" fill="#BA5964"/>
<path d="M164.226 132.311C155.016 136.77 164.466 161.263 166.147 164.779C166.147 164.779 178.308 161.914 181.498 154.162C178.908 151.28 174.689 126.582 164.226 132.311Z" fill="#E09736"/>
<path d="M176.953 178.003C179.68 180.73 183.402 183.731 185.46 184.554C185.305 179.975 185.117 176.099 184.962 171.845L175.872 159.753L169.886 158.141L167.742 164.333C167.759 164.333 172.596 173.629 176.953 178.003Z" fill="#E09736"/>
<path d="M167.108 132.225C150.162 138.245 177.587 178.569 185.168 182.05C190.657 185.875 211.942 184.623 229.745 179.358C229.745 179.358 239.882 175.721 242.712 173.217C248.989 167.643 249.298 160.251 244.684 161.348C240.07 162.446 232.781 167.454 232.781 167.454C232.781 167.454 230.843 163.647 229.436 160.68C227.258 160.645 227.498 170.336 226.589 170.49C224.548 171.914 196.008 174.315 192.612 170.953C184.791 166.923 175.735 128.469 167.108 132.225Z" fill="#FF9A8D"/>
<path d="M165.187 130.939C155.976 135.398 165.427 159.89 167.108 163.407C167.108 163.407 178.513 161.674 183.367 155.122C180.846 152.378 175.563 124.695 165.187 130.939Z" fill="#FFC253"/>
</svg>
