<?xml version="1.0" encoding="utf-8"?>
<!-- Generator: Adobe Illustrator 24.3.0, SVG Export Plug-In . SVG Version: 6.00 Build 0)  -->
<svg version="1.1" id="Layer_1" xmlns="http://www.w3.org/2000/svg" xmlns:xlink="http://www.w3.org/1999/xlink" x="0px" y="0px"
	 viewBox="0 0 1634.48 457.92" style="enable-background:new 0 0 1634.48 457.92;" xml:space="preserve">
<style type="text/css">
	.st0{fill:#6147F8;}
	.st1{fill:#6248F8;}
	.st2{fill:#6249F8;}
	.st3{fill:#F4CB5B;}
	.st4{fill:#785ADE;}
	.st5{fill:#7668CA;}
	.st6{fill:#6148F8;}
	.st7{fill:#F3C95B;}
	.st8{fill:#F3CA5D;}
	.st9{fill:#F3CB61;}
</style>
<g>
	<path class="st0" d="M1079.38,351.78c-2.92,36.8-20.94,63.23-54.46,78.9c-10.62,4.96-21.98,7.41-33.54,8.98
		c-1.06,0.14-2.41-0.41-3.05,1.03c-1.67,0-3.33,0-5,0c-5.33-1.62-10.67-1.63-16,0c-1.67,0-3.33,0-5,0c-4.4-2.08-9.27-1.97-13.9-2.94
		c-47.14-9.88-73.85-46.16-75.02-90.17c0.01-52.26,0.02-104.52,0.04-156.77c0-6.25,0.7-6.95,6.83-6.95c12.16-0.01,24.31,0,36.47,0
		c6.57,0,6.58,0,6.58,6.39c0,50.59,0.06,101.19-0.07,151.78c-0.02,6.22,2.65,12.01,2.24,18.23c-0.06,0.93,0.88,1.31,1.74,1.48
		c9.02,25.66,29.83,33.6,55.26,31.78c21.41-1.53,39.41-11.86,44.89-39.85c2.36-2.04,1.89-4.82,1.89-7.44
		c0.02-51.24,0.02-102.49,0.03-153.74c0-1.66,0.12-3.34-0.02-4.99c-0.23-2.86,1.07-3.74,3.81-3.73c14.15,0.08,28.3,0.08,42.45-0.01
		c2.79-0.02,4,1,3.76,3.8c-0.11,1.32-0.02,2.66-0.02,3.99C1079.33,244.97,1079.35,298.38,1079.38,351.78z"/>
	<path class="st1" d="M721.37,440.69c-7.34-1.66-14.78-2.98-22.01-5.04c-23.16-6.6-41.77-19.18-52.57-41.46
		c-2.82-5.82-4.84-11.97-5.4-18.49c0.01-1.33,0.21-2.69,0-3.99c-0.76-4.83,1.18-6.18,6-6.09c15.98,0.32,31.97,0.15,47.96,0.17
		c2.55,16.39,10.89,28.06,27.81,31.18c14.8,2.73,29.4,1.95,41.18-9.35c11.6-11.12,10.84-30.72-1.17-41.42
		c-8.77-7.81-19.64-11.07-30.44-14.42c-17.8-5.52-35.95-10.08-52.87-18.08c-22.73-10.76-36.82-27.83-38.64-53.83
		c-2.89-41.27,21.19-68.03,56.78-76.95c29.72-7.45,59.25-6.71,87.04,7.96c23.02,12.16,34.84,32.07,37.91,57.57
		c0.28,2.35-0.27,3.33-2.8,3.32c-16.83-0.07-33.66-0.06-50.49,0c-2.22,0.01-3.14-0.66-3.55-3c-3.5-19.58-21.07-28.05-40.14-27.37
		c-3.81,0.14-7.62,0.58-11.32,1.74c-10.23,3.21-16.99,9.74-19.16,20.35c-2.32,11.36,0.43,20.94,10.14,28.26
		c9.42,7.1,20.48,10.27,31.35,13.89c15.63,5.21,31.48,9.66,46.75,16c54.54,22.64,50.42,83.39,22.68,112.16
		c-15.16,15.72-34.15,23.23-55.43,25.85c-1.24,0.15-2.73-0.45-3.62,1c-1.67,0-3.33,0-5,0c-5.33-1.62-10.67-1.63-16,0
		C724.7,440.69,723.04,440.69,721.37,440.69z"/>
	<path class="st2" d="M1615.25,437.69c-48.31,0.04-96.62,0.06-144.93,0.18c-2.93,0.01-4.35-0.7-4.07-3.88
		c0.22-2.48,0.05-4.99,0.05-7.49c0-79.58,0.04-159.17-0.12-238.75c-0.01-4.89,1.41-6.01,6.13-6c47.64,0.18,95.29,0.11,142.93,0.12
		c0,13.99,0,27.98,0,41.97c-30.8-0.01-61.61,0.06-92.41-0.11c-3.96-0.02-5.06,1.13-5.02,5.05c0.19,17.97,0.22,35.95-0.02,53.92
		c-0.06,4.31,1.36,5.17,5.38,5.14c25.14-0.18,50.29,0.01,75.43-0.18c4.2-0.03,5.82,0.75,5.63,5.38c-0.4,9.8-0.38,19.64-0.01,29.45
		c0.18,4.73-1.05,6.19-5.96,6.14c-25.14-0.25-50.29-0.11-75.43-0.12c-2.5,0-4.99-0.47-4.96,3.54c0.12,20.14,0.08,40.27,0.01,60.41
		c-0.01,2.58,0.9,3.46,3.48,3.45c31.3-0.11,62.6-0.14,93.9-0.19C1615.25,409.71,1615.25,423.7,1615.25,437.69z M1518.36,396.97
		c0,0.15,0,0.29,0,0.44c31.52,0,63.05,0,94.57,0c0-0.15,0-0.29,0-0.44C1581.41,396.97,1549.89,396.97,1518.36,396.97z"/>
	<path class="st3" d="M1615.25,151.89c-4.5-0.03-9.08-0.63-13.47,0.06c-6.09,0.95-8.65-1.96-10.17-7.09
		c-1.4-4.74-3.05-9.4-4.46-14.14c-0.62-2.09-1.8-2.96-3.96-2.96c-14.66,0.04-29.32,0.04-43.98,0c-2.21-0.01-3.19,1-3.84,3.05
		c-1.89,5.99-4.2,11.86-5.93,17.9c-0.7,2.46-1.81,3.19-4.14,3.14c-4.83-0.09-9.66-0.07-14.49,0.01c-2.93,0.05-3.23-0.94-2.24-3.61
		c6.78-18.37,13.44-36.78,20.04-55.21c6.26-17.47,12.5-34.94,18.57-52.48c2.61-7.53,2.41-7.6,10.06-7.6c3.67,0,7.38,0.36,10.98-0.1
		c3.84-0.48,5.58,1.51,6.62,4.48c9.57,27.12,18.91,54.32,28.66,81.37c3.41,9.47,7.02,18.87,10.08,28.46
		c0.22,0.68,1.09,1.14,1.65,1.71C1615.25,149.89,1615.25,150.89,1615.25,151.89z M1561.82,58.14c-1.04,1.72-1.91,2.76-2.34,3.96
		c-1.8,4.94-3.42,9.94-5.19,14.88c-3.55,9.92-7.21,19.79-10.69,29.73c-1.14,3.25-0.55,5.25,3.8,5.12c9.3-0.28,18.61-0.22,27.91-0.01
		c3.89,0.09,4.84-1.63,3.73-4.83C1573.46,91,1567.79,75.04,1561.82,58.14z"/>
	<path class="st4" d="M175.43,0.97c9.06-0.11,18.13-0.21,27.19-0.35c1.62-0.03,3.31,0.37,4.82-0.62c11.33,0,22.66,0,34,0
		c-0.42,0.79-1.14,1-1.96,1.04c-5.95-0.05-11.88,0.56-17.79,0.76c-15.4,0.5-30.83,0.14-46.25,0.12
		C175.44,1.6,175.44,1.29,175.43,0.97z"/>
	<path class="st5" d="M239.48,1.04c0.81-0.04,1.54-0.25,1.96-1.04c1.67,0,3.33,0,5,0c3.03,2.11,6.88,0.13,9.97,1.99
		C250.76,1.63,245.03,2.99,239.48,1.04z"/>
	<path class="st4" d="M726.37,440.69c5.33-1.63,10.67-1.62,16,0C737.03,440.69,731.7,440.69,726.37,440.69z"/>
	<path class="st4" d="M967.34,440.69c5.33-1.63,10.67-1.62,16,0C978,440.69,972.67,440.69,967.34,440.69z"/>
	<path class="st0" d="M239.48,1.04c5.55,1.95,11.29,0.59,16.92,0.95c39.52,4.55,75.79,16.51,104.04,46.25
		c18.35,19.32,27.89,42.84,30.82,68.98c2.08,18.5,3.6,37.06,0.51,55.73c-7.42,44.93-31.79,77.45-71.55,98.89
		c-4.83,2.6-9.78,5.04-14.86,7.07c-3.54,1.41-4.22,2.47-1.76,5.86c23.62,32.64,47.06,65.41,70.56,98.14
		c12.33,17.17,24.68,34.33,37,51.51c0.75,1.05,1.35,2.2,2.05,3.36c-1.59,1.47-3.32,0.85-4.86,0.85
		c-41.83,0.04-83.65-0.04-125.48,0.15c-4.56,0.02-5.47-1.36-5.46-5.64c0.13-69.78,0.09-139.56,0.07-209.34
		c0-1.99-0.18-3.98-0.28-5.97c0-0.68,0-1.35,0-2.03c0-1.3,0-2.6,0-3.9c0.02-0.83,0.04-1.66,0.06-2.48c0.16-1.77-1.44-2.59-2.34-3.54
		c-11.11-11.93-22.17-23.92-33.65-35.48c-8.64-8.7-16.11-18.54-25.64-26.38c-0.12-0.29-0.23-0.59-0.32-0.89
		c-1.28-1.99-3.3-1.2-5.01-1.2c-40.57-0.04-81.14-0.04-121.7-0.01c-1.77,0-3.69-0.54-5.25,0.88c-1.81,1.4-0.98,3.4-0.98,5.1
		c-0.04,95.19-0.03,190.39-0.04,285.58c0,1.66-0.1,3.32-0.16,4.98c-19.8,0.03-39.61-0.07-59.41,0.2c-4.56,0.06-4.65-2.21-4.67-5.52
		c-0.17-36.42-0.46-72.85-0.6-109.27c-0.13-34.6-0.12-69.19-0.17-103.79c0.06-2.16,0.16-4.33,0.16-6.49
		c-0.01-45.47-0.02-90.93-0.07-136.4c-0.03-24.81-0.15-49.62-0.22-74.43c23.04-1.3,46.1-0.6,69.15-0.81
		c29.69-0.01,59.38-0.02,89.07-0.03c15.42,0.02,30.85,0.38,46.25-0.12C227.6,1.6,233.53,0.98,239.48,1.04z"/>
	<path class="st6" d="M1193.27,186.88c9.36,21.69,18.73,43.37,28.07,65.07c16.57,38.51,33.11,77.03,49.66,115.55
		c0.45,1.06,0.59,2.29,2.27,3.14c3.5-8.06,7.04-16.09,10.49-24.15c22.08-51.53,44.15-103.08,66.23-154.61
		c0.46-1.07,1.01-2.1,1.52-3.14c0.2-0.34,0.39-0.69,0.59-1.03c0,0-0.03,0.01-0.03,0.01c1.48-0.5,1.21-1.74,1.21-2.87
		c0,0-0.01,0.03-0.01,0.03c1.94-1.28,4.13-1.05,6.29-1.05c15.32,0,30.64,0.17,45.95-0.1c4.58-0.08,5.86,1.19,5.86,5.81
		c-0.15,82.69-0.11,165.39-0.12,248.08c-15.65,0.07-31.31,0.06-46.96,0.27c-3.8,0.05-3.29-2.31-3.29-4.6c0-21.48,0-42.96,0-64.43
		c0-31.29,0-62.58,0-94.52c-2.33,1.56-2.69,3.77-3.43,5.57c-21.03,50.89-42.06,101.79-62.86,152.77c-1.69,4.14-3.72,5.41-8.02,5.26
		c-9.82-0.33-19.66-0.22-29.48-0.04c-2.97,0.05-4.45-0.96-5.57-3.67c-21.3-51.49-42.69-102.95-64.06-154.42
		c-0.61-1.46-1.28-2.9-3.04-4.18c0,1.72,0,3.44,0,5.16c0,50.28-0.07,100.56,0.12,150.84c0.02,5.02-1.22,6.51-6.33,6.31
		c-14.96-0.59-29.95,0.4-44.91-0.53c0-81.57,0.01-163.13,0.01-244.7c0-8.85,0-8.85,9.09-8.85c14.32,0,28.65,0.07,42.97-0.06
		C1188.62,183.76,1191.32,184.17,1193.27,186.88z"/>
	<path class="st1" d="M448.25,309.53c0-40.63,0.06-81.26-0.1-121.9c-0.02-4.48,1.04-5.91,5.75-5.89
		c45.82,0.18,91.64,0.19,137.46,0.01c4.75-0.02,5.9,1.46,5.78,5.94c-0.3,10.48-0.25,20.98-0.02,31.47c0.08,3.81-1.21,4.75-4.88,4.73
		c-28.99-0.14-57.98,0.03-86.97-0.18c-4.6-0.03-5.88,1.19-5.81,5.8c0.27,17.48,0.31,34.97-0.02,52.45c-0.1,5.01,1.5,5.95,6.16,5.9
		c25.16-0.24,50.32-0.02,75.48-0.2c3.95-0.03,5.1,1.05,5,4.99c-0.27,10.32-0.29,20.65,0.01,30.97c0.12,4.15-1.43,4.98-5.2,4.95
		c-25.33-0.14-50.65,0.01-75.98-0.15c-3.99-0.03-5.49,0.86-5.44,5.19c0.23,19.15,0.22,38.3,0,57.45c-0.05,4.12,1.4,4.91,5.15,4.9
		c28.99-0.13,57.98,0.03,86.97-0.19c4.5-0.03,5.66,1.25,5.54,5.6c-0.3,10.82-0.18,21.65-0.04,32.47c0.04,2.96-0.78,4.04-3.92,4.04
		c-46.99-0.09-93.97-0.11-140.96,0.02c-4.13,0.01-4-2.08-4-4.97C448.26,391.8,448.25,350.67,448.25,309.53z"/>
	<path class="st7" d="M1359.47,92.59c0-17.98,0.12-35.95-0.08-53.93c-0.05-4.17,1.35-5.7,5.41-5.6c15.63,0.38,31.35-1.05,46.89,1.06
		c18.33,2.49,38.29,12.68,45.91,35.48c6.49,19.4,5.77,38.17-4.57,55.93c-6.43,11.05-16.56,18.03-28.58,22.34
		c-11.65,4.17-23.73,4.11-35.85,3.96c-8.16-0.1-16.33-0.2-24.48,0.05c-3.8,0.12-4.77-1.19-4.74-4.86
		C1359.56,128.88,1359.47,110.74,1359.47,92.59z M1440.22,104.61c5.71-0.4,11.3-5.41,12.98-11.65c3.28-8.01,0.45-18.25-6.56-23.8
		c-7.33-5.79-19.58-5.7-27.03,0.36c-2.79,2.27-4.94,5.99-9.38,2.72c-0.56-0.41-2.19-0.13-2.8,0.41c-2.8,2.52-4.4,0.29-6.11-1.36
		c-6.54-6.31-16.78-8.29-24.62-4.72c-7.79,3.55-13.27,12.83-12.49,21.16c0.7,7.51,8.34,16.44,15.45,18.05
		c9.88,2.23,18.57-1.12,23.85-8.14c4.22-5.63,4.07-11.61,3.44-17.93c-0.18-1.85-0.22-4.02,2.56-3.73c2.33,0.25,3.82,1.17,3.08,4.25
		c-0.64,2.69-0.5,5.62-0.37,8.43C1412.78,100.94,1429.41,110.38,1440.22,104.61z M1408.11,123.89c4.13,0.61,6.76-2.14,9.04-5.21
		c0.89-1.2,1.05-3-0.04-4.22c-0.99-1.1-2.78-1.05-3.57,0.01c-3.84,5.13-7.37,4.37-11.24,0.01c-0.99-1.12-2.98-1.05-4.15,0.05
		c-1.26,1.18-0.86,2.66,0.26,3.96C1400.92,121.4,1403.48,124.19,1408.11,123.89z"/>
	<path class="st3" d="M991.25,100.79c0,3.86,0,6.8,0,9.74c-0.01,10.99-0.02,21.97-0.02,32.96c0,8.33,0.01,8.33-8.57,8.32
		c-11.38-0.01-11.38-0.01-11.38-11.52c0.01-33.96,0.08-67.92-0.08-101.87c-0.02-4.08,0.92-5.46,5.2-5.42
		c14.82,0.13,14.82-0.03,14.84,14.95c0.01,10.49-0.02,20.97,0.04,31.46c0.01,1.58-0.49,3.28,0.77,5.15
		c8.47-8.25,15.44-17.62,23.14-26.32c6.56-7.42,12.97-14.98,19.4-22.52c1.26-1.48,2.66-2.54,4.62-2.56
		c6.16-0.07,12.32-0.07,18.48-0.08c0.81,0,1.89-0.12,2.07,0.89c0.25,1.42-0.72,2.47-1.6,3.47c-5.87,6.73-11.74,13.47-17.62,20.2
		c-9.34,10.71-18.65,21.45-28.07,32.08c-1.72,1.94-1.54,3.34,0.04,5.14c7.31,8.32,14.49,16.75,21.83,25.04
		c8.3,9.37,16.73,18.64,25.1,27.95c0.77,0.85,1.99,1.68,1.55,2.92c-0.58,1.65-2.26,1.01-3.49,1.03c-4.16,0.06-8.41-0.5-12.47,0.12
		c-7.13,1.09-11.2-2.58-15.37-7.56c-11.87-14.19-24.11-28.06-36.21-42.05C993.13,101.96,992.65,101.75,991.25,100.79z"/>
	<path class="st8" d="M1236.38,91.93c0-18.15,0.05-36.29-0.05-54.44c-0.02-3.72,0.65-4.85,5.06-4.76
		c18.97,0.36,37.95,0.06,56.93-0.21c2.44-0.03,3.35,0.79,3.75,2.84c0.1,0.48,0.09,0.99,0.09,1.49c-0.05,15.5,1.08,12.69-12.15,12.81
		c-9.83,0.09-19.66,0.11-29.48-0.04c-3.24-0.05-4.43,1.02-4.36,4.3c0.16,8.49,0.17,16.98,0.01,25.47c-0.07,3.59,1.51,4.55,4.83,4.5
		c10.49-0.15,20.99,0.07,31.48-0.16c3.79-0.08,4.83,1.24,4.82,4.9c-0.03,11.23,0.11,11.22-11.32,11.23
		c-8.49,0.01-16.99,0.16-25.48-0.01c-3.23-0.06-4.4,0.91-4.34,4.23c0.17,8.99,0.17,17.98-0.02,26.97c-0.08,3.74,1.32,4.9,4.97,4.85
		c11.99-0.18,23.99,0.05,35.98-0.14c3.75-0.06,5.28,0.78,5.18,4.95c-0.25,11.12-0.05,11.12-11.41,11.12
		c-16.49,0-32.98-0.1-49.47,0.11c-3.95,0.05-5.15-1.1-5.11-5.07c0.19-18.31,0.08-36.62,0.08-54.94
		C1236.37,91.93,1236.38,91.93,1236.38,91.93z"/>
	<path class="st3" d="M1113.28,91.43c0-17.98,0.07-35.96-0.06-53.94c-0.02-3.58,0.26-4.87,4.78-4.75
		c18.64,0.5,37.31,0.34,55.96,0.11c4.26-0.05,5.39,1.28,5.28,5.34c-0.32,11.54,1.55,11.69-11.21,11.49
		c-10.82-0.17-21.64-0.11-32.46-0.36c-1.94-0.04-2.38,0.7-2.38,2.19c-0.05,9.82-0.06,19.64-0.08,29.46
		c-0.01,2.99,2.12,2.83,4.18,2.83c10.49-0.01,20.99,0.16,31.48-0.06c3.75-0.08,4.81,1.11,4.78,4.83
		c-0.09,11.27,0.06,11.27-11.2,11.27c-8.33,0-16.66,0.12-24.98-0.06c-3.23-0.07-4.39,0.94-4.33,4.24
		c0.18,9.15,0.23,18.31-0.01,27.46c-0.1,3.74,1.44,4.4,4.72,4.36c12.16-0.14,24.32,0.1,36.48-0.12c3.98-0.07,5.09,1.2,5.03,5.11
		c-0.16,11.01,0.01,10.98-11.06,10.97c-16.66-0.02-33.32-0.13-49.97,0.11c-4.05,0.06-5.04-1.23-5-5.07
		c0.17-18.48,0.08-36.96,0.08-55.43C1113.29,91.43,1113.28,91.43,1113.28,91.43z"/>
	<path class="st4" d="M927.25,361.74c-0.86-0.17-1.8-0.55-1.74-1.48c0.42-6.22-2.25-12.01-2.24-18.23
		c0.13-50.59,0.07-101.19,0.07-151.78c0-6.39-0.01-6.39-6.58-6.39c-12.16,0-24.31-0.02-36.47,0c-6.13,0.01-6.82,0.71-6.83,6.95
		c-0.02,52.26-0.03,104.52-0.04,156.77c-0.96-1.54-0.54-3.25-0.55-4.87c-0.02-51.43,0.05-102.86-0.12-154.28
		c-0.02-4.89,1-6.65,6.27-6.49c13.48,0.4,26.98,0.32,40.46,0.03c4.55-0.1,5.55,1.44,5.53,5.72c-0.14,42.94-0.14,85.88-0.06,128.82
		C924.98,331.62,923.94,346.79,927.25,361.74z"/>
	<path class="st5" d="M1079.38,351.78c-0.03-53.41-0.06-106.81-0.08-160.22c0-1.33-0.09-2.67,0.02-3.99c0.24-2.8-0.97-3.81-3.76-3.8
		c-14.15,0.09-28.3,0.09-42.45,0.01c-2.74-0.02-4.05,0.86-3.81,3.73c0.13,1.65,0.02,3.33,0.02,4.99
		c-0.01,51.25-0.01,102.49-0.03,153.74c0,2.62,0.47,5.4-1.89,7.44c0.11-55.11,0.28-110.22,0.2-165.32c-0.01-5.07,1.29-6.53,6.4-6.4
		c13.99,0.36,27.99,0.19,41.98,0.07c3.04-0.02,4.44,0.56,4.43,4.07c-0.15,53.61-0.16,107.23-0.23,160.84
		C1080.18,348.57,1080.36,350.29,1079.38,351.78z"/>
	<path class="st4" d="M1193.27,186.88c-1.94-2.71-4.65-3.12-7.81-3.09c-14.32,0.13-28.65,0.06-42.97,0.06c-9.09,0-9.09,0-9.09,8.85
		c0,81.57-0.01,163.13-0.01,244.7c-1.29-1.43-0.68-3.18-0.68-4.78c-0.03-81.6,0.01-163.19-0.12-244.79
		c-0.01-4.57,1.2-5.95,5.84-5.87c16.32,0.28,32.66,0.21,48.98,0.04C1191.11,181.97,1193.12,183.08,1193.27,186.88z"/>
	<path class="st5" d="M1411.23,437.61c0.01-82.69-0.02-165.39,0.12-248.08c0.01-4.63-1.28-5.9-5.86-5.81
		c-15.31,0.28-30.63,0.11-45.95,0.1c-2.16,0-4.35-0.23-6.29,1.05c-0.08-2.65,1.69-2.81,3.68-2.81c17.31,0.02,34.62,0.04,51.94-0.03
		c2.6-0.01,3.66,0.95,3.44,3.52c-0.11,1.32-0.02,2.66-0.02,3.99c0,80.69,0.01,161.38-0.05,242.07
		C1412.25,433.6,1413.31,435.91,1411.23,437.61z"/>
	<path class="st4" d="M695.36,365.79c-15.99-0.02-31.98,0.15-47.96-0.17c-4.82-0.1-6.76,1.26-6,6.09c0.21,1.3,0.01,2.66,0,3.99
		c-3.15-11.65-3.1-11.72,8.64-11.72c13.66,0,27.33-0.05,40.99,0.06C692.53,364.05,694.94,362.75,695.36,365.79z"/>
	<path class="st5" d="M1353.27,184.84c0,1.13,0.27,2.37-1.21,2.87C1352.09,186.59,1352.29,185.55,1353.27,184.84z"/>
	<path class="st5" d="M1352.09,187.7c-0.2,0.34-0.39,0.69-0.59,1.03C1351.7,188.39,1351.89,188.04,1352.09,187.7z"/>
	<path class="st3" d="M179.62,319.79c-21.8,0-43.6-0.08-65.39,0.08c-3.65,0.03-4.87-0.9-4.83-4.72c0.11-11.25-0.06-11.25,11.2-11.25
		c41.27,0,82.53,0.07,123.79-0.11c4.61-0.02,6.07,1.24,5.95,5.84c-0.25,10.13-0.04,10.14-10.33,10.15
		C219.89,319.79,199.76,319.79,179.62,319.79z"/>
	<path class="st9" d="M179.95,286.76c-21.82,0-43.65-0.11-65.47,0.1c-4.05,0.04-5.16-1.22-5.05-5.05
		c0.36-12.11-1.86-10.86,10.92-10.87c40.98-0.04,81.96-0.01,122.94,0c7,0,7,0.02,7,6.74c0,9.02,0,9.04-8.88,9.04
		c-20.49,0.01-40.98,0-61.47,0C179.95,286.73,179.95,286.75,179.95,286.76z"/>
	<path class="st8" d="M179.95,235.89c21.66,0,43.32,0.1,64.98-0.08c4.19-0.04,5.55,1.31,5.42,5.42
		c-0.39,12.52,1.16,10.48-10.21,10.5c-41.49,0.05-82.98-0.06-124.47,0.11c-4.61,0.02-6.47-0.9-6.29-5.93
		c0.35-10.01,0.08-10.02,10.08-10.02C139.62,235.88,159.79,235.88,179.95,235.89z"/>
	<path class="st7" d="M180.45,339.57c21.48,0,42.95,0.08,64.43-0.08c3.93-0.03,5.59,0.77,5.46,5.17c-0.28,9.34-0.02,9.37-8.86,10.44
		c-1.81,0.22-3.64,0.32-5.46,0.32c-38.79,0.02-77.58,0.01-116.37,0.01c-9.82,0-12.95-4.35-10.08-13.86
		c0.86-2.86,3.16-1.96,4.95-1.97C136.5,339.55,158.48,339.57,180.45,339.57z"/>
	<path class="st7" d="M215.65,144.01c9.52,7.84,16.99,17.67,25.64,26.38c11.48,11.56,22.54,23.56,33.65,35.48
		c0.89,0.96,2.49,1.77,2.34,3.54c-6.28-0.19-12.56-0.38-18.84-0.57c-4.94-1.12-9.94-1.03-14.95-0.7
		c-8.16-0.15-16.32-0.36-24.48-0.42c-2.36-0.02-3.78-0.51-3.75-3.28C215.47,184.3,214.77,164.15,215.65,144.01z"/>
	<path class="st5" d="M83.38,142.8c1.55-1.42,3.47-0.88,5.25-0.88c40.57-0.03,81.14-0.03,121.7,0.01c1.71,0,3.73-0.79,5.01,1.2
		c-41.66-0.05-83.31-0.09-124.97-0.14C88.04,142.98,85.71,142.86,83.38,142.8z"/>
	<ellipse class="st1" cx="1565.65" cy="397.19" rx="66.87" ry="0.31"/>
	<path class="st5" d="M17.22,2.76c0.08,24.81,0.19,49.62,0.22,74.43c0.05,45.47,0.06,90.93,0.07,136.4c0,2.16-0.11,4.32-0.16,6.49
		c-0.25-0.14-0.51-0.28-0.78-0.4c-0.04-8.6-0.07-17.21-0.11-25.81c-0.02-31.74,0-63.49-0.05-95.23
		c-0.05-30.09-0.19-60.17-0.22-90.26C16.19,6.49,15.36,4.35,17.22,2.76z"/>
	<path class="st5" d="M175.44,1.91c-29.69,0.01-59.38,0.02-89.07,0.03c2.55-1.1,5.25-0.58,7.87-0.59
		c27.06-0.16,54.13-0.26,81.19-0.38C175.44,1.29,175.44,1.6,175.44,1.91z"/>
	<path class="st4" d="M1440.22,104.61c-10.81,5.77-27.45-3.67-28-15.96c-0.13-2.81-0.27-5.74,0.37-8.43c0.73-3.07-0.75-4-3.08-4.25
		c-2.78-0.29-2.74,1.88-2.56,3.73c0.62,6.32,0.78,12.31-3.44,17.93c-5.27,7.03-13.96,10.38-23.85,8.14
		c-7.11-1.61-14.75-10.53-15.45-18.05c-0.77-8.33,4.7-17.6,12.49-21.16c7.84-3.58,18.08-1.59,24.62,4.72
		c1.71,1.65,3.31,3.89,6.11,1.36c0.61-0.55,2.24-0.82,2.8-0.41c4.44,3.27,6.58-0.45,9.38-2.72c7.45-6.06,19.7-6.15,27.03-0.36
		c7.01,5.54,9.83,15.79,6.56,23.8c-1.45,0.8-1.97,0.08-2.09-1.29c0.6-6.88,0.6-13.36-5.31-18.63c-5.12-4.56-13.32-6.72-19.8-3.99
		c-5.73,2.41-11.53,10.01-10.8,17.6c0.67,6.88,5.24,12.49,11.84,15.53c4.48,2.06,8.99,0.11,13.25,1.68
		C1440.24,104.11,1440.22,104.36,1440.22,104.61z M1386.46,68.01c-11.39,0.37-18.04,7.33-18.93,17.33
		c-0.76,8.65,8.79,18.52,17.71,18.25c9.71-0.3,18.38-7.01,18.96-16.98C1404.76,76.99,1396.06,68.19,1386.46,68.01z"/>
	<path class="st4" d="M1408.11,123.89c-4.62,0.29-7.19-2.49-9.71-5.41c-1.12-1.3-1.51-2.78-0.26-3.96c1.17-1.1,3.16-1.17,4.15-0.05
		c3.87,4.36,7.4,5.12,11.24-0.01c0.79-1.06,2.59-1.11,3.57-0.01c1.1,1.23,0.94,3.02,0.04,4.22
		C1414.86,121.76,1412.24,124.51,1408.11,123.89z"/>
	<path class="st5" d="M1451.12,91.68c0.11,1.37,0.64,2.08,2.09,1.29c-1.68,6.24-7.27,11.25-12.98,11.65
		c-0.01-0.25,0.02-0.5,0.07-0.75C1443.45,99.4,1448.6,96.71,1451.12,91.68z"/>
	<path class="st8" d="M1451.12,91.68c-2.52,5.03-7.67,7.72-10.83,12.19c-4.25-1.57-8.76,0.38-13.25-1.68
		c-6.6-3.03-11.17-8.65-11.84-15.53c-0.73-7.59,5.06-15.19,10.8-17.6c6.49-2.73,14.69-0.57,19.8,3.99
		C1451.72,78.31,1451.71,84.8,1451.12,91.68z M1421.06,88.49c0.04,5.02,2.65,8.44,6.41,8.41c3.75-0.03,6.75-3.74,6.77-8.37
		c0.03-5.3-2.53-8.58-6.74-8.63C1422.91,79.84,1421.01,82.38,1421.06,88.49z"/>
	<path class="st8" d="M1386.46,68.01c9.61,0.18,18.3,8.98,17.74,18.6c-0.58,9.96-9.26,16.68-18.96,16.98
		c-8.93,0.27-18.48-9.6-17.71-18.25C1368.41,75.34,1375.07,68.38,1386.46,68.01z M1399.37,88.68c0.03-5.68-2.55-8.9-7.05-8.78
		c-3.49,0.09-6.99,4.31-6.88,8.29c0.11,3.99,4.38,9.16,7.52,9.1C1396.4,97.22,1399.35,93.27,1399.37,88.68z"/>
	<path class="st5" d="M1427.2,85.04c2.15,0.23,3.44,1.22,3.61,3.04c0.2,2.12-1.11,3.48-3.14,3.61c-1.83,0.11-3.11-1.11-3.33-2.94
		C1424.09,86.54,1425.69,85.67,1427.2,85.04z"/>
	<path class="st5" d="M1396.07,88.4c-0.34,1.82-1.25,3.21-3.15,3.3c-2.14,0.09-3.47-1.27-3.5-3.32c-0.03-1.79,1.09-3.18,3.03-3.26
		C1394.6,85.04,1395.67,86.43,1396.07,88.4z"/>
</g>
</svg>
