<svg width="648" height="394" viewBox="0 0 648 394" fill="none" xmlns="http://www.w3.org/2000/svg">
<g clip-path="url(#clip0_289_181)">
<path d="M80.3497 106.931C80.3497 108.143 79.3491 109.153 78.1484 109.153C76.9476 109.153 75.947 108.143 75.947 106.931C75.947 105.72 76.9476 104.71 78.1484 104.71C79.4492 104.71 80.3497 105.72 80.3497 106.931Z" stroke="#CDDBFC" stroke-miterlimit="10"/>
<path d="M520.521 140.859C520.521 142.07 519.521 143.08 518.32 143.08C517.119 143.08 516.119 142.07 516.119 140.859C516.119 139.647 517.119 138.637 518.32 138.637C519.521 138.637 520.521 139.647 520.521 140.859Z" stroke="#CDDBFC" stroke-miterlimit="10"/>
<path d="M587.863 169.636C587.863 170.848 586.863 171.857 585.662 171.857C584.461 171.857 583.46 170.848 583.46 169.636C583.46 168.424 584.461 167.415 585.662 167.415C586.863 167.314 587.863 168.323 587.863 169.636Z" stroke="#CDDBFC" stroke-miterlimit="10"/>
<path d="M316.996 46.347C316.996 47.5587 315.995 48.5684 314.795 48.5684C313.594 48.5684 312.593 47.5587 312.593 46.347C312.593 45.1353 313.594 44.1256 314.795 44.1256C315.995 44.1256 316.996 45.1353 316.996 46.347Z" stroke="#CDDBFC" stroke-miterlimit="10"/>
<path d="M369.929 140.152V147.119" stroke="#CDDBFC" stroke-miterlimit="10"/>
<path d="M373.331 143.686H366.427" stroke="#CDDBFC" stroke-miterlimit="10"/>
<path d="M625.086 196.798V203.765" stroke="#CDDBFC" stroke-miterlimit="10"/>
<path d="M628.588 200.231H621.684" stroke="#CDDBFC" stroke-miterlimit="10"/>
<path d="M568.251 64.2194V71.1866" stroke="#CDDBFC" stroke-miterlimit="10"/>
<path d="M571.753 67.6525H564.849" stroke="#CDDBFC" stroke-miterlimit="10"/>
<path d="M102.864 54.021V60.9882" stroke="#CDDBFC" stroke-miterlimit="10"/>
<path d="M106.266 57.4541H99.3616" stroke="#CDDBFC" stroke-miterlimit="10"/>
<path d="M78.1484 202.251V209.218" stroke="#CDDBFC" stroke-miterlimit="10"/>
<path d="M81.6506 205.785H74.7463" stroke="#CDDBFC" stroke-miterlimit="10"/>
<path d="M278.772 15.449V22.4162" stroke="#CDDBFC" stroke-miterlimit="10"/>
<path d="M282.174 18.8821H275.27" stroke="#CDDBFC" stroke-miterlimit="10"/>
<path d="M84.6524 166.203H15.6098C14.4091 166.203 13.4084 165.193 13.4084 163.982C13.4084 162.77 14.4091 161.76 15.6098 161.76H84.7525C85.9532 161.76 86.9539 162.77 86.9539 163.982C86.8538 165.193 85.8532 166.203 84.6524 166.203Z" stroke="#CDDBFC" stroke-miterlimit="10"/>
<path d="M615.88 101.58H546.738C545.537 101.58 544.536 100.57 544.536 99.3583C544.536 98.1466 545.537 97.1368 546.738 97.1368H615.88C617.081 97.1368 618.082 98.1466 618.082 99.3583C618.082 100.57 617.081 101.58 615.88 101.58Z" stroke="#CDDBFC" stroke-miterlimit="10"/>
<path d="M635.693 113.394H610.177C609.576 113.394 609.076 112.889 609.076 112.283C609.076 111.677 609.576 111.172 610.177 111.172H635.693C636.293 111.172 636.793 111.677 636.793 112.283C636.793 112.889 636.293 113.394 635.693 113.394Z" fill="#CDDBFC"/>
<path d="M228.842 105.215H203.326C202.725 105.215 202.225 104.71 202.225 104.104C202.225 103.498 202.725 102.993 203.326 102.993H228.842C229.442 102.993 229.942 103.498 229.942 104.104C229.942 104.71 229.442 105.215 228.842 105.215Z" fill="#CDDBFC"/>
<path d="M55.0341 148.835H35.5221C34.9217 148.835 34.4214 148.331 34.4214 147.725C34.4214 147.119 34.9217 146.614 35.5221 146.614H55.0341C55.6345 146.614 56.1348 147.119 56.1348 147.725C56.1348 148.331 55.6345 148.835 55.0341 148.835Z" fill="#CDDBFC"/>
<path d="M287.678 109.052C287.678 100.873 294.282 94.2086 302.387 94.2086C310.492 94.2086 317.096 100.873 317.096 109.052C317.096 112.283 316.095 115.312 314.294 117.736C312.193 120.967 306.79 124.501 306.79 126.722V129.146C306.79 129.65 306.389 130.054 305.889 130.054H303.487H301.286H298.885C298.384 130.054 297.984 129.65 297.984 129.146V126.722C297.984 124.602 292.581 120.967 290.479 117.736C288.678 115.413 287.678 112.384 287.678 109.052Z" fill="white" stroke="#CDDBFC" stroke-miterlimit="10"/>
<path d="M303.988 129.852C303.988 129.449 303.688 123.491 304.188 118.341C303.588 118.442 302.987 118.442 302.287 118.442C301.586 118.442 300.986 118.442 300.386 118.341C300.886 123.592 300.586 129.549 300.586 129.852H300.286C300.286 129.751 300.586 123.592 300.085 118.341C295.683 117.736 293.782 115.211 293.481 112.889C293.281 111.475 293.782 110.162 294.582 109.658C295.082 109.355 295.683 109.254 296.383 109.456C297.384 109.759 298.384 110.667 298.985 111.879C299.685 113.293 300.085 115.615 300.386 118.139C300.986 118.24 301.586 118.24 302.287 118.24C302.987 118.24 303.588 118.24 304.188 118.139C304.388 115.615 304.888 113.293 305.589 111.879C306.189 110.667 307.19 109.759 308.19 109.456C308.891 109.254 309.491 109.355 309.992 109.658C310.792 110.162 311.292 111.576 311.092 112.889C310.792 115.211 308.791 117.736 304.488 118.341C303.988 123.693 304.288 129.852 304.288 129.852H303.988ZM308.991 109.557C308.791 109.557 308.591 109.557 308.291 109.658C307.29 109.961 306.389 110.768 305.789 111.98C305.089 113.293 304.688 115.615 304.488 118.038C308.691 117.433 310.492 115.009 310.892 112.788C311.092 111.576 310.692 110.263 309.892 109.759C309.591 109.658 309.291 109.557 308.991 109.557ZM295.783 109.557C295.483 109.557 295.082 109.658 294.882 109.759C294.182 110.162 293.682 111.475 293.882 112.788C294.182 115.009 296.083 117.433 300.286 118.038C300.085 115.615 299.685 113.293 298.985 111.98C298.384 110.869 297.484 109.961 296.483 109.658C296.183 109.557 295.983 109.557 295.783 109.557Z" fill="white" stroke="#CDDBFC" stroke-miterlimit="10"/>
<path d="M306.99 127.833H297.684V132.377C297.684 133.084 297.884 133.79 298.284 134.497C298.985 135.709 300.285 136.416 301.686 136.416H303.087C304.488 136.416 305.789 135.709 306.489 134.497C306.89 133.891 307.09 133.185 307.09 132.377V127.833H306.99Z" fill="white" stroke="#CDDBFC" stroke-miterlimit="10"/>
<path d="M302.287 82.4956V89.8667" stroke="#CDDBFC" stroke-miterlimit="10"/>
<path d="M315.995 87.0395L310.792 92.2901" stroke="#CDDBFC" stroke-miterlimit="10"/>
<path d="M288.778 87.4434L293.982 92.694" stroke="#CDDBFC" stroke-miterlimit="10"/>
<path d="M401.248 128.742H418.659C425.863 128.742 431.667 134.598 431.667 141.868C431.667 147.22 428.465 151.865 423.862 153.884L425.563 158.731L419.159 154.995C418.959 154.995 418.759 154.995 418.558 154.995H401.248C394.043 154.995 388.24 149.138 388.24 141.868C388.24 134.598 394.043 128.742 401.248 128.742Z" fill="white" stroke="#CDDBFC" stroke-miterlimit="10"/>
<path d="M398.546 147.422L407.352 139.95L412.155 144.09L421.06 135.103" stroke="#CDDBFC" stroke-miterlimit="10"/>
<path d="M416.657 135.103H421.06V139.647" stroke="#CDDBFC" stroke-miterlimit="10"/>
<path d="M230.643 46.347H193.62C183.714 46.347 175.609 54.5259 175.609 64.5223C175.609 71.9944 180.011 78.3557 186.415 81.183L184.014 87.8473L192.919 82.5966C193.22 82.5966 193.42 82.5966 193.72 82.5966H230.743C240.649 82.5966 248.754 74.4177 248.754 64.4213C248.654 54.4249 240.549 46.347 230.643 46.347Z" fill="white" stroke="#CDDBFC" stroke-miterlimit="10"/>
<path d="M198.223 74.5187C203.804 74.5187 208.329 69.9527 208.329 64.3203C208.329 58.6879 203.804 54.122 198.223 54.122C192.641 54.122 188.116 58.6879 188.116 64.3203C188.116 69.9527 192.641 74.5187 198.223 74.5187Z" fill="white" stroke="#CDDBFC" stroke-miterlimit="10"/>
<path d="M198.223 70.8836C201.815 70.8836 204.727 67.9451 204.727 64.3203C204.727 60.6955 201.815 57.757 198.223 57.757C194.631 57.757 191.719 60.6955 191.719 64.3203C191.719 67.9451 194.631 70.8836 198.223 70.8836Z" fill="#F0F2FC"/>
<path d="M194.02 69.2681C195.121 70.2778 196.622 70.8836 198.323 70.8836C201.925 70.8836 204.827 67.9554 204.827 64.3203C204.827 60.6853 201.925 57.757 198.323 57.757V64.3203L194.02 69.2681Z" fill="#E1E5F9"/>
<path d="M215.533 54.4249H237.046" stroke="#CDDBFC" stroke-miterlimit="10"/>
<path d="M215.533 61.0892H237.046" stroke="#CDDBFC" stroke-miterlimit="10"/>
<path d="M215.533 67.6525H237.046" stroke="#CDDBFC" stroke-miterlimit="10"/>
<path d="M215.533 74.3168H225.139" stroke="#CDDBFC" stroke-miterlimit="10"/>
<path d="M531.328 0.504868H354.719V118.24H531.328V0.504868Z" fill="white" stroke="#CDDBFC" stroke-miterlimit="10"/>
<path d="M473.993 33.0184C464.287 33.0184 467.989 77.8508 458.583 77.8508C451.279 77.8508 450.979 50.184 443.174 50.184C435.369 50.184 435.869 61.3921 427.764 61.3921C419.659 61.3921 419.659 44.6304 412.855 44.6304C406.451 44.6304 404.25 70.8836 397.045 70.8836C389.841 70.8836 387.84 61.4931 381.636 62.3009C370.429 63.7145 366.226 84.4141 366.226 84.4141H489.302V53.5161C480.397 53.5161 480.997 33.0184 473.993 33.0184Z" fill="url(#paint0_linear_289_181)"/>
<path d="M366.326 84.3132C366.326 84.3132 370.529 63.5126 381.736 62.1999C387.94 61.3921 389.841 70.7827 397.145 70.7827C404.35 70.7827 406.551 44.5295 412.955 44.5295C419.759 44.5295 419.759 61.2911 427.864 61.2911C435.969 61.2911 435.469 50.083 443.274 50.083C451.079 50.083 451.279 77.7499 458.683 77.7499C467.989 77.7499 464.387 32.9175 474.093 32.9175C481.097 32.9175 480.497 53.3142 489.502 53.3142" stroke="#CDDBFC" stroke-width="0.5" stroke-miterlimit="10"/>
<path d="M366.326 24.3347V84.3132H497.207" stroke="#CDDBFC" stroke-width="0.5" stroke-miterlimit="10"/>
<path d="M381.736 24.3347V84.3132" stroke="#CDDBFC" stroke-width="0.5" stroke-miterlimit="10"/>
<path d="M397.045 24.3347V84.3132" stroke="#CDDBFC" stroke-width="0.5" stroke-miterlimit="10"/>
<path d="M412.455 24.3347V84.3132" stroke="#CDDBFC" stroke-width="0.5" stroke-miterlimit="10"/>
<path d="M427.864 24.3347V84.3132" stroke="#CDDBFC" stroke-width="0.5" stroke-miterlimit="10"/>
<path d="M443.174 24.3347V84.3132" stroke="#CDDBFC" stroke-width="0.5" stroke-miterlimit="10"/>
<path d="M458.583 24.3347V84.3132" stroke="#CDDBFC" stroke-width="0.5" stroke-miterlimit="10"/>
<path d="M473.993 24.3347V84.3132" stroke="#CDDBFC" stroke-width="0.5" stroke-miterlimit="10"/>
<path d="M489.302 24.3347V84.3132" stroke="#CDDBFC" stroke-width="0.5" stroke-miterlimit="10"/>
<path d="M383.037 62.1999C383.037 63.0077 382.436 63.6135 381.636 63.6135C380.835 63.6135 380.235 63.0077 380.235 62.1999C380.235 61.3921 380.835 60.7863 381.636 60.7863C382.436 60.8872 383.037 61.4931 383.037 62.1999Z" fill="#CDDBFC"/>
<path d="M381.736 62.1999L385.338 53.8191H390.741" stroke="#CDDBFC" stroke-width="0.5" stroke-miterlimit="10"/>
<path d="M393.343 47.5587H385.338V48.3665H393.343V47.5587Z" fill="#EEEDF2"/>
<path d="M393.343 49.2752H385.338V50.083H393.343V49.2752Z" fill="#EEEDF2"/>
<path d="M391.742 51.0928H385.338V51.9006H391.742V51.0928Z" fill="#EEEDF2"/>
<path d="M444.575 50.6889C444.575 51.4967 443.974 52.1025 443.174 52.1025C442.373 52.1025 441.773 51.4967 441.773 50.6889C441.773 49.8811 442.373 49.2752 443.174 49.2752C443.974 49.2752 444.575 49.8811 444.575 50.6889Z" fill="#CDDBFC"/>
<path d="M443.174 50.6889L446.776 42.308H452.279" stroke="#CDDBFC" stroke-width="0.5" stroke-miterlimit="10"/>
<path d="M454.781 36.0477H446.776V36.8555H454.781V36.0477Z" fill="#EEEDF2"/>
<path d="M454.781 37.7642H446.776V38.572H454.781V37.7642Z" fill="#EEEDF2"/>
<path d="M453.18 39.4808H446.776V40.2886H453.18V39.4808Z" fill="#EEEDF2"/>
<path d="M475.293 33.0184C475.293 33.8262 474.693 34.4321 473.893 34.4321C473.092 34.4321 472.492 33.8262 472.492 33.0184C472.492 32.2107 473.092 31.6048 473.893 31.6048C474.693 31.7058 475.293 32.3116 475.293 33.0184Z" fill="#CDDBFC"/>
<path d="M473.993 33.0185L477.595 24.7386H483.098" stroke="#CDDBFC" stroke-width="0.5" stroke-miterlimit="10"/>
<path d="M485.6 18.3772H477.595V19.185H485.6V18.3772Z" fill="#EEEDF2"/>
<path d="M485.6 20.1948H477.595V21.0026H485.6V20.1948Z" fill="#EEEDF2"/>
<path d="M483.999 21.9113H477.595V22.7191H483.999V21.9113Z" fill="#EEEDF2"/>
<path d="M366.25 110.058L427.388 110.058V92.3873H366.25V110.058Z" fill="#E8EBF9"/>
<path d="M406.251 105.114H369.929" stroke="url(#paint1_linear_289_181)" stroke-miterlimit="10"/>
<path d="M423.762 101.176H369.929" stroke="url(#paint2_linear_289_181)" stroke-miterlimit="10"/>
<path d="M423.762 97.2378H369.929" stroke="url(#paint3_linear_289_181)" stroke-miterlimit="10"/>
<path d="M402.048 8.27986H483.999C484.9 8.27986 485.7 9.08765 485.7 9.99642C485.7 10.9052 484.9 11.713 483.999 11.713H402.048C401.148 11.713 400.347 10.9052 400.347 9.99642C400.347 9.08765 401.148 8.27986 402.048 8.27986Z" fill="#E1E5F9"/>
<path d="M502.311 23.7289H510.416V28.0708H502.311V23.7289Z" fill="url(#paint4_linear_289_181)"/>
<path d="M521.222 23.6279H513.117V24.4357H521.222V23.6279Z" fill="#EEEDF2"/>
<path d="M521.222 25.4454H513.117V26.2532H521.222V25.4454Z" fill="#EEEDF2"/>
<path d="M519.621 27.162H513.117V27.9698H519.621V27.162Z" fill="#EEEDF2"/>
<path d="M502.311 33.3214H510.416V37.5623H502.311V33.3214Z" fill="url(#paint5_linear_289_181)"/>
<path d="M521.222 33.2204H513.117V34.0282H521.222V33.2204Z" fill="#EEEDF2"/>
<path d="M521.222 35.0379H513.117V35.8457H521.222V35.0379Z" fill="#EEEDF2"/>
<path d="M519.621 36.7545H513.117V37.5623H519.621V36.7545Z" fill="#EEEDF2"/>
<path d="M502.311 54.9298H526.125M502.311 57.858H526.125M513.117 60.7863H502.311M526.225 60.7863H515.419M526.225 63.7145H502.311M502.311 66.7437H526.125M519.621 69.672H502.311M520.822 69.672H526.225M502.311 72.6002H526.125M526.225 75.5284H502.311M508.314 78.4567H502.311M510.416 78.4567H526.225M502.311 81.3849H526.125M515.819 84.3132H502.311M516.92 84.3132H526.125" stroke="url(#paint6_linear_289_181)" stroke-miterlimit="10"/>
<path d="M502.311 42.9139H510.416V47.1548H502.311V42.9139Z" fill="url(#paint7_linear_289_181)"/>
<path d="M521.222 42.8129H513.117V43.6207H521.222V42.8129Z" fill="#EEEDF2"/>
<path d="M521.222 44.5295H513.117V45.3373H521.222V44.5295Z" fill="#EEEDF2"/>
<path d="M519.621 46.347H513.117V47.1548H519.621V46.347Z" fill="#EEEDF2"/>
<path d="M450.529 109.509C455.026 107.641 457.171 102.448 455.32 97.9102C453.469 93.3723 448.323 91.2077 443.826 93.0755C439.33 94.9433 437.185 100.136 439.035 104.674C440.886 109.212 446.032 111.376 450.529 109.509Z" fill="white" stroke="#CDDBFC" stroke-miterlimit="10"/>
<path d="M452.88 101.277C452.88 104.407 450.378 107.032 447.176 107.032C443.974 107.032 441.473 104.508 441.473 101.277C441.473 98.1466 443.974 95.5213 447.176 95.5213C450.378 95.5213 452.88 98.0456 452.88 101.277Z" fill="#F0F2FC"/>
<path d="M452.079 104.104C452.58 103.296 452.88 102.287 452.88 101.277C452.88 98.1466 450.378 95.5213 447.176 95.5213V101.277L452.079 104.104Z" fill="#E1E5F9"/>
<path d="M480.77 103.296C481.891 98.5208 478.965 93.7325 474.233 92.6008C469.501 91.4692 464.756 94.4227 463.635 99.1976C462.513 103.973 465.44 108.761 470.172 109.892C474.904 111.024 479.648 108.071 480.77 103.296Z" fill="white" stroke="#CDDBFC" stroke-miterlimit="10"/>
<path d="M477.895 101.277C477.895 104.407 475.394 107.032 472.192 107.032C469.09 107.032 466.488 104.508 466.488 101.277C466.488 98.1466 468.99 95.5213 472.192 95.5213C475.294 95.5213 477.895 98.0456 477.895 101.277Z" fill="#F0F2FC"/>
<path d="M468.49 105.518C469.49 106.426 470.791 106.931 472.192 106.931C475.294 106.931 477.896 104.407 477.896 101.176C477.896 98.0456 475.394 95.4203 472.192 95.4203V101.176L468.49 105.518Z" fill="#E1E5F9"/>
<path d="M500.554 109.488C505.051 107.62 507.196 102.427 505.345 97.8891C503.494 93.3512 498.348 91.1866 493.851 93.0544C489.354 94.9222 487.209 100.115 489.06 104.653C490.911 109.191 496.057 111.355 500.554 109.488Z" fill="white" stroke="#CDDBFC" stroke-miterlimit="10"/>
<path d="M502.81 101.277C502.81 104.407 500.309 107.032 497.107 107.032C493.905 107.032 491.403 104.508 491.403 101.277C491.403 98.1466 493.905 95.5213 497.107 95.5213C500.309 95.5213 502.81 98.0456 502.81 101.277Z" fill="#F0F2FC"/>
<path d="M501.31 97.3388C500.309 96.2281 498.808 95.5213 497.107 95.5213V101.277L501.31 97.3388Z" fill="#E1E5F9"/>
<path d="M27.7173 393.495H628.288" stroke="#93A5F9" stroke-miterlimit="10"/>
<path d="M150.293 344.725L150.893 378.147L150.593 389.153L193.219 388.951C194.22 388.951 195.121 388.042 195.121 387.033C195.121 386.225 194.62 385.518 193.92 385.215L175.509 376.733L176.609 341.897" fill="#FFDAC5"/>
<path d="M196.922 388.446C196.522 387.033 195.721 385.518 194.921 385.215L175.408 376.733C164.702 381.176 150.793 377.743 150.793 377.743L148.292 392.586C148.292 393.091 148.692 393.495 149.192 393.495H196.622C197.522 393.495 196.922 388.547 196.922 388.446Z" fill="#E2405B"/>
<path d="M179.611 377.642C178.51 379.056 177.61 380.671 176.909 382.287" stroke="#AA3047" stroke-width="0.75" stroke-miterlimit="10"/>
<path d="M182.113 379.056C181.012 380.671 180.512 381.58 179.811 382.994" stroke="#AA3047" stroke-width="0.75" stroke-miterlimit="10"/>
<path d="M184.114 380.167C183.313 381.176 182.613 382.691 182.012 383.802" stroke="#AA3047" stroke-width="0.75" stroke-miterlimit="10"/>
<path d="M148.492 390.264L197.122 390.062" stroke="#AA3047" stroke-width="0.75" stroke-miterlimit="10"/>
<path d="M149.893 382.994C149.893 382.994 161.3 383.196 162.3 390.163" stroke="#AA3047" stroke-width="0.75" stroke-miterlimit="10"/>
<path d="M190.918 383.499C190.918 383.499 187.816 388.042 187.116 390.062" stroke="#AA3047" stroke-width="0.75" stroke-miterlimit="10"/>
<path d="M141.187 205.684C141.187 205.684 137.085 219.921 140.587 244.559C142.388 260.008 146.591 371.685 146.591 371.685H180.512C180.512 371.685 177.21 253.242 171.606 200.332" fill="#423EAC"/>
<path d="M146.49 363.607H180.311" stroke="#6E75F4" stroke-width="0.75" stroke-miterlimit="10"/>
<path d="M150.993 371.18C150.993 371.18 148.892 320.188 146.691 292.622" stroke="#6E75F4" stroke-width="0.75" stroke-miterlimit="10"/>
<path d="M113.27 344.725L113.87 378.147L113.57 389.153L156.197 388.951C157.197 388.951 158.098 388.042 158.098 387.033C158.098 386.225 157.597 385.518 156.897 385.215L138.486 376.733L139.586 341.897" fill="#FFDAC5"/>
<path d="M159.899 388.446C159.499 387.033 158.698 385.518 157.898 385.215L138.386 376.733C127.679 381.176 113.77 377.743 113.77 377.743L111.269 392.586C111.269 393.091 111.669 393.495 112.169 393.495H159.599C160.499 393.495 159.899 388.547 159.899 388.446Z" fill="#FF6675"/>
<path d="M142.588 377.642C141.487 379.056 140.587 380.671 139.886 382.287" stroke="#C93F53" stroke-width="0.75" stroke-miterlimit="10"/>
<path d="M145.09 379.056C143.989 380.671 143.489 381.58 142.788 382.994" stroke="#C93F53" stroke-width="0.75" stroke-miterlimit="10"/>
<path d="M147.091 380.167C146.29 381.176 145.59 382.691 144.99 383.802" stroke="#C93F53" stroke-width="0.75" stroke-miterlimit="10"/>
<path d="M111.469 390.264L160.099 390.062" stroke="#C93F53" stroke-width="0.75" stroke-miterlimit="10"/>
<path d="M112.87 382.994C112.87 382.994 124.277 383.196 125.278 390.163" stroke="#C93F53" stroke-width="0.75" stroke-miterlimit="10"/>
<path d="M153.895 383.499C153.895 383.499 150.793 388.042 150.093 390.062" stroke="#C93F53" stroke-width="0.75" stroke-miterlimit="10"/>
<path d="M107.166 205.684C107.166 205.684 103.064 219.921 106.566 244.559C108.367 260.008 106.566 371.685 106.566 371.685H144.489C144.489 371.685 148.692 244.862 147.291 200.332" fill="#423EAC"/>
<path d="M113.17 205.684C113.17 205.684 109.067 219.921 112.57 244.559C114.371 260.008 112.57 371.685 112.57 371.685" stroke="#6E75F4" stroke-width="0.75" stroke-miterlimit="10"/>
<path d="M145.29 345.129C146.39 305.446 148.292 232.038 147.291 200.332" stroke="#6E75F4" stroke-width="0.75" stroke-miterlimit="10"/>
<path d="M111.669 214.569C111.669 214.569 122.676 212.954 126.378 203.361" stroke="#6E75F4" stroke-width="0.75" stroke-miterlimit="10"/>
<path d="M147.591 220.224C147.591 220.224 150.293 220.022 150.793 219.214C151.194 218.406 150.793 202.15 150.793 202.15" stroke="#6E75F4" stroke-width="0.75" stroke-miterlimit="10"/>
<path d="M162.4 203.361C162.4 203.361 164.101 214.569 173.007 214.569" stroke="#6E75F4" stroke-width="0.75" stroke-miterlimit="10"/>
<path d="M106.666 363.607H144.79" stroke="#6E75F4" stroke-width="0.75" stroke-miterlimit="10"/>
<path d="M164.902 131.367C170.105 146.614 173.307 188.821 173.607 205.583H106.566C106.566 205.583 103.564 157.721 110.669 132.276L130.481 114.504L146.791 115.312L164.902 131.367Z" fill="#93A5F9"/>
<path d="M98.7612 148.835C98.7612 148.835 99.2615 185.085 110.769 185.085C123.877 185.085 155.096 163.881 155.096 163.881L158.498 163.982L158.098 154.591C158.098 154.591 155.696 153.682 150.693 153.985C145.69 154.288 123.877 160.246 123.877 160.246L123.076 144.09" fill="#FFDAC5"/>
<path d="M177.21 142.373C177.21 142.373 184.014 182.157 171.606 183.066C151.394 184.58 122.476 170.242 122.476 170.242L127.479 162.871L158.498 163.982L157.397 140.859" fill="#FFDAC5"/>
<path d="M135.584 175.493L154.996 163.881L158.498 163.982L157.898 151.158" stroke="#F2A486" stroke-width="0.75" stroke-miterlimit="10" stroke-linejoin="round"/>
<path d="M130.481 114.605C130.481 114.605 108.467 113.192 100.862 127.025C94.5586 138.637 98.7612 158.428 98.7612 158.428L124.477 154.793L124.377 134.396" fill="#93A5F9"/>
<path d="M146.891 115.413C146.891 115.413 161.9 114.504 170.005 122.885C178.01 131.266 178.811 151.158 178.811 151.158H155.096L153.795 133.286" fill="#93A5F9"/>
<path d="M124.577 150.855L98.1609 154.086" stroke="#1D4893" stroke-width="0.75" stroke-miterlimit="10"/>
<path d="M156.697 147.22L178.41 146.917" stroke="#1D4893" stroke-width="0.75" stroke-miterlimit="10"/>
<path d="M124.577 154.793V137.728" stroke="#1D4893" stroke-width="0.75" stroke-miterlimit="10"/>
<path d="M155.396 136.517L157.197 151.158" stroke="#1D4893" stroke-width="0.75" stroke-miterlimit="10"/>
<path d="M154.796 85.02C154.796 85.02 156.497 101.883 151.394 107.133C148.792 109.86 142.188 109.254 139.086 106.426C136.785 104.407 133.583 92.2901 134.984 90.0687C140.387 81.6878 154.796 85.02 154.796 85.02Z" fill="#FFDAC5"/>
<path d="M131.281 104.104L129.48 114.605C129.48 114.605 138.886 122.38 146.791 115.413L147.491 104.407L139.386 100.166L131.281 104.104Z" fill="#FFDAC5"/>
<path d="M156.497 84.7171C155.596 82.4956 153.695 80.8801 149.492 80.4762C141.087 75.0236 130.881 79.9713 129.38 89.4628C128.68 93.8047 129.08 97.9446 130.481 101.883C130.981 103.195 131.381 104.104 131.381 104.104C131.381 104.104 136.084 103.902 136.484 102.993C137.385 100.974 136.685 98.6515 137.085 96.531L137.185 96.3291C137.285 95.9252 137.485 95.5213 137.785 95.1174C138.386 94.4106 138.986 93.7037 139.486 92.8959C139.786 92.2901 139.987 91.6843 140.287 91.0784C140.887 90.0687 142.088 89.4628 143.289 89.4628C144.189 89.4628 145.09 89.8667 145.99 89.6648C146.791 89.4628 147.491 88.857 148.192 88.5541C151.394 88.756 156.797 91.9872 156.797 91.9872C157.798 89.9677 157.497 86.9385 156.497 84.7171Z" fill="#282872"/>
<path d="M147.091 109.254C141.888 108.648 138.286 106.325 138.286 106.325" stroke="#F2A486" stroke-width="0.75" stroke-miterlimit="10" stroke-linejoin="round"/>
<path d="M149.392 95.3193C149.392 95.3193 150.993 99.6612 150.493 100.671C149.993 101.681 147.491 101.277 147.491 101.277" stroke="#F2A486" stroke-width="0.75" stroke-miterlimit="10" stroke-linejoin="round"/>
<path d="M150.093 102.791L143.189 102.186C143.189 102.186 143.689 106.023 147.491 106.023C150.193 106.124 150.093 102.791 150.093 102.791Z" fill="white"/>
<path d="M151.694 94.8145C151.694 95.0164 151.694 95.1174 151.694 95.3193C151.694 95.5213 151.694 95.6222 151.694 95.8242C151.694 95.9252 151.694 96.0261 151.794 96.1271C151.894 96.2281 151.994 96.2281 152.094 96.2281C152.294 96.2281 152.494 96.0261 152.494 95.8242C152.494 95.6222 152.494 95.5213 152.494 95.3193C152.494 95.1174 152.494 94.9154 152.394 94.8145C152.394 94.7135 152.294 94.6125 152.194 94.6125C152.094 94.6125 152.094 94.5115 151.994 94.6125C151.794 94.5115 151.694 94.7135 151.694 94.8145Z" fill="#00276F"/>
<path d="M151.094 92.8959C151.094 92.8959 152.394 91.6843 153.695 93.1989" stroke="#00276F" stroke-width="0.5" stroke-miterlimit="10" stroke-linecap="round" stroke-linejoin="round"/>
<path d="M144.589 94.9154C144.589 95.1174 144.589 95.2183 144.589 95.4203C144.589 95.6222 144.589 95.7232 144.589 95.9252C144.589 96.0261 144.589 96.1271 144.689 96.2281C144.789 96.329 144.89 96.329 144.99 96.329C145.19 96.329 145.39 96.1271 145.39 95.9252C145.39 95.7232 145.39 95.6222 145.39 95.4203C145.39 95.2183 145.39 95.1174 145.39 94.9154C145.39 94.8144 145.39 94.7135 145.29 94.7135C145.19 94.6125 145.09 94.6125 145.09 94.6125C144.99 94.6125 144.89 94.6125 144.89 94.7135C144.89 94.7135 144.89 94.7135 144.789 94.8144C144.589 94.7135 144.589 94.8144 144.589 94.9154Z" fill="#00276F"/>
<path d="M146.19 92.2901C146.19 92.2901 144.689 91.3813 142.488 92.8959" stroke="#00276F" stroke-width="0.5" stroke-miterlimit="10" stroke-linecap="round" stroke-linejoin="round"/>
<path d="M137.885 97.6417C136.485 95.1174 135.084 95.3193 134.183 96.43C132.982 98.0456 134.383 101.782 135.284 102.488C136.985 104.003 138.586 104.003 138.986 102.387" fill="#FFDAC5"/>
<path d="M474.994 301.407L492.604 393.495" stroke="#3D4FB7" stroke-miterlimit="10"/>
<path d="M437.27 301.407L419.659 393.495" stroke="#3D4FB7" stroke-miterlimit="10"/>
<path d="M457.083 301.407L461.886 393.495" stroke="#3D4FB7" stroke-miterlimit="10"/>
<path d="M461.885 161.558C550.14 161.558 527.426 303.224 489.602 303.224C451.779 303.224 403.149 303.224 403.149 303.224C391.442 303.224 388.04 288.28 400.247 288.28C412.455 288.28 421.861 288.28 421.861 288.28C421.861 288.28 397.446 161.558 461.885 161.558Z" fill="#E8EEFE"/>
<path d="M480.697 291.31C442.874 291.31 394.244 291.31 394.244 291.31C393.943 291.31 393.643 291.31 393.443 291.31C394.544 289.593 396.745 288.28 400.247 288.28C412.455 288.28 421.861 288.28 421.861 288.28C421.861 288.28 400.447 177.007 450.678 162.972C451.379 162.972 452.179 162.871 452.98 162.871C541.234 162.972 518.42 291.31 480.697 291.31Z" fill="#CDDBFC"/>
<path d="M392.342 309.283L398.246 374.108L418.158 371.887L416.557 307.162" fill="#FFDAC5"/>
<path d="M397.946 370.978L381.936 387.841C381.936 387.841 419.659 380.772 420.56 379.46C421.46 378.147 417.558 370.978 417.558 370.978L402.148 367.747L397.946 370.978Z" fill="#FFDAC5"/>
<path d="M415.256 380.368L419.359 374.411L418.158 371.887L411.854 380.974L408.152 381.681L391.042 377.945L377.233 390.062C375.732 391.375 377.033 393.798 378.934 393.495L402.048 389.052L407.352 383.6L409.053 383.297L409.853 387.538L422.361 385.114L421.26 379.157L415.256 380.368Z" fill="#212237"/>
<path d="M432.567 308.172L447.176 371.584L466.688 366.636L456.282 302.72" fill="#FFDAC5"/>
<path d="M446.476 368.555L432.967 387.437C432.967 387.437 469.39 375.219 470.09 373.805C470.791 372.392 465.988 365.828 465.988 365.828L450.278 364.819L446.476 368.555Z" fill="#FFDAC5"/>
<path d="M464.887 375.32L468.189 368.857L466.688 366.535L461.685 376.431L458.083 377.642L440.672 376.33L428.665 390.163C427.364 391.678 428.965 393.899 430.766 393.293L453.08 385.72L457.583 379.561L459.284 378.955L460.685 383.095L472.692 379.056L470.791 373.3L464.887 375.32Z" fill="#212237"/>
<path d="M445.375 205.785C445.375 205.785 432.367 229.816 420.86 226.787C409.353 223.758 394.243 185.489 394.243 185.489L407.652 179.632C407.652 179.632 420.76 199.625 422.961 199.726C425.163 199.827 430.466 188.013 430.466 188.013" fill="#FFDAC5"/>
<path d="M409.953 183.167C409.953 183.167 399.647 167.314 398.846 167.314C397.946 167.314 399.447 170.343 398.746 170.242C398.046 170.141 394.644 163.376 393.843 163.578C392.642 163.881 395.945 169.838 395.945 169.838C395.945 169.838 395.044 168.727 394.043 169.232C393.343 169.636 393.943 171.454 393.943 171.454C393.943 171.454 392.943 170.747 392.242 171.151C391.542 171.555 392.142 173.17 392.142 173.17C392.142 173.17 391.242 171.857 390.441 172.867C389.741 173.776 392.843 182.46 396.945 191.547" fill="#FFDAC5"/>
<path d="M399.447 171.656C399.447 171.656 399.647 174.887 400.447 177.512" stroke="#F2A486" stroke-width="0.75" stroke-miterlimit="10" stroke-linejoin="round"/>
<path d="M493.705 182.258C499.709 193.062 497.507 249.405 497.507 249.405H438.571L438.171 216.286C435.969 211.035 433.668 205.28 434.068 201.14C434.969 190.033 445.675 182.258 445.675 182.258L458.383 168.121L471.992 168.727L493.705 182.258Z" fill="#6576EA"/>
<path d="M491.003 203.866C491.003 203.866 506.513 220.83 518.32 220.83C530.128 220.83 554.443 187.609 554.443 187.609L542.935 178.522C542.935 178.522 521.722 197.808 519.521 197.303C517.42 196.798 505.412 186.802 505.412 186.802" fill="#FFDAC5"/>
<path d="M471.992 168.828C471.992 168.828 486.601 168.021 493.605 173.069C499.509 177.31 511.216 190.841 511.216 190.841L493.605 209.218L479.897 195.788" fill="#6576EA"/>
<path d="M458.383 168.121C458.383 168.121 447.176 167.516 439.972 172.867C433.368 177.815 425.062 197 425.062 197L447.676 203.765L454.681 185.893" fill="#6576EA"/>
<path d="M493.605 209.218L479.896 195.788" stroke="#3B4EA8" stroke-width="0.75" stroke-miterlimit="10"/>
<path d="M443.074 184.58C442.273 184.681 433.167 195.081 434.168 202.251" stroke="#3B4EA8" stroke-width="0.75" stroke-miterlimit="10"/>
<path d="M539.833 181.349C539.833 181.349 553.742 168.626 554.543 168.828C555.343 169.03 553.242 171.656 553.942 171.656C554.643 171.757 559.646 166.001 560.346 166.506C561.447 167.112 556.744 172.059 556.744 172.059C556.744 172.059 562.047 166.809 562.848 167.617C563.348 168.222 558.245 174.18 558.245 174.18C558.245 174.18 562.848 170.343 563.348 170.949C563.848 171.555 559.546 176.3 559.546 176.3C559.546 176.3 563.548 173.17 564.048 173.776C564.549 174.281 556.544 185.085 550.34 192.86" fill="#FFDAC5"/>
<path d="M558.745 177.209C556.844 178.926 552.341 178.421 550.54 180.642" stroke="#F2A486" stroke-width="0.75" stroke-miterlimit="10" stroke-linejoin="round"/>
<path d="M552.941 172.968C552.941 172.968 551.941 175.997 550.54 178.421" stroke="#F2A486" stroke-width="0.75" stroke-miterlimit="10" stroke-linejoin="round"/>
<path d="M390.441 174.887C390.941 175.594 391.442 176.401 391.942 177.108C392.242 177.411 392.542 177.815 392.843 178.118C392.943 178.32 393.143 178.421 393.343 178.522C393.543 178.623 393.643 178.623 393.643 178.623C393.643 178.623 393.743 178.32 393.643 178.118C393.643 177.916 393.543 177.714 393.543 177.512C393.443 177.108 393.243 176.704 393.143 176.3C392.843 175.493 392.442 174.685 392.142 173.877C392.042 173.675 392.142 173.473 392.342 173.473C392.542 173.372 392.643 173.473 392.743 173.574C393.243 174.483 393.643 175.392 394.243 176.199C394.544 176.603 394.744 177.007 395.144 177.411C395.244 177.613 395.444 177.714 395.644 177.815C395.744 177.815 395.744 177.916 395.644 177.815C395.644 177.411 395.544 176.906 395.444 176.502C395.344 175.997 395.244 175.493 395.044 175.089C394.744 174.18 394.444 173.17 394.043 172.261C393.943 172.059 394.043 171.857 394.243 171.857C394.444 171.757 394.644 171.857 394.644 172.059C395.044 172.968 395.544 173.877 395.945 174.786C396.145 175.19 396.445 175.694 396.745 176.098C396.845 176.3 397.045 176.502 397.245 176.603C397.345 176.704 397.445 176.704 397.445 176.704C397.445 176.704 397.445 176.704 397.445 176.603C397.546 176.199 397.445 175.695 397.345 175.19C397.245 174.685 397.145 174.18 397.045 173.675C396.845 172.665 396.545 171.656 396.245 170.646C396.645 171.555 397.045 172.564 397.345 173.574C397.546 174.079 397.646 174.584 397.746 175.089C397.846 175.594 398.046 176.098 397.946 176.704C397.946 176.805 397.846 177.108 397.546 177.209C397.245 177.209 397.145 177.108 397.045 177.007C396.845 176.805 396.645 176.603 396.445 176.401C396.145 175.997 395.844 175.493 395.544 175.089C395.044 174.18 394.544 173.271 394.143 172.261L394.744 171.958C395.144 172.867 395.444 173.877 395.744 174.887C395.945 175.392 396.045 175.896 396.145 176.401C396.245 176.906 396.345 177.411 396.345 178.017C396.345 178.118 396.245 178.421 395.945 178.623C395.644 178.724 395.344 178.623 395.244 178.522C394.944 178.32 394.744 178.118 394.644 177.916C394.344 177.512 394.043 177.108 393.743 176.603C393.243 175.694 392.743 174.786 392.242 173.877L392.843 173.574C393.243 174.382 393.543 175.291 393.843 176.098C393.943 176.502 394.143 177.007 394.243 177.411C394.243 177.613 394.344 177.916 394.344 178.118C394.344 178.32 394.444 178.623 394.143 178.926C393.943 179.128 393.743 179.027 393.643 179.027C393.543 179.027 393.343 178.926 393.343 178.825C393.143 178.724 392.943 178.522 392.843 178.32C392.542 178.017 392.242 177.613 392.042 177.209C391.242 176.502 390.841 175.695 390.441 174.887Z" fill="#F2A486"/>
<path d="M456.282 137.425C453.78 141.767 449.578 153.682 448.877 160.347C448.877 160.75 455.782 161.659 456.482 161.76C457.683 161.861 460.785 162.164 461.986 161.962C463.086 161.76 461.885 159.842 462.086 158.832C462.786 154.894 465.087 141.363 465.288 137.324" fill="#FF7383"/>
<path d="M458.783 136.416C458.783 136.416 451.479 151.259 454.581 157.721C456.882 162.366 462.786 162.972 466.588 161.457C469.39 160.245 476.194 150.047 475.594 147.624C473.092 137.93 458.783 136.416 458.783 136.416Z" fill="#FFDAC5"/>
<path d="M471.792 157.721L473.192 168.323C473.192 168.323 466.188 174.887 458.383 168.121L459.684 157.317L471.792 157.721Z" fill="#FFDAC5"/>
<path d="M467.389 163.982C472.792 163.477 476.495 162.669 481.197 160.75C481.598 157.216 481.798 146.412 479.496 140.859C478.396 138.031 476.394 135.305 473.593 134.194C470.491 132.983 467.489 132.983 464.187 133.891C460.585 131.468 453.981 132.579 453.08 139.95C458.684 139.344 462.586 140.051 468.189 140.96C468.189 143.484 468.49 146.109 468.89 148.634C469.29 150.653 469.09 160.851 467.389 163.982Z" fill="#FF6675"/>
<path d="M459.184 161.962C464.887 162.568 467.289 160.044 467.289 160.044" stroke="#F2A486" stroke-width="0.75" stroke-miterlimit="10" stroke-linejoin="round"/>
<path d="M459.784 147.422C459.784 147.422 456.983 150.956 457.083 151.966C457.183 153.076 459.684 153.48 459.684 153.48" stroke="#F2A486" stroke-width="0.75" stroke-miterlimit="10" stroke-linejoin="round"/>
<path d="M456.582 154.389L463.186 156.106C463.186 156.106 461.485 159.438 457.983 158.327C455.382 157.418 456.582 154.389 456.582 154.389Z" fill="white"/>
<path d="M456.682 145.907C456.582 146.008 456.582 146.21 456.482 146.311C456.382 146.513 456.282 146.614 456.282 146.816C456.282 146.917 456.282 147.018 456.282 147.119C456.282 147.22 456.382 147.22 456.482 147.321C456.582 147.321 456.682 147.321 456.783 147.321C456.883 147.321 456.983 147.22 456.983 147.119C457.083 146.816 457.183 146.513 457.283 146.109C457.283 145.907 457.283 145.806 457.083 145.705C456.983 145.705 456.783 145.806 456.682 145.907Z" fill="#00276F"/>
<path d="M458.383 144.595C458.383 144.595 457.483 143.08 455.882 143.989" stroke="#00276F" stroke-width="0.5" stroke-miterlimit="10" stroke-linecap="round" stroke-linejoin="round"/>
<path d="M464.487 148.533C464.387 148.734 464.387 148.835 464.287 149.037C464.187 149.138 464.187 149.34 464.087 149.441C464.087 149.542 464.087 149.643 464.087 149.744C464.087 149.845 464.187 149.946 464.287 149.946C464.387 149.946 464.487 149.946 464.587 149.946C464.687 149.845 464.687 149.845 464.787 149.744C464.887 149.643 464.887 149.441 464.887 149.34C464.887 149.239 464.987 149.037 464.987 148.936C464.987 148.734 464.987 148.634 464.787 148.533C464.687 148.533 464.587 148.533 464.587 148.533C464.587 148.432 464.587 148.533 464.487 148.533Z" fill="#00276F"/>
<path d="M464.387 145.907C464.387 145.907 466.088 145.503 467.589 147.725" stroke="#00276F" stroke-width="0.5" stroke-miterlimit="10" stroke-linecap="round" stroke-linejoin="round"/>
<path d="M468.389 151.461C469.89 149.037 471.291 149.34 472.092 150.552C473.192 152.168 471.391 155.803 470.491 156.409C468.689 157.721 467.489 157.317 467.289 155.702" fill="#FFDAC5"/>
<path d="M497.607 249.405C497.607 249.405 510.315 291.108 479.496 291.108H459.284C457.983 291.108 457.082 292.218 457.282 293.531L461.685 319.885H390.341C390.341 319.885 386.138 277.173 388.14 269.095C390.341 259.806 399.647 249.405 416.557 249.405C433.468 249.405 439.772 249.002 439.772 249.002" fill="#423EAC"/>
<path d="M224.639 301.407L207.028 393.495" stroke="#3D4FB7" stroke-miterlimit="10"/>
<path d="M262.462 301.407L280.073 393.495" stroke="#3D4FB7" stroke-miterlimit="10"/>
<path d="M242.65 301.407L237.847 393.495" stroke="#3D4FB7" stroke-miterlimit="10"/>
<path d="M237.847 161.558C149.592 161.558 172.306 303.225 210.13 303.225C247.953 303.225 296.583 303.225 296.583 303.225C308.29 303.225 311.692 288.28 299.485 288.28C287.277 288.28 277.872 288.28 277.872 288.28C277.872 288.28 302.287 161.558 237.847 161.558Z" fill="#E8EEFE"/>
<path d="M219.035 291.31C256.859 291.31 305.489 291.31 305.489 291.31C305.789 291.31 306.089 291.31 306.289 291.31C305.188 289.593 302.987 288.28 299.485 288.28C287.277 288.28 277.872 288.28 277.872 288.28C277.872 288.28 299.285 177.007 249.054 162.972C248.353 162.972 247.553 162.871 246.752 162.871C158.498 162.972 181.212 291.31 219.035 291.31Z" fill="#CDDBFC"/>
<path d="M294.882 345.936L287.777 378.349L297.984 388.648L266.965 375.522L273.068 338.666" fill="#FFDAC5"/>
<path d="M289.379 374.31C290.379 374.815 289.479 375.522 290.779 378.046C292.08 380.57 298.684 384.912 303.187 387.336C307.59 389.658 305.789 393.798 304.288 393.495C304.288 393.495 281.274 389.456 279.472 389.153C277.671 388.85 276.07 386.427 275.17 386.225L273.669 385.922L273.269 387.841C273.269 387.942 273.068 388.043 272.968 388.043L264.763 386.629C263.863 386.427 263.362 385.72 263.563 385.013C263.563 385.013 265.964 375.926 265.964 375.118C265.964 374.31 265.964 372.795 266.665 372.291C267.365 371.786 267.965 373.401 269.366 373.805C273.068 375.017 279.673 376.33 281.874 376.027C283.075 375.825 282.074 374.714 282.674 374.209C283.275 373.704 288.478 373.805 289.379 374.31Z" fill="#313131"/>
<path d="M263.863 383.903L305.589 392.182" stroke="#515151" stroke-width="0.75" stroke-miterlimit="10"/>
<path d="M343.312 341.292L347.514 376.935L360.723 382.691L327.102 382.186L320.398 342.806" fill="#FFDAC5"/>
<path d="M347.514 372.594C348.615 372.795 348.015 373.704 350.216 375.522C352.417 377.339 360.122 378.955 365.125 379.46C370.028 379.965 369.928 384.407 368.427 384.811C368.427 384.811 345.613 389.759 343.812 390.163C342.011 390.567 339.609 388.951 338.709 389.052L337.208 389.355L337.508 391.274C337.508 391.375 337.408 391.577 337.308 391.577L329.203 393.394C328.302 393.596 327.602 393.091 327.502 392.283C327.502 392.283 326.301 382.893 326.101 382.186C325.901 381.479 325.201 380.066 325.701 379.258C326.201 378.45 327.302 379.763 328.703 379.662C332.505 379.359 339.209 378.147 341.21 377.036C342.311 376.431 340.91 375.724 341.21 375.118C341.611 374.31 346.414 372.493 347.514 372.594Z" fill="#313131"/>
<path d="M327.402 391.173L369.128 382.994" stroke="#515151" stroke-width="0.75" stroke-miterlimit="10"/>
<path d="M250.955 253.242C244.551 262.128 242.95 291.108 261.761 291.108C280.573 291.108 305.488 291.108 305.488 291.108L316.195 371.483L348.115 367.343C348.115 367.343 338.209 288.785 336.908 282.121C334.406 269.297 327.602 257.18 308.29 257.18C290.179 257.18 273.369 257.18 273.369 257.18" fill="#212121"/>
<path d="M266.965 279.698H306.089C308.69 279.698 310.992 281.717 311.292 284.342L322.799 370.675" stroke="#313131" stroke-miterlimit="10"/>
<path d="M214.532 253.242C208.128 262.128 205.026 291.108 225.339 291.108C245.752 291.108 272.968 291.108 272.968 291.108L262.862 367.04L295.782 371.483C295.782 371.483 308.19 288.785 309.291 282.121C310.392 275.457 310.892 257.18 285.176 257.18C267.065 257.18 237.046 257.18 237.046 257.18" fill="#313131"/>
<path d="M221.737 253.242C212.531 264.955 214.733 285.352 229.041 285.352H275.87C278.172 285.352 279.773 287.574 279.072 289.795L267.065 367.545" stroke="#515151" stroke-width="0.75" stroke-miterlimit="10"/>
<path d="M216.834 263.744C216.834 263.744 225.339 263.744 232.443 253.242" stroke="#515151" stroke-width="0.75" stroke-miterlimit="10"/>
<path d="M314.794 187.811C314.794 187.811 325.701 172.362 326.601 172.463C327.502 172.463 325.901 175.493 326.601 175.392C327.302 175.291 331.004 168.727 331.805 168.929C333.005 169.333 329.503 175.19 329.503 175.19C329.503 175.19 330.504 174.079 331.404 174.685C332.005 175.089 331.404 176.906 331.404 176.906C331.404 176.906 332.405 176.3 333.105 176.704C333.806 177.209 333.206 178.724 333.206 178.724C333.206 178.724 334.206 177.411 334.907 178.421C335.607 179.33 332.105 187.912 327.602 196.798" fill="#FFDAC5"/>
<path d="M325.801 176.805C325.801 176.805 325.401 180.036 324.6 182.662" stroke="#F2A486" stroke-width="0.75" stroke-miterlimit="10" stroke-linejoin="round"/>
<path d="M334.707 180.44C334.306 181.248 333.806 181.955 333.306 182.763C333.005 183.167 332.805 183.47 332.505 183.873C332.305 184.075 332.205 184.176 332.005 184.378C331.905 184.479 331.805 184.479 331.605 184.58C331.505 184.58 331.204 184.58 331.104 184.479C330.904 184.176 331.004 183.873 331.004 183.671C331.004 183.47 331.104 183.167 331.104 182.965C331.204 182.561 331.404 182.056 331.505 181.652C331.805 180.844 332.205 179.935 332.605 179.128L333.206 179.431C332.705 180.339 332.205 181.248 331.605 182.056C331.304 182.46 331.004 182.864 330.704 183.268C330.504 183.47 330.304 183.671 330.004 183.873C329.904 183.974 329.603 184.075 329.303 183.974C329.003 183.772 329.003 183.47 328.903 183.369C328.903 182.763 329.003 182.258 329.103 181.753C329.203 181.248 329.403 180.743 329.603 180.238C329.904 179.229 330.304 178.32 330.704 177.411L331.304 177.714C330.804 178.623 330.304 179.532 329.804 180.44C329.503 180.844 329.203 181.349 328.903 181.753C328.703 181.955 328.503 182.157 328.303 182.359C328.203 182.46 328.002 182.561 327.802 182.561C327.502 182.561 327.402 182.258 327.402 182.056C327.302 181.45 327.502 180.945 327.602 180.44C327.702 179.935 327.902 179.431 328.102 178.926C328.503 177.916 328.903 177.007 329.303 176.098C329.003 177.108 328.603 178.017 328.303 179.027C328.203 179.532 328.002 180.036 327.902 180.541C327.802 181.046 327.702 181.551 327.702 181.955C327.702 182.056 327.702 182.056 327.702 182.056C327.702 182.056 327.802 182.056 327.902 181.955C328.102 181.854 328.203 181.652 328.403 181.45C328.703 181.046 329.003 180.642 329.203 180.137C329.703 179.229 330.204 178.32 330.604 177.411C330.704 177.209 330.904 177.209 331.004 177.209C331.204 177.31 331.204 177.512 331.204 177.613C330.804 178.522 330.504 179.431 330.104 180.44C329.904 180.945 329.803 181.349 329.703 181.854C329.603 182.359 329.503 182.864 329.503 183.167C329.503 183.268 329.603 183.268 329.503 183.167C329.403 183.167 329.403 183.167 329.503 183.167C329.603 183.066 329.803 182.965 330.004 182.763C330.304 182.46 330.604 182.056 330.904 181.652C331.505 180.844 332.005 179.935 332.505 179.128C332.605 178.926 332.805 178.926 332.905 179.027C333.005 179.128 333.106 179.33 333.005 179.431C332.605 180.238 332.205 181.046 331.905 181.854C331.705 182.258 331.605 182.662 331.404 183.066C331.304 183.268 331.304 183.47 331.204 183.671C331.204 183.873 331.204 184.075 331.204 184.176C331.204 184.176 331.404 184.176 331.505 184.075C331.705 183.974 331.805 183.873 332.005 183.671C332.305 183.369 332.605 183.066 332.905 182.662C333.606 181.854 334.206 181.147 334.707 180.44Z" fill="#F2A486"/>
<path d="M219.435 170.444C216.734 177.916 214.332 257.18 214.332 257.18H289.178C289.178 257.18 281.574 197.909 276.271 184.58L257.159 167.314L240.649 166.203C240.649 166.203 234.645 165.294 219.435 170.444Z" fill="#FF6675"/>
<path d="M261.462 143.181L257.159 146.513" stroke="#212237" stroke-width="0.5" stroke-miterlimit="10"/>
<path d="M256.658 136.416C256.658 136.416 264.463 151.36 261.361 157.923C259.76 161.356 252.556 162.972 248.854 161.356C246.052 160.145 239.248 149.946 239.848 147.523C242.25 137.93 256.658 136.416 256.658 136.416Z" fill="#FFDAC5"/>
<path d="M242.75 157.721L240.649 166.102C244.151 168.626 250.955 171.151 257.159 167.213L257.859 157.216L242.75 157.721Z" fill="#FFDAC5"/>
<path d="M237.647 155.298C236.146 152.168 235.746 150.754 234.845 146.917C233.944 142.878 236.946 141.363 236.946 141.363C236.946 141.363 236.446 141.868 237.847 138.132C238.547 136.214 241.349 134.396 243.15 133.79C244.351 133.487 245.652 133.286 246.652 132.478C247.453 131.872 247.953 131.064 248.754 130.458C250.155 129.448 252.156 129.348 253.557 130.357C254.857 131.165 255.658 132.781 257.159 133.185C257.759 133.386 258.36 133.286 258.86 133.386C259.861 133.588 260.661 134.396 261.061 135.305C261.461 136.214 261.562 137.324 261.461 138.334C261.361 139.142 261.161 139.849 260.561 140.455C259.46 141.565 257.659 141.464 256.158 141.262C254.657 141.06 252.856 140.758 251.655 141.767C250.955 142.272 250.555 143.181 249.854 143.585C249.054 144.09 248.153 143.989 247.353 144.191C246.252 144.494 245.352 145.503 245.151 146.614C245.051 147.22 245.051 147.927 244.951 148.533C244.851 149.441 244.451 150.249 244.151 151.158C243.25 153.985 245.652 156.106 245.452 158.933C245.352 159.943 241.949 161.356 241.949 161.356C241.949 161.356 239.248 158.63 237.647 155.298Z" fill="#2D2E35"/>
<path d="M257.159 161.356C252.156 162.467 248.053 161.457 248.053 161.457" stroke="#F2A486" stroke-width="0.75" stroke-miterlimit="10" stroke-linejoin="round"/>
<path d="M255.658 147.422C255.658 147.422 258.46 150.956 258.36 151.966C258.26 153.076 255.758 153.48 255.758 153.48" stroke="#F2A486" stroke-width="0.75" stroke-miterlimit="10" stroke-linejoin="round"/>
<path d="M258.76 154.389L252.156 156.106C252.156 156.106 253.857 159.438 257.359 158.327C259.961 157.418 258.76 154.389 258.76 154.389Z" fill="white"/>
<path d="M258.059 146.21C258.159 146.513 258.259 146.816 258.36 147.22C258.36 147.321 258.56 147.422 258.56 147.422C258.66 147.422 258.76 147.422 258.86 147.422C258.96 147.422 258.96 147.321 259.06 147.22C259.06 147.119 259.16 147.018 259.06 146.917C258.96 146.715 258.96 146.614 258.86 146.412C258.76 146.311 258.76 146.109 258.66 146.008C258.56 145.806 258.36 145.806 258.259 145.907C258.159 145.806 258.059 146.008 258.059 146.21Z" fill="#00276F"/>
<path d="M256.959 144.595C256.959 144.595 257.859 143.08 259.46 143.989" stroke="#00276F" stroke-width="0.5" stroke-miterlimit="10" stroke-linecap="round" stroke-linejoin="round"/>
<path d="M250.255 148.835C250.255 148.936 250.355 149.138 250.355 149.239C250.355 149.34 250.455 149.542 250.455 149.643C250.455 149.744 250.555 149.845 250.655 149.845C250.755 149.845 250.855 149.946 250.955 149.845C251.055 149.845 251.155 149.744 251.155 149.643C251.155 149.542 251.255 149.441 251.155 149.34C251.155 149.239 251.055 149.037 250.955 148.936C250.855 148.735 250.855 148.634 250.755 148.432C250.755 148.331 250.655 148.331 250.555 148.23C250.455 148.23 250.355 148.23 250.355 148.23C250.255 148.533 250.255 148.634 250.255 148.835Z" fill="#00276F"/>
<path d="M250.955 145.907C250.955 145.907 249.254 145.503 247.753 147.725" stroke="#00276F" stroke-width="0.5" stroke-miterlimit="10" stroke-linecap="round" stroke-linejoin="round"/>
<path d="M254.157 148.735C254.157 150.956 252.356 152.874 250.054 152.874C247.853 152.874 245.952 151.057 245.952 148.735C245.952 146.513 247.753 144.595 250.054 144.595C252.256 144.595 254.157 146.412 254.157 148.735Z" stroke="#212237" stroke-width="0.5" stroke-miterlimit="10"/>
<path d="M262.262 144.595C262.962 146.715 262.262 148.936 260.661 149.441C259.06 149.946 257.159 148.735 256.458 146.513C255.758 144.393 256.458 142.171 258.059 141.666C259.66 141.161 261.561 142.474 262.262 144.595Z" stroke="#212237" stroke-width="0.5" stroke-miterlimit="10"/>
<path d="M256.258 145.604L253.457 146.513" stroke="#212237" stroke-width="0.5" stroke-miterlimit="10"/>
<path d="M246.052 149.138L242.45 153.48" stroke="#212237" stroke-width="0.5" stroke-miterlimit="10"/>
<path d="M247.453 157.721C247.653 159.337 246.152 159.842 244.051 158.933C243.05 158.529 240.448 155.5 241.149 153.581C241.649 152.168 242.95 151.562 244.951 153.48" fill="#FFDAC5"/>
<path d="M257.159 167.314C257.159 167.314 274.269 166.001 282.574 176.3C287.678 182.662 295.883 208.006 295.883 208.006L316.195 183.268L331.505 192.759C331.505 192.759 312.793 239.207 295.783 239.207C271.668 239.207 263.363 195.384 263.363 195.384" fill="#FF6675"/>
<path d="M286.377 236.38C285.376 228.1 280.873 193.264 277.471 187.912" stroke="#C93F53" stroke-width="0.75" stroke-miterlimit="10"/>
<path d="M238.447 166.203L241.349 163.275C241.349 163.275 247.253 168.626 251.755 169.131L248.754 175.392C242.45 174.382 238.447 166.203 238.447 166.203Z" fill="white"/>
<path d="M257.559 164.284C255.558 167.92 251.755 169.232 251.755 169.232L255.658 174.887C258.86 172.16 259.36 167.213 259.36 167.213L257.559 164.284Z" fill="white"/>
<path d="M313.794 186.095L329.403 196.899" stroke="#C93F53" stroke-width="0.75" stroke-miterlimit="10"/>
<path d="M260.161 221.032C260.161 221.032 277.471 224.263 277.872 225.071C278.172 225.879 274.87 225.677 275.27 226.282C275.67 226.888 283.275 227.09 283.475 227.898C283.675 229.11 276.771 228.807 276.771 228.807C276.771 228.807 284.376 229.514 284.175 230.624C284.075 231.432 278.272 231.129 276.07 231.23C278.472 231.331 282.474 232.038 282.274 232.846C282.174 233.654 278.172 233.553 275.17 233.654C277.071 233.754 280.473 234.259 280.373 234.966C280.273 235.673 267.265 236.178 258.159 236.178" fill="#FFDAC5"/>
<path d="M234.145 166.607C226.54 167.516 215.033 170.343 211.13 178.118C204.927 190.639 199.423 236.481 213.031 236.481C226.64 236.481 261.461 236.481 261.461 236.481V220.325L227.34 215.377C227.14 211.54 229.342 191.345 229.342 191.345" fill="#FF6675"/>
<path d="M261.461 220.325L227.34 215.377C227.14 211.54 229.341 191.345 229.341 191.345" stroke="#C93F53" stroke-width="0.75" stroke-miterlimit="10"/>
<path d="M256.358 219.517L255.858 236.481" stroke="#C93F53" stroke-width="0.75" stroke-miterlimit="10"/>
<path d="M250.555 234.057H293.781V236.481H248.053C248.053 235.168 249.154 234.057 250.555 234.057Z" fill="#C9CED6"/>
<path d="M346.514 236.481H285.677L297.284 198.818C297.884 196.899 299.685 195.586 301.686 195.586H356.62C357.821 195.586 358.722 196.798 358.321 197.909L346.514 236.481Z" fill="#C9CED6"/>
<path d="M349.216 236.481H288.378L299.985 198.818C300.586 196.899 302.387 195.586 304.388 195.586H359.322C360.523 195.586 361.423 196.798 361.023 197.909L349.216 236.481Z" fill="#E8EAEF"/>
<path d="M328.016 219.633C330.258 219.026 331.716 217.18 331.272 215.511C330.828 213.841 328.651 212.979 326.409 213.586C324.167 214.193 322.709 216.038 323.153 217.708C323.597 219.378 325.774 220.24 328.016 219.633Z" fill="#C9CED6"/>
<path d="M390.441 231.533H387.239V230.018H390.441C391.442 230.018 392.342 229.211 392.342 228.1V225.374C392.342 224.364 391.542 223.455 390.441 223.455H387.239V221.941H390.441C392.342 221.941 393.843 223.455 393.843 225.374V228.1C393.843 229.917 392.342 231.533 390.441 231.533Z" fill="#E8EAEF"/>
<path d="M383.537 235.572H382.736C379.334 235.572 376.633 232.846 376.633 229.413V219.618H389.741V229.413C389.641 232.846 386.939 235.572 383.537 235.572Z" fill="#E8EAEF"/>
<path d="M374.431 233.351C374.431 233.351 374.531 236.481 379.334 236.481H386.839C391.642 236.481 391.742 233.351 391.742 233.351H374.431Z" fill="#CFDAE5"/>
<path d="M506.113 234.057H462.886L462.786 236.481H508.514C508.514 235.168 507.414 234.057 506.113 234.057Z" fill="#C9CED6"/>
<path d="M409.953 236.481H470.791L461.085 198.818C460.585 196.899 458.884 195.586 456.882 195.586H401.948C400.748 195.586 399.747 196.798 400.147 197.909L409.953 236.481Z" fill="#C9CED6"/>
<path d="M407.252 236.481H468.089L458.383 198.818C457.883 196.899 456.182 195.586 454.181 195.586H399.247C398.046 195.586 397.045 196.798 397.446 197.909L407.252 236.481Z" fill="#E8EAEF"/>
<path d="M426.263 216.589C426.563 218.305 428.565 219.82 430.766 219.82C432.967 219.82 434.668 218.406 434.368 216.589C434.068 214.872 432.067 213.358 429.865 213.358C427.564 213.459 425.963 214.872 426.263 216.589Z" fill="#C9CED6"/>
<path d="M502.511 231.533H499.309V230.018H502.511C503.511 230.018 504.412 229.211 504.412 228.1V225.374C504.412 224.364 503.611 223.455 502.511 223.455H499.309V221.941H502.511C504.412 221.941 505.913 223.455 505.913 225.374V228.1C506.013 229.917 504.412 231.533 502.511 231.533Z" fill="#E8EAEF"/>
<path d="M495.606 236.481H494.805C491.403 236.481 488.702 233.754 488.702 230.321V219.719H501.81V230.321C501.71 233.754 499.008 236.481 495.606 236.481Z" fill="#E8EAEF"/>
<path d="M486.5 233.351C486.5 233.351 486.601 236.481 491.404 236.481H498.908C503.711 236.481 503.811 233.351 503.811 233.351H486.5Z" fill="white"/>
<path d="M590.565 291.814C589.864 292.319 589.264 293.026 588.964 293.935C588.363 295.853 589.464 297.772 590.565 299.388C593.166 303.527 595.768 307.566 598.47 311.706C600.471 314.937 606.274 321.602 610.377 318.573C613.879 316.048 611.878 309.99 610.277 306.961C608.076 302.619 605.074 298.681 601.772 295.248C600.271 293.733 598.57 292.218 596.668 291.411C594.667 290.603 592.366 290.502 590.565 291.814Z" fill="#93A5F9"/>
<path d="M592.966 294.339C597.569 298.984 601.472 304.335 604.574 310.091" stroke="#7289F7" stroke-miterlimit="10"/>
<path d="M609.576 244.458C608.876 244.963 608.276 245.669 607.975 246.578C607.375 248.497 608.476 250.415 609.576 252.031C612.178 256.171 614.78 260.21 617.481 264.35C619.483 267.581 625.286 274.245 629.389 271.216C632.891 268.691 630.89 262.633 629.289 259.604C627.087 255.262 624.085 251.324 620.783 247.891C619.282 246.376 617.581 244.862 615.68 244.054C613.679 243.246 611.278 243.145 609.576 244.458Z" fill="#CDDBFC"/>
<path d="M611.978 246.982C616.581 251.627 620.483 256.978 623.585 262.734" stroke="#7289F7" stroke-miterlimit="10"/>
<path d="M575.256 288.381C572.054 285.857 566.85 287.271 563.548 288.583C556.844 291.31 550.44 295.752 547.038 302.417C545.337 305.749 544.437 309.889 545.637 313.423C546.438 315.745 548.439 317.866 550.74 317.462C551.541 317.361 552.241 316.856 552.942 316.452C558.845 312.716 564.249 308.172 568.852 302.922C571.653 299.589 580.759 292.925 575.256 288.381Z" fill="#93A5F9"/>
<path d="M556.844 306.052C561.847 300.094 567.651 294.844 574.055 290.704" stroke="#7289F7" stroke-miterlimit="10"/>
<path d="M587.163 222.546C586.462 217.397 582.26 213.56 577.857 211.035C570.152 206.593 560.546 204.977 552.541 208.915C551.641 209.319 550.74 209.925 550.44 210.934C550.24 211.742 550.64 212.651 551.04 213.459C552.541 216.185 554.743 218.305 557.144 220.123C563.248 224.667 570.252 226.282 576.856 229.413C580.659 231.23 585.562 232.442 588.764 229.716" fill="#93A5F9"/>
<path d="M565.549 240.419C579.758 270.206 575.155 302.72 581.559 335.334" stroke="#3F71EF" stroke-miterlimit="10"/>
<path d="M612.078 235.269C609.477 235.37 608.276 238.601 607.776 241.328C602.372 267.278 597.669 303.628 597.669 330.185" stroke="#3F71EF" stroke-miterlimit="10"/>
<path d="M558.845 273.134C570.152 294.743 565.85 318.673 573.254 342.099" stroke="#3F71EF" stroke-miterlimit="10"/>
<path d="M559.346 267.884C555.843 264.451 549.439 265.258 545.337 266.369C537.032 268.59 528.827 272.932 523.924 280.404C521.422 284.14 519.921 288.886 520.922 293.329C521.522 296.156 523.724 298.984 526.425 298.883C527.426 298.883 528.326 298.378 529.227 297.974C536.732 294.44 543.636 289.795 549.94 284.14C553.742 280.909 565.349 274.144 559.346 267.884Z" fill="#93A5F9"/>
<path d="M535.23 286.261C541.835 279.799 549.439 274.447 557.644 270.509" stroke="#7289F7" stroke-miterlimit="10"/>
<path d="M567.851 242.135C566.55 238.096 557.645 237.591 554.342 237.39C550.54 237.188 546.538 237.793 543.236 239.813C539.934 241.832 537.432 245.568 537.232 249.607C537.232 250.213 537.232 250.819 537.532 251.425C537.932 252.132 538.733 252.637 539.433 252.94C542.935 254.353 546.738 254.555 550.44 253.949C554.142 253.343 557.644 252.132 561.147 250.819C562.648 250.314 564.149 249.708 565.449 248.699C567.25 247.285 568.551 244.458 567.851 242.135Z" fill="#CDDBFC"/>
<path d="M546.237 245.265C552.641 243.549 559.245 242.842 565.849 243.246" stroke="#7289F7" stroke-miterlimit="10"/>
<path d="M547.038 277.173C546.337 281.515 544.636 292.42 549.639 294.743C556.144 297.772 563.848 282.323 566.05 277.779C568.451 272.932 570.953 268.086 572.754 263.037C573.955 259.604 574.655 255.262 572.053 252.839C570.652 251.526 568.551 251.223 566.65 251.526C562.748 252.031 559.345 254.555 556.644 257.382C551.441 262.633 548.139 269.802 547.038 277.173Z" fill="#CDDBFC"/>
<path d="M555.143 278.688C558.745 270.004 563.648 261.825 569.652 254.757" stroke="#7289F7" stroke-miterlimit="10"/>
<path d="M566.45 216.084C572.854 217.7 578.857 220.628 584.061 224.768" stroke="#7289F7" stroke-miterlimit="10"/>
<path d="M592.766 222.647C592.766 222.647 591.966 250.213 593.066 273.538C593.967 293.43 593.467 310.394 591.465 330.185" stroke="#3F71EF" stroke-miterlimit="10"/>
<path d="M591.265 216.488C588.764 216.387 586.462 218.003 585.062 220.224C583.661 222.445 583.06 224.97 582.46 227.494C581.359 232.139 579.058 236.279 577.857 241.025C576.656 246.073 576.156 251.223 576.456 256.373C576.656 258.998 577.157 262.027 579.358 263.441C580.859 264.451 582.76 264.451 584.361 263.744C585.962 263.037 587.363 261.825 588.464 260.513C592.166 256.171 594.267 250.516 595.368 244.761C596.469 238.601 596.368 232.341 597.469 226.383C598.27 221.739 596.168 216.892 591.265 216.488Z" fill="#CDDBFC"/>
<path d="M582.16 255.161C583.561 243.145 586.863 231.432 591.666 220.426" stroke="#7289F7" stroke-miterlimit="10"/>
<path d="M606.074 372.392H567.551L560.146 323.52H613.479L606.074 372.392Z" fill="#E8EEFE"/>
<path d="M611.378 337.253L611.778 334.425H561.847L562.247 337.253H611.378Z" fill="#3D4FB7"/>
<path d="M570.052 335.839L558.345 393.495" stroke="#3D4FB7" stroke-miterlimit="10"/>
<path d="M603.373 335.839L615.08 393.495" stroke="#3D4FB7" stroke-miterlimit="10"/>
<path d="M586.662 335.839V393.495" stroke="#3D4FB7" stroke-miterlimit="10"/>
<path d="M604.574 260.916C607.275 258.291 613.379 259.806 616.781 260.815C621.784 262.431 626.587 265.46 630.69 268.792C633.391 270.913 635.893 273.437 637.594 276.466C639.195 279.597 639.795 283.333 638.595 286.564C638.094 287.775 637.394 288.886 636.393 289.492C635.593 289.997 634.692 290.199 633.792 290.3C630.49 290.805 626.987 289.997 624.086 288.179C621.684 286.665 619.683 284.645 617.782 282.525C613.979 278.486 610.277 274.447 606.375 270.61C603.573 267.985 601.372 264.35 604.574 260.916Z" fill="#93A5F9"/>
<path d="M630.489 279.698C623.385 273.134 615.18 267.682 606.475 263.643" stroke="#7289F7" stroke-miterlimit="10"/>
<path d="M572.354 273.538C570.553 276.466 578.057 283.535 579.758 285.352C583.661 289.391 587.963 292.925 592.666 295.954C596.769 298.58 601.672 300.801 606.375 299.589C608.076 299.186 609.777 298.176 610.477 296.459C610.978 295.248 610.878 293.733 610.677 292.42C609.977 288.583 608.476 284.847 606.175 281.717C602.172 276.264 596.268 272.932 589.965 271.216C584.761 269.701 575.756 267.379 572.354 273.538Z" fill="#CDDBFC"/>
<path d="M575.756 274.346C584.761 279.092 593.567 284.443 602.072 290.199" stroke="#7289F7" stroke-miterlimit="10"/>
<path d="M605.774 239.813C607.775 232.745 616.381 234.259 621.184 233.149C625.186 232.24 629.389 231.533 633.491 231.836C637.594 232.139 641.796 233.452 644.898 236.279C646.299 237.491 647.5 239.005 647.9 240.823C648.601 243.953 646.699 247.184 644.398 249.304C637.494 255.767 629.989 254.656 622.084 252.233C616.481 250.516 602.172 249.91 605.774 239.813Z" fill="#CDDBFC"/>
<path d="M641.696 247.285C631.09 243.65 619.983 241.832 608.876 241.731" stroke="#7289F7" stroke-miterlimit="10"/>
<path d="M89.4553 245.165C92.9575 244.559 96.5597 244.054 99.8617 245.568C102.764 246.881 104.865 249.607 107.166 252.031C109.468 254.454 112.369 256.575 115.471 256.272C118.773 255.969 121.475 252.637 121.875 249.002C122.276 245.366 120.775 241.731 118.273 239.308C115.772 236.885 112.57 235.572 109.268 234.966C105.966 234.461 102.663 234.562 99.3614 234.764" fill="#93A5F9"/>
<path d="M110.068 273.639C112.57 273.841 115.071 274.144 117.272 275.255C119.474 276.365 121.375 278.587 121.675 281.111C121.975 283.737 120.074 286.463 117.573 286.564C116.072 286.564 114.671 285.655 113.57 284.544C112.369 283.333 111.269 282.02 109.868 280.909C108.367 279.698 106.666 279.193 104.865 278.486C102.964 277.779 100.862 276.668 100.262 274.548" fill="#93A5F9"/>
<path d="M77.5481 297.57C77.2479 289.593 80.2498 281.313 86.0534 276.062C91.7569 270.812 100.162 268.691 107.467 271.216C110.468 272.226 114.571 273.437 118.173 275.861C107.567 274.447 98.3609 283.434 96.6599 284.746C95.5592 285.554 94.6587 286.463 93.658 287.473C89.3554 291.31 82.4511 294.945 77.5481 297.57Z" fill="#CDDBFC"/>
<path d="M71.9447 278.789C72.545 274.952 71.4443 271.115 70.7439 267.278C69.243 259.503 69.4431 251.122 72.9453 244.054C76.4474 236.986 83.7519 231.735 91.2566 232.644C93.9582 232.947 96.5598 233.956 99.2615 234.461C101.763 234.865 104.365 234.865 106.966 234.764C108.067 234.764 109.668 235.067 110.468 235.673C103.164 237.591 98.9613 244.458 91.8569 248.396C84.4524 252.334 83.4518 266.672 71.9447 278.789Z" fill="#CDDBFC"/>
<path d="M65.9409 269.398C65.6407 265.359 63.1392 261.724 60.3374 258.897C57.5357 256.07 54.2337 253.747 51.7321 250.617C50.2312 248.8 48.9304 246.679 47.7297 244.559C45.9285 241.529 44.0274 238.399 42.2263 235.37C41.0255 233.452 39.9248 231.533 38.9242 229.413C37.8235 227.191 37.023 224.768 36.3226 222.344C35.5221 220.022 34.8217 217.599 34.2213 215.175C33.721 213.358 33.2207 211.439 33.2207 209.521C33.2207 207.602 33.721 205.583 34.9218 204.169C36.5227 202.251 39.2244 201.645 41.5258 202.049C43.9273 202.453 46.0286 203.765 48.0298 205.28C49.2306 206.189 50.4313 207.198 51.3319 208.41C53.9335 211.641 54.6339 215.983 56.0348 219.921C58.5363 226.989 63.3393 233.048 65.5407 240.217C66.2411 242.539 66.6413 244.963 67.0416 247.285C67.6419 252.536 68.5425 263.845 65.9409 269.398Z" fill="#CDDBFC"/>
<path d="M42.9265 210.53C47.029 218.507 51.1316 226.585 55.2341 234.562C56.735 237.491 58.336 240.52 59.6368 243.65C66.7412 260.513 69.0426 299.69 68.3422 325.338" stroke="#7289F7" stroke-miterlimit="10"/>
<path d="M98.3608 234.764C94.6585 234.36 91.0563 236.178 88.1545 238.601C78.9488 246.275 75.4466 259.2 73.5455 271.418C71.244 286.16 70.3435 301.205 71.144 316.149" stroke="#7289F7" stroke-miterlimit="10"/>
<path d="M109.368 273.033C101.463 271.115 92.8574 274.548 87.0538 280.505C81.2502 286.463 77.9482 294.743 76.4472 303.124C74.9463 311.504 74.9463 320.188 75.0464 328.67" stroke="#7289F7" stroke-miterlimit="10"/>
<path d="M54.734 267.884C46.4289 257.281 34.1213 248.901 21.0132 252.233C15.6098 253.545 10.4066 255.969 5.30347 258.392C17.0107 255.868 21.1132 256.171 29.4184 260.311C37.7235 264.552 42.2263 275.053 47.5295 283.03C49.2306 285.554 59.9372 299.085 60.6376 290.704C61.4381 282.929 59.3368 273.74 54.734 267.884Z" fill="#93A5F9"/>
<path d="M16.6104 253.545C25.816 251.728 35.9223 252.637 42.9266 259.503C50.031 266.369 57.2354 282.121 60.1372 292.117C63.1391 302.114 64.5399 312.615 65.9408 323.015" stroke="#7289F7" stroke-miterlimit="10"/>
<path d="M85.553 355.428H52.5326L46.1287 313.423H91.8569L85.553 355.428Z" fill="#E8EEFE"/>
<path d="M90.0558 325.338L90.456 322.813H47.5295L47.9298 325.338H90.0558Z" fill="#3D4FB7"/>
<path d="M54.5338 324.126L44.5276 393.495" stroke="#3D4FB7" stroke-miterlimit="10"/>
<path d="M83.2515 324.126L93.2576 393.495" stroke="#3D4FB7" stroke-miterlimit="10"/>
<path d="M68.9426 324.126V393.495" stroke="#3D4FB7" stroke-miterlimit="10"/>
<path d="M5.60363 257.988C0.600537 261.623 -2.20119 266.672 2.10146 273.033C5.20338 277.678 12.0076 278.082 16.8105 275.558C21.7136 273.033 25.2157 268.489 29.0181 264.35C32.7204 260.21 44.5277 257.685 44.5277 257.685C44.5277 257.685 41.826 254.858 38.8241 253.646C37.3232 253.04 35.8223 252.435 34.3214 252.132C31.1194 251.324 27.7173 251.021 24.3152 251.324C17.8112 251.829 11.007 254.151 5.60363 257.988Z" fill="#CDDBFC"/>
<path d="M34.3214 252.031C22.5141 253.141 12.5079 258.897 8.70557 265.864" stroke="#7289F7" stroke-miterlimit="10"/>
<path d="M192.119 240.52V393.495" stroke="#3D4FB7" stroke-miterlimit="10"/>
<path d="M530.928 240.52V393.495" stroke="#3D4FB7" stroke-miterlimit="10"/>
<path d="M542.435 236.178H180.712V244.862H542.435V236.178Z" fill="#F2F9FF"/>
</g>
<defs>
<linearGradient id="paint0_linear_289_181" x1="427.829" y1="84.3497" x2="427.829" y2="33.0679" gradientUnits="userSpaceOnUse">
<stop stop-color="#F7F7FF" stop-opacity="0.4"/>
<stop offset="1" stop-color="#D1E4F2" stop-opacity="0.5"/>
</linearGradient>
<linearGradient id="paint1_linear_289_181" x1="-nan" y1="-nan" x2="-nan" y2="-nan" gradientUnits="userSpaceOnUse">
<stop stop-color="white" stop-opacity="0.7"/>
<stop offset="1" stop-color="white"/>
</linearGradient>
<linearGradient id="paint2_linear_289_181" x1="-nan" y1="-nan" x2="-nan" y2="-nan" gradientUnits="userSpaceOnUse">
<stop stop-color="white" stop-opacity="0.7"/>
<stop offset="1" stop-color="white"/>
</linearGradient>
<linearGradient id="paint3_linear_289_181" x1="-nan" y1="-nan" x2="-nan" y2="-nan" gradientUnits="userSpaceOnUse">
<stop stop-color="white" stop-opacity="0.7"/>
<stop offset="1" stop-color="white"/>
</linearGradient>
<linearGradient id="paint4_linear_289_181" x1="510.406" y1="25.8763" x2="502.34" y2="25.8763" gradientUnits="userSpaceOnUse">
<stop stop-color="#F5F5FF" stop-opacity="0.6"/>
<stop offset="1" stop-color="#E4E4F2" stop-opacity="0.5"/>
</linearGradient>
<linearGradient id="paint5_linear_289_181" x1="510.406" y1="35.4516" x2="502.34" y2="35.4516" gradientUnits="userSpaceOnUse">
<stop stop-color="#F5F5FF" stop-opacity="0.6"/>
<stop offset="1" stop-color="#E4E4F2" stop-opacity="0.5"/>
</linearGradient>
<linearGradient id="paint6_linear_289_181" x1="502.34" y1="69.6487" x2="526.182" y2="69.6487" gradientUnits="userSpaceOnUse">
<stop stop-color="#E7E9F0"/>
<stop offset="1" stop-color="#F5F5FF"/>
</linearGradient>
<linearGradient id="paint7_linear_289_181" x1="510.406" y1="45.0267" x2="502.34" y2="45.0267" gradientUnits="userSpaceOnUse">
<stop stop-color="#F5F5FF" stop-opacity="0.6"/>
<stop offset="1" stop-color="#E4E4F2" stop-opacity="0.5"/>
</linearGradient>
<clipPath id="clip0_289_181">
<rect width="648" height="394" fill="white"/>
</clipPath>
</defs>
</svg>
